<?xml version="1.0" encoding="UTF-8" standalone="no"?>
<!-- Created with Inkscape (http://www.inkscape.org/) -->

<svg
   xmlns:dc="http://purl.org/dc/elements/1.1/"
   xmlns:cc="http://creativecommons.org/ns#"
   xmlns:rdf="http://www.w3.org/1999/02/22-rdf-syntax-ns#"
   xmlns:svg="http://www.w3.org/2000/svg"
   xmlns="http://www.w3.org/2000/svg"
   xmlns:sodipodi="http://sodipodi.sourceforge.net/DTD/sodipodi-0.dtd"
   xmlns:inkscape="http://www.inkscape.org/namespaces/inkscape"
   version="1.1"
   width="600"
   height="525"
   id="svg3069"
   inkscape:version="0.91 r13725"
   sodipodi:docname="Custom_W005.svg">
  <sodipodi:namedview
     pagecolor="#ffffff"
     bordercolor="#666666"
     borderopacity="1"
     objecttolerance="10"
     gridtolerance="10"
     guidetolerance="10"
     inkscape:pageopacity="0"
     inkscape:pageshadow="2"
     inkscape:window-width="2380"
     inkscape:window-height="1353"
     id="namedview4385"
     showgrid="false"
     inkscape:zoom="1.7980952"
     inkscape:cx="308.81785"
     inkscape:cy="274.79407"
     inkscape:window-x="20"
     inkscape:window-y="42"
     inkscape:window-maximized="0"
     inkscape:current-layer="svg3069" />
  <metadata
     id="metadata3085">
    <rdf:RDF>
      <cc:Work
         rdf:about="">
        <dc:format>image/svg+xml</dc:format>
        <dc:type
           rdf:resource="http://purl.org/dc/dcmitype/StillImage" />
        <dc:title></dc:title>
      </cc:Work>
    </rdf:RDF>
  </metadata>
  <defs
     id="defs3073">
    <path
       d="M 2.8117,-1.046 A 3,3 0 0 1 0.5,2.958 V 4.5119 A 10.5,10.5 0 0 1 2,25.3078 v 0.5583 A 15,15 0 0 0 14.7975,8.5433 15,15 0 0 0 23.4007,-11.201 l -0.4835,0.2792 A 10.5,10.5 0 0 1 4.1574,-1.8229 z m 3.4148,8.871 a 10,10 0 0 1 -12.453,0 9.5,9.5 0 0 0 -2.1756,2.7417 13.5,13.5 0 0 0 16.8042,0 A 10,10 0 0 0 6.2265,7.825 z"
       transform="matrix(10,0,0,-10,260,260)"
       id="p" />
  </defs>
  <path
     d="M 597.6,499.6 313.8,8 C 310.9,3 305.6,0 299.9,0 294.2,0 288.9,3.1 286,8 L 2.2,499.6 c -2.9,5 -2.9,11.1 0,16 2.9,5 8.2,8 13.9,8 h 567.6 c 5.7,0 11,-3.1 13.9,-8 2.9,-5 2.9,-11.1 0,-16 z"
     id="sign_border" />
  <polygon
     points="43.875,491.5 299.875,48.2 555.875,491.5 "
     transform="matrix(1,0,0,0.99591458,0.125,2.0332437)"
     id="polygon7"
     style="fill:#f6bd16;fill-opacity:1;stroke:none;overflow:visible" />
  <g
     transform="translate(87.985352,13.903602)"
     style="font-style:normal;font-weight:normal;font-size:40px;line-height:125%;font-family:sans-serif;letter-spacing:0px;word-spacing:0px;fill:#000000;fill-opacity:1;stroke:none;stroke-width:1px;stroke-linecap:butt;stroke-linejoin:miter;stroke-opacity:1"
     id="flowRoot4938">
    <path
       d="m 82.864258,459.44739 0,-178.95508 108.886722,0 0,30.27344 -79.34571,0 0,39.67285 73.73047,0 0,30.15137 -73.73047,0 0,48.70605 82.03125,0 0,30.15137 -111.572262,0 z"
       style="font-style:normal;font-variant:normal;font-weight:bold;font-stretch:condensed;font-size:250px;font-family:'Arial Narrow';-inkscape-font-specification:'Arial Narrow Bold Condensed'"
       id="path4947" />
    <path
       d="m 204.69043,459.44739 50.1709,-93.38379 -45.53223,-85.57129 34.66797,0 29.41895,57.49512 28.80859,-57.49512 34.30176,0 -45.53223,86.91406 50.1709,92.04102 -35.7666,0 -32.59278,-61.88965 -32.59277,61.88965 -35.52246,0 z"
       style="font-style:normal;font-variant:normal;font-weight:bold;font-stretch:condensed;font-size:250px;font-family:'Arial Narrow';-inkscape-font-specification:'Arial Narrow Bold Condensed'"
       id="path4949" />
  </g>
</svg>
