<svg xmlns="http://www.w3.org/2000/svg" viewBox="0 0 198.56 173.648" style="enable-background:new 0 0 198.56 173.648" xml:space="preserve"><path style="fill-rule:evenodd;clip-rule:evenodd;stroke:#000;stroke-width:.1276;stroke-miterlimit:2.6131" d="m197.704 164.944-93.456-162-.576-.864-.72-.648-.792-.576-.936-.432-.936-.288L99.28.064l-1.008.072-1.008.288-.864.432-.864.576-.648.648-.576.864-93.456 162-.432.936-.288.936-.072 1.008.072 1.008.288 1.008.432.864.576.864.648.648.864.576.864.432 1.008.288 1.008.072h186.912l1.008-.072.936-.288.936-.432.792-.576.72-.648.576-.864.432-.864.288-1.008.072-1.008-.072-1.008-.288-.936-.432-.936z"/><path style="fill-rule:evenodd;clip-rule:evenodd;fill:#f3c736;stroke:#000;stroke-width:.1276;stroke-miterlimit:2.6131" d="m99.28 18.136 82.8 143.568H16.48l82.8-143.568z"/><path style="fill-rule:evenodd;clip-rule:evenodd" d="M99.276 121.762c4.318 0 7.821-3.5 7.821-7.815 0-4.314-3.502-7.813-7.821-7.813s-7.82 3.499-7.82 7.813a7.818 7.818 0 0 0 7.82 7.815zm-39.453-7.815c0-14.588 7.933-27.325 19.724-34.14l13.194 22.87c-3.887 2.254-6.501 6.457-6.501 11.269H59.823v.001zm59.18 34.135c-12.645 7.295-27.653 6.8-39.456.006l13.226-22.852a13.045 13.045 0 0 0 13.022-.012l13.208 22.858zm0-68.269c12.646 7.294 19.72 20.525 19.733 34.136l-26.423-.02a13.014 13.014 0 0 0-6.519-11.259l13.209-22.857z"/></svg>
