<svg xmlns="http://www.w3.org/2000/svg" viewBox="0 0 198.56 173.648" style="enable-background:new 0 0 198.56 173.648" xml:space="preserve"><path style="fill-rule:evenodd;clip-rule:evenodd;stroke:#000;stroke-width:.1276;stroke-miterlimit:2.6131" d="m197.704 164.944-93.456-162-.576-.864-.72-.648-.792-.576-.936-.432-.936-.288L99.28.064l-1.008.072-1.008.288-.864.432-.864.576-.648.648-.576.864-93.456 162-.432.936-.288.936-.072 1.008.072 1.008.288 1.008.432.864.576.864.648.648.864.576.864.432 1.008.288 1.008.072h186.912l1.008-.072.936-.288.936-.432.792-.576.72-.648.576-.864.432-.864.288-1.008.072-1.008-.072-1.008-.288-.936-.432-.936z"/><path style="fill-rule:evenodd;clip-rule:evenodd;fill:#f3c736;stroke:#000;stroke-width:.1276;stroke-miterlimit:2.6131" d="m99.28 18.136 82.8 143.568H16.48l82.8-143.568z"/><path style="fill-rule:evenodd;clip-rule:evenodd;stroke:#000;stroke-width:.8274;stroke-miterlimit:2.6131" d="M118.758 152.822c15.255 0 27.621-12.366 27.621-27.621 0-15.254-12.366-27.621-27.621-27.621-15.253 0-27.62 12.366-27.62 27.621-.001 15.255 12.367 27.621 27.62 27.621z"/><path style="fill-rule:evenodd;clip-rule:evenodd;stroke:#000;stroke-width:.8274;stroke-miterlimit:2.6131" d="M79.802 152.668c15.253 0 27.621-12.367 27.621-27.621 0-15.254-12.367-27.62-27.621-27.62-15.255 0-27.622 12.366-27.622 27.62 0 15.254 12.367 27.621 27.622 27.621z"/><path style="fill-rule:evenodd;clip-rule:evenodd;stroke:#000;stroke-width:.8274;stroke-miterlimit:2.6131" d="M99.589 118.967c15.255 0 27.621-12.366 27.621-27.621 0-15.254-12.366-27.62-27.621-27.62-15.254 0-27.621 12.366-27.621 27.62 0 15.254 12.367 27.621 27.621 27.621z"/><path style="fill-rule:evenodd;clip-rule:evenodd;fill:#f3c736;stroke:#000;stroke-width:.779;stroke-miterlimit:2.6131" d="M99.395 103.121c10.664 0 19.308-8.645 19.308-19.307 0-10.663-8.644-19.306-19.308-19.306-10.662 0-19.307 8.644-19.307 19.306.001 10.662 8.646 19.307 19.307 19.307zm25.674 45.194c10.662 0 19.306-8.643 19.306-19.306 0-10.662-8.645-19.307-19.306-19.307-10.664 0-19.308 8.645-19.308 19.307.001 10.663 8.644 19.306 19.308 19.306zm-51.779-.387c10.663 0 19.306-8.644 19.306-19.307 0-10.663-8.643-19.307-19.306-19.307-10.664 0-19.307 8.645-19.307 19.307 0 10.663 8.643 19.307 19.307 19.307z"/><path style="fill-rule:evenodd;clip-rule:evenodd;fill:#f3c736;stroke:#f3c736;stroke-width:.7948;stroke-miterlimit:2.6131" d="M99.28 118.687a4.766 4.766 0 1 0 0-9.532 4.766 4.766 0 0 0 0 9.532z"/><path style="fill:none;stroke:#f3c736;stroke-width:1.9035;stroke-miterlimit:2.6131" d="M99.28 61.979v51.942m-34.628 19.164 34.628-19.164m44.983 25.973L99.28 113.921"/><path style="fill:none;stroke:#000;stroke-width:7.4483;stroke-miterlimit:2.6131" d="M99.28 136.572c12.51 0 22.651-10.141 22.651-22.651S111.789 91.27 99.28 91.27c-12.51 0-22.652 10.142-22.652 22.651.001 12.51 10.142 22.651 22.652 22.651"/><path style="fill:none;stroke:#f3c736;stroke-width:2.069;stroke-miterlimit:2.6131" d="M125.069 147.18c10.035 0 18.171-8.135 18.171-18.171 0-10.034-8.135-18.171-18.171-18.171s-18.172 8.137-18.172 18.171c0 10.036 8.136 18.171 18.172 18.171m-51.779-.387c10.035 0 18.17-8.137 18.17-18.172 0-10.036-8.135-18.171-18.17-18.171-10.036 0-18.171 8.135-18.171 18.171 0 10.035 8.135 18.172 18.171 18.172m26.105-44.809c10.036 0 18.173-8.135 18.173-18.17 0-10.035-8.137-18.171-18.173-18.171-10.035 0-18.171 8.136-18.171 18.171 0 10.034 8.136 18.17 18.171 18.17"/><path style="fill:none;stroke:#f3c736;stroke-width:4.966;stroke-miterlimit:2.6131" d="m60.459 136.398-8.226 4.75m85.077-5.28 8.226 4.751M99.28 71.479V61.98"/></svg>