<?xml version="1.0" encoding="UTF-8" standalone="no"?>
<!-- Created with Inkscape (http://www.inkscape.org/) -->

<svg
   xmlns:dc="http://purl.org/dc/elements/1.1/"
   xmlns:cc="http://creativecommons.org/ns#"
   xmlns:rdf="http://www.w3.org/1999/02/22-rdf-syntax-ns#"
   xmlns:svg="http://www.w3.org/2000/svg"
   xmlns="http://www.w3.org/2000/svg"
   xmlns:sodipodi="http://sodipodi.sourceforge.net/DTD/sodipodi-0.dtd"
   xmlns:inkscape="http://www.inkscape.org/namespaces/inkscape"
   version="1.1"
   width="600"
   height="525"
   id="svg3069"
   inkscape:version="0.91 r13725"
   sodipodi:docname="Custom_W004.svg"
   inkscape:export-filename="/Volumes/CommunSHE$/DSPS_SCC/SCC/Media Library/Pictograms/Custom/W004/Raster/Custom_W004_small.png"
   inkscape:export-xdpi="30.012505"
   inkscape:export-ydpi="30.012505">
  <sodipodi:namedview
     pagecolor="#ffffff"
     bordercolor="#666666"
     borderopacity="1"
     objecttolerance="10"
     gridtolerance="10"
     guidetolerance="10"
     inkscape:pageopacity="0"
     inkscape:pageshadow="2"
     inkscape:window-width="2560"
     inkscape:window-height="1315"
     id="namedview4192"
     showgrid="false"
     inkscape:zoom="1.5475537"
     inkscape:cx="353.48005"
     inkscape:cy="222.25586"
     inkscape:window-x="0"
     inkscape:window-y="1"
     inkscape:window-maximized="1"
     inkscape:current-layer="svg3069" />
  <metadata
     id="metadata3085">
    <rdf:RDF>
      <cc:Work
         rdf:about="">
        <dc:format>image/svg+xml</dc:format>
        <dc:type
           rdf:resource="http://purl.org/dc/dcmitype/StillImage" />
        <dc:title></dc:title>
      </cc:Work>
    </rdf:RDF>
  </metadata>
  <defs
     id="defs3073">
    <path
       d="M 2.8117,-1.046 A 3,3 0 0 1 0.5,2.958 V 4.5119 A 10.5,10.5 0 0 1 2,25.3078 v 0.5583 A 15,15 0 0 0 14.7975,8.5433 15,15 0 0 0 23.4007,-11.201 l -0.4835,0.2792 A 10.5,10.5 0 0 1 4.1574,-1.8229 z m 3.4148,8.871 a 10,10 0 0 1 -12.453,0 9.5,9.5 0 0 0 -2.1756,2.7417 13.5,13.5 0 0 0 16.8042,0 A 10,10 0 0 0 6.2265,7.825 z"
       transform="matrix(10,0,0,-10,260,260)"
       id="p" />
  </defs>
  <path
     d="M 597.6,499.6 313.8,8 C 310.9,3 305.6,0 299.9,0 294.2,0 288.9,3.1 286,8 L 2.2,499.6 c -2.9,5 -2.9,11.1 0,16 2.9,5 8.2,8 13.9,8 h 567.6 c 5.7,0 11,-3.1 13.9,-8 2.9,-5 2.9,-11.1 0,-16 z"
     id="sign_border" />
  <polygon
     points="43.875,491.5 299.875,48.2 555.875,491.5 "
     transform="matrix(1,0,0,0.99591458,0.125,2.0332437)"
     id="polygon7"
     style="fill:#f6bd16;fill-opacity:1;stroke:none;overflow:visible" />
  <g
     id="g4259"
     transform="matrix(0.71358368,0,0,0.71358368,85.924891,41.309359)">
    <path
       style="fill:#000000;fill-opacity:1;stroke:#000000;stroke-width:0.62514842;stroke-linecap:square;stroke-miterlimit:4;stroke-dasharray:none;stroke-dashoffset:0;stroke-opacity:0.4"
       id="path1995"
       transform="matrix(0.99319888,0,0,1.0479962,719.28979,-2.9357862)"
       d="m -384.00937,417.52725 a 38.151581,36.156727 0 1 1 -76.30316,0 38.151581,36.156727 0 1 1 76.30316,0 z"
       inkscape:connector-curvature="0" />
    <path
       style="fill:#000000;fill-opacity:1;stroke:#000000;stroke-width:0.88582677;stroke-linecap:square;stroke-miterlimit:4;stroke-dashoffset:0;stroke-opacity:1"
       id="rect1997"
       d="m 300,168.60074 c -20.64745,0 -37.26716,16.97292 -37.26716,38.05658 l 11.01897,133.31318 c 2.10449,17.24457 3.90184,27.0149 11.01898,31.60966 4.64712,2.1172 9.79468,3.32214 15.22921,3.32214 5.40832,0 10.53383,-1.1913 15.16343,-3.28925 7.15697,-4.58178 8.97556,-14.35941 11.08476,-31.64255 l 11.01898,-133.31318 c 0,-21.08366 -16.61973,-38.05658 -37.26717,-38.05658 z"
       inkscape:connector-curvature="0" />
  </g>
  <g
     transform="translate(8.8564453,-6.8537859)"
     style="font-style:normal;font-weight:normal;font-size:40px;line-height:125%;font-family:sans-serif;letter-spacing:0px;word-spacing:0px;fill:#000000;fill-opacity:1;stroke:none;stroke-width:1px;stroke-linecap:butt;stroke-linejoin:miter;stroke-opacity:1"
     id="flowRoot4263">
    <path
       d="m 221.49023,462.2803 -13.5498,0 -23.14453,-37.42676 0,37.42676 -12.89063,0 0,-54.52881 16.80909,0 19.88525,31.23779 0,-31.23779 12.89062,0 0,54.52881 z"
       style="font-style:normal;font-variant:normal;font-weight:bold;font-stretch:normal;font-size:75px;font-family:Verdana;-inkscape-font-specification:'Verdana Bold'"
       id="path4291" />
    <path
       d="m 285.87012,462.2803 -14.53858,0 -3.77197,-11.02295 -20.21484,0 -3.77198,11.02295 -14.17236,0 20.1416,-54.52881 16.18653,0 20.1416,54.52881 z m -21.71631,-21.02051 -6.70166,-19.55566 -6.70166,19.55566 13.40332,0 z"
       style="font-style:normal;font-variant:normal;font-weight:bold;font-stretch:normal;font-size:75px;font-family:Verdana;-inkscape-font-specification:'Verdana Bold'"
       id="path4293" />
    <path
       d="m 343.36523,462.2803 -13.5498,0 -23.14453,-37.42676 0,37.42676 -12.89063,0 0,-54.52881 16.80909,0 19.88525,31.23779 0,-31.23779 12.89062,0 0,54.52881 z"
       style="font-style:normal;font-variant:normal;font-weight:bold;font-stretch:normal;font-size:75px;font-family:Verdana;-inkscape-font-specification:'Verdana Bold'"
       id="path4295" />
    <path
       d="m 410.38184,435.03421 q 0,13.0371 -7.47071,20.72753 -7.4707,7.65381 -20.65429,7.65381 -13.14698,0 -20.61768,-7.65381 -7.4707,-7.69043 -7.4707,-20.72753 0,-13.14698 7.4707,-20.76416 7.4707,-7.65381 20.61768,-7.65381 13.11035,0 20.61767,7.65381 7.50733,7.61718 7.50733,20.76416 z m -18.64014,13.80615 q 2.05078,-2.49024 3.03955,-5.85938 0.98877,-3.40576 0.98877,-7.9834 0,-4.90722 -1.13525,-8.34961 -1.13526,-3.44238 -2.96631,-5.5664 -1.86768,-2.19727 -4.32129,-3.18604 -2.41699,-0.98877 -5.05371,-0.98877 -2.67334,0 -5.05371,0.95215 -2.34375,0.95215 -4.32129,3.14942 -1.83106,2.05078 -3.00293,5.67627 -1.13526,3.58886 -1.13526,8.34961 0,4.8706 1.09864,8.31298 1.13525,3.40577 2.9663,5.56641 1.83106,2.16064 4.28467,3.18603 2.45362,1.0254 5.16358,1.0254 2.70996,0 5.16357,-1.0254 2.45361,-1.06201 4.28467,-3.25927 z"
       style="font-style:normal;font-variant:normal;font-weight:bold;font-stretch:normal;font-size:75px;font-family:Verdana;-inkscape-font-specification:'Verdana Bold'"
       id="path4297" />
  </g>
</svg>
