<svg xmlns="http://www.w3.org/2000/svg" viewBox="0 0 198.56 173.648" style="enable-background:new 0 0 198.56 173.648" xml:space="preserve"><path style="fill-rule:evenodd;clip-rule:evenodd;stroke:#000;stroke-width:.1276;stroke-miterlimit:2.6131" d="m197.704 164.944-93.456-162-.576-.864-.72-.648-.792-.576-.936-.432-.936-.288L99.28.064l-1.008.072-1.008.288-.864.432-.864.576-.648.648-.576.864-93.456 162-.432.936-.288.936-.072 1.008.072 1.008.288 1.008.432.864.576.864.648.648.864.576.864.432 1.008.288 1.008.072h186.912l1.008-.072.936-.288.936-.432.792-.576.72-.648.576-.864.432-.864.288-1.008.072-1.008-.072-1.008-.288-.936-.432-.936z"/><path style="fill-rule:evenodd;clip-rule:evenodd;fill:#f3c736;stroke:#000;stroke-width:.1276;stroke-miterlimit:2.6131" d="m99.28 18.136 82.8 143.568H16.48l82.8-143.568z"/><path style="fill-rule:evenodd;clip-rule:evenodd" d="m41.222 101.983 10.662 24.152 1.065-1.385-9.8-28.756-1.927 5.989zm12.083 17.326-5.986-30.683 2.867-3.855 3.503 34.727-.384-.189zm8.196 2.999 7.112-67.853 10.9-11.993-18.012 79.846zm3.052.815 44.559-99.42 6.982 15.015-51.541 84.405zm1.631 7.321 65-60.435 1.227-.877 4.559 6.832-70.786 54.48zm14.861-19.323 46.286-56.884 2.807 3.329-49.093 53.555zm-19.706 26.865 82.32-52.439 3.945 8.586-86.265 43.853zm101.413-24.78 2.346 9.188-87.23 10.352 84.884-19.54zm-67.22 21.972 74.576-1.757 4.42 3.677-78.731-1.533-.265-.387zm-23.039 2.385c2.039.408 105.506 6.046 105.506 6.046l3.051 7.321-108.557-13.367zm.814 6.305c2.445.611 92.425 18.647 92.425 18.647l-7.022 7.362-85.403-26.009zm-3.003 2.802 49.905 24.498h-12.071l-39.872-22.872 2.038-1.626zm-7.425 4.124a13.49 13.49 0 0 1-9.902 4.315c-7.466 0-13.516-6.048-13.516-13.503 0-6.391 4.44-11.742 10.404-13.146.179-.04.006.741.276.95.177.135.377.298.512.425.272.268.566.575.672.906.389 1.2.349 2.537-.234 3.662-.408.794-1.809 1.152-1.471 2.223.34 1.063 1.776.62 2.71.549.439-.036.995-.493 1.379-.032.432.515 1.106.511 1.5.944.392.433.589.989 1.1 1.349.552.388 1.181.189 1.727.241.389.038 1.035.092 1.268.598.265.578.49 1.318.16 1.788-.358.508-1.263.462-1.713.934-.472.495-.965 1.259-.554 1.868.467.693 1.202 1.091 1.429 1.921.679-.46 1.662-.706 2.245-.327.48.308.448 1.22.587 1.951.136.71.935.781 1.247 1.404l.174.98zm-7.63-18.7c.022-.315-.266-.658-.126-.857.485-.675 1.111-1.44 1.988-1.135.39.135.802.325 1.205.404.651.126 1.311-.481 1.939-.078.457.295.918.298 1.349.545.666.381.626 1.463.063 1.857-.605.426-1.147.902-1.844 1.125-.399.129-.869.248-1.227.069-.469-.235-.605-.91-1.192-.915-.835-.007-1.773.065-2.377-.525-.151-.149-.05-.549-.05-.848l.272.358z"/><path style="fill-rule:evenodd;clip-rule:evenodd" d="M65.187 147.053c.119-.528-.031-1.026-.169-1.559-.059-.215-.092-.533.077-.618.4-.199.895-.202 1.296-.442.324-.192 0-.473.166-.785.693-.385 1.457-.589 2.213-.456.469.085.621.69 1.135.79.615.122 1.254.201 1.579.73.396.642.706 1.439.526 2.092-.06.22-.687.181-1.058.302-.908.298-1.74.855-2.39 1.509-.229.227.05-.219-.109.162-.145.344-.522-.072-.862-.108l-2.404-1.617zm-20.739-21.44c.556-.428 1.311-.879 1.867-.511.563.371.859 1.028 1.248 1.653.124.205.122.559.001.764-.245.408-.753.362-1.116.704-.272.26-.749.575-1.033.369-.734-.529-1.659-1.356-1.272-2.371l.305-.608zm3.666-1.221c0-.473.564-.331.762-.683.092-.166.446-.328.633-.192.582.423 1.453.926 1.068 1.646-.13.24-.254.621-.619.784-.038.015.002.237-.02.242-.6.128-1.24.067-1.681-.32-.313-.273-.207-.763-.042-1.17l-.101-.307zm-3.462-4.372c-.059-.464.067-.765.384-1.138.069-.078-.023-.298.046-.361.574-.537 1.735-1.613 2.384-.81.73.91.764 2.056 1.407 3.056.594.921-.853 1.528-1.518 1.776-1.067.399-1.906-.869-2.399-1.812l-.304-.711zm23.452-.196c.313-.337.843-.115 1.115.153.255.252.011.812.312.914a2.278 2.278 0 0 1 1.446 1.532c.799.022.415-1.079.759-1.584.064-.093.24-.133.371-.073.328.153.746.004.961.179.589.484.216 1.513-.183 2.131-.184.283-.51.298-.841.301-.198.003-.38.229-.409.335-.266.913-1.244 1.661-2.128 1.248-.316.416-.368 1.045-.829 1.284-.278.148-.599-.337-.741-.633-.148-.312.034-.798-.211-.997-.444-.363-1.013.027-1.562.12-.121.022-.352.119-.363-.043-.105-1.478 1.345-2.383 1.734-3.743.047-.164.092-.346.1-.526l.469-.598zm16.017 20.651c.355.608.703 1.417.264 1.92-.44.505-1.132.714-1.808 1.019-.217.098-.569.048-.756-.099-.37-.296-.258-.792-.55-1.193-.223-.306-.472-.822-.234-1.076.62-.66 1.559-1.466 2.52-.952l.564.381zm-3.44-10.249c-.357.094-.741-.002-1.048-.079-.184-.046-.387-.365-.539-.627-.081-.14-.306-.103-.374-.222-.212-.363-.005-.82.343-1.042.676-.429 1.606-.416 1.925-1.235.454-.014.953.167 1.223.496.355.433.406 1.024.634 1.549.118.273 0 .654-.247.765-.443.201-.963.224-1.459.293l-.458.102zm23.841 15.311v-1.32c.988.069 1.965-.154 2.954-.09.213.013.43.162.606.147 1.237-.097 2.387-.056 3.549.311.486.153.823.609 1.184 1.016.734.827.856.812 1.583 1.669-.865.259-.534 1.21-1.434 1.37-1.011.183-1.889-.533-2.943-.344-.918.166-1.763.594-2.639.521-.417-.037-.808.174-1.229.068-.335-.089-.454-.411-.918-.428-.105-.004-.264-.163-.275-.276-.065-.671-.501-1.105-.947-1.52l.509-1.124zm-38.485 7.58.229-.896c.656.217 1.357.234 2.015.446.143.046.266.184.388.206.858.147 1.633.372 2.354.819.304.188.454.556.63.892.354.69.442.701.785 1.408-.632.026-.57.729-1.207.683-.719-.05-1.19-.688-1.938-.741-.653-.046-1.3.099-1.883-.101-.276-.096-.577-.02-.842-.164-.212-.118-.238-.357-.549-.449-.071-.021-.151-.157-.138-.238.071-.467-.15-.836-.38-1.195l.536-.67zm34.026 2.032c.851-.407 1.833-.294 2.734-.123.925.181 6.753 3.23 7.656 3.495 1.617.472 3.37.137 4.796 1.082.605.403 2.41 4.506 1.369 4.849-.579.19-2.469-.035-3.107 0-.558.031-2.098.97-2.585 1.034-1.248.167-1.347-3.168-2.619-3.38-.817-.137-1.645-.402-2.171-.955-.434-.46-6.028-3.321-6.306-3.956-.152-.35-.446-.592-.77-.847-.05-.041-.016-.181-.016-.284l1.019-.915zm-21.002-5.13c-.038-.278-.043-.601.133-.781.589-.608 1.531-.325 2.107-.945.728.337 1.744.435 2.033 1.16.225.567-.443 1.242-.298 1.993.198 1.011.206 1.962.196 2.951-.861.105-1.74-.047-2.511-.302-.801-.264-1.811-.481-2.229-1.347-.286-.592.233-1.075.67-1.502l-.101-1.227zm13.466-5.98c-.425-.312-.77-.659-1.16-.971-.436-.351.063-1.413.583-1.382.321.019.712.309 1.078.451.387.148.781-.221 1.205-.117.379.093.372.545.711.759.189.12.467.468.377.55-.581.532-1.362 1.042-1.245 1.93-.429-.015-.635-.408-.979-.569l-.57-.651zm-38.963-28.658c.552-.048 3.585-.942 4.079-1.061 3.575-.863 1.003 2.434 1.55 2.582.219.059-2.254-.151-2.279.106-.109 1.054 2.64 1.493 2.797 2.479.183 1.168-2.675 2.483-3.022 3.591-.099.318-.484.68-.897.851-.092-.416-.541-.52-.718-.839-.186-.342-2.499-7.622-1.51-7.709zm8.604-7.567c-.888.444-1.835.82-2.831.366-.305-.136-.654.334-.817.117-.807-1.067-1.496-1.998-2.313-3.063-.102-.135-.089-.411-.007-.58.371-.75.939-1.343 1.339-2.105.026-.047.201-.161.277-.229.932-.839.433-2.14.747-3.198.263-.882 1.518-.877 2.354-1.215.243-.097.55-.433.669-.335.535.444.831 1.16 1.339 1.64.781.74 1.96-.089 2.858.673-1.004.573-1.922 1.43-2.043 2.564-.118 1.104-.159 2.154-.457 3.243-.045.166-.285.248-.313.45-.031.236-.01.469-.01.704l-.792.968zm-1.719-22.479c-.752.375-1.545.689-2.384.308-.257-.115-.549.283-.687.1-.68-.899-1.259-1.684-1.951-2.579-.086-.114-.076-.345-.006-.486.313-.63.795-1.134 1.13-1.774.022-.04.17-.136.234-.193.785-.707.365-1.801.627-2.689.221-.743 1.278-.74 1.979-1.028.203-.082.465-.363.563-.28.454.375.704.979 1.131 1.383.658.621 1.649-.075 2.403.567-.843.479-1.616 1.2-1.717 2.155-.098.929-.133 1.816-.385 2.731-.036.137-.24.207-.262.377-.027.198-.009.395-.009.593l-.666.815zm10.396 12.443c.253-.255.621-.451.877-.257.768.591.779 1.884.421 2.64-.277.577-1.343.514-1.984.204-.521-.259-.208-.827-.23-1.367l.916-1.22zm1.931-2.746c-.776-.306-.519-1.267-.858-1.907-.168-.314-.626-.5-.445-.93.276-.656 1.099-.827 1.29-1.374.336-.954.637-2.038 1.747-2.296.073.592.418 1.073.906 1.435.157.116-.245.079-.08.171.104.06-.25 3.681-.116 3.681l-2.444 1.22zm-20.23 1.422c-.776-.306-.518-1.271-.858-1.91-.168-.314-.629-.5-.444-.929.276-.657 1.098-.828 1.29-1.372.335-.954.637-2.039 1.742-2.299.076.592.419 1.076.907 1.438.157.116-.243.079-.082.17.105.059-.248 3.677-.113 3.677l-2.442 1.225zm28.331 6.981c-.068-.362.13-.656.401-.901.247-.223.557-.037.827-.225.547-.375.61-1.089 1.013-1.518.276-.291.938-.187.983.288.072.786.124 1.571.084 2.353-.048.932-.97 1.237-1.647 1.729-.659.478-1.389-.279-1.579-.996l-.082-.73zM63.129 127.76c-.069-.362.13-.658.401-.904.247-.222.558-.036.829-.224.545-.375.612-1.089 1.015-1.517.273-.292.935-.188.98.287.073.785.124 1.571.083 2.356-.048.934-.966 1.238-1.645 1.726-.659.478-1.388-.277-1.581-.992l-.082-.732zm57.28-11.427-1.003-1.275c1.008-.68 1.778-1.633 2.779-2.315.219-.15.537-.167.7-.315 1.117-1.026 2.264-1.856 3.657-2.374.584-.219 1.253-.035 1.908.085 1.336.244 1.441.134 2.79.415-.641.905.399 1.569-.347 2.406-.839.941-2.228.911-3.099 1.885-.763.852-1.252 1.903-2.155 2.495-.427.277-.645.778-1.13.988-.393.172-.749-.054-1.21.282-.107.076-.379.044-.476-.058-.568-.601-1.316-.692-2.06-.757l-.354-1.462zm-13.603-46.781.826 1.392c.999-.687 2.164-1.059 3.168-1.745.219-.148.353-.437.548-.534 1.365-.671 2.552-1.434 3.543-2.541.416-.466.49-1.154.617-1.808.257-1.331.397-1.39.627-2.747-1.08.266-1.322-.941-2.373-.552-1.18.438-1.657 1.739-2.882 2.198-1.075.402-2.582-.8-3.461-.176-.417.296-.962.318-1.337.694-.301.3-.222.715-.699 1.022-.11.073.175 1.612.233 1.739.35.746.163 1.477-.045 2.195l1.235.863zm-19.533-15.51c.555.359 1.114.717 1.673 1.076.715-1.305 1.786-2.353 2.507-3.65.158-.283.143-.675.307-.886 1.129-1.485 2.009-2.973 2.485-4.73.198-.739-.1-1.531-.323-2.319-.448-1.593-.325-1.735-.821-3.349-1.035.886-1.965-.31-2.901.698-1.049 1.128-.856 2.816-1.946 3.989-.958 1.028-2.184 1.744-2.802 2.911-.293.554-.879.875-1.082 1.49-.162.496.151.905-.203 1.504-.08.139-.008.467.126.573.793.628.989 1.53 1.156 2.426l1.824.267zm15.708 50.904c.254-.259.621-.454.879-.259.769.592.78 1.888.421 2.638-.277.579-1.343.515-1.981.204-.524-.256-.212-.824-.234-1.365l.915-1.218zm-38.517 27.602c.447-.23.908.196 1.087.571.168.351-.291.837-.025 1.051.648.516 2.575.721 2.686.831.279.281.763.283.915.542.428.713-.342 1.634-.979 2.114-.295.221-1.448.088-1.516.182-.615.839-3.414 1.426-3.974 1.5-.343.045-.489-.573-.522-.927-.035-.373.332-.805.156-1.101-.322-.537-1.049-.348-1.646-.457-.131-.022-.407-.01-.359-.184.448-1.553 2.271-1.936 3.176-3.184.108-.147 1.001-.938 1.001-.938z"/><path style="fill-rule:evenodd;clip-rule:evenodd;fill:#f3c736" d="m132.472 75.459-.871-1.494-15.139 14.152 16.01-12.658zm-1.839 22.428 11.614-5.346-.869-1.491-10.745 6.837zm27.454 47.808 16.218 2.477-1.895-3.151-14.323.674zm-30.589 12.16 11.15 3.135h12.185l-23.335-3.135zM109.237 34.818 98.527 58.49l12.217-20.572-1.507-3.1z"/></svg>