<?xml version="1.0" encoding="UTF-8" standalone="no"?>
<!-- Created with Inkscape (http://www.inkscape.org/) -->

<svg
   xmlns:dc="http://purl.org/dc/elements/1.1/"
   xmlns:cc="http://creativecommons.org/ns#"
   xmlns:rdf="http://www.w3.org/1999/02/22-rdf-syntax-ns#"
   xmlns:svg="http://www.w3.org/2000/svg"
   xmlns="http://www.w3.org/2000/svg"
   xmlns:sodipodi="http://sodipodi.sourceforge.net/DTD/sodipodi-0.dtd"
   xmlns:inkscape="http://www.inkscape.org/namespaces/inkscape"
   version="1.1"
   width="849.72498"
   height="725"
   id="svg3069"
   inkscape:version="0.91 r13725"
   sodipodi:docname="CustomW003_ISO7010W016.svg"
   inkscape:export-filename="/Volumes/CommunSHE$/DSPS_SCC/SCC/Media Library/Pictograms/Mixed/Toxic Gas 3/Raster/CustomW003_ISO7010W016_large.png"
   inkscape:export-xdpi="105.91663"
   inkscape:export-ydpi="105.91663">
  <sodipodi:namedview
     pagecolor="#ffffff"
     bordercolor="#666666"
     borderopacity="1"
     objecttolerance="10"
     gridtolerance="10"
     guidetolerance="10"
     inkscape:pageopacity="0"
     inkscape:pageshadow="2"
     inkscape:window-width="2560"
     inkscape:window-height="1315"
     id="namedview15"
     showgrid="false"
     inkscape:zoom="1.2714453"
     inkscape:cx="344.72975"
     inkscape:cy="549.00884"
     inkscape:window-x="0"
     inkscape:window-y="1"
     inkscape:window-maximized="1"
     inkscape:current-layer="flowRoot4330"
     showguides="false"
     fit-margin-top="0"
     fit-margin-left="0"
     fit-margin-right="0"
     fit-margin-bottom="0" />
  <metadata
     id="metadata3085">
    <rdf:RDF>
      <cc:Work
         rdf:about="">
        <dc:format>image/svg+xml</dc:format>
        <dc:type
           rdf:resource="http://purl.org/dc/dcmitype/StillImage" />
        <dc:title></dc:title>
      </cc:Work>
    </rdf:RDF>
  </metadata>
  <defs
     id="defs3073" />
  <path
     d="M 597.575,499.6 313.775,8 c -2.9,-5 -8.2,-8 -13.9,-8 -5.7,0 -11,3.1 -13.9,8 L 2.175,499.6 c -2.9,5 -2.9,11.1 0,16 2.9,5 8.2,8 13.9,8 l 567.6,0 c 5.7,0 11,-3.1 13.9,-8 2.9,-5 2.9,-11.1 0,-16 z"
     id="sign_border"
     inkscape:connector-curvature="0" />
  <polygon
     points="43.875,491.5 299.875,48.2 555.875,491.5 "
     transform="matrix(1,0,0,0.99591458,0.1,2.0332437)"
     id="polygon7"
     style="overflow:visible;fill:#f6bd16;fill-opacity:1;stroke:none" />
  <rect
     style="fill:none;stroke:#000000;stroke-width:8;stroke-miterlimit:4;stroke-dasharray:none;stroke-opacity:1"
     id="rect4322"
     width="111.25146"
     height="111.25146"
     x="244.34927"
     y="336.8479" />
  <path
     style="fill:#000000;fill-opacity:1;fill-rule:evenodd;stroke:none;stroke-width:7.64599991;stroke-linecap:butt;stroke-linejoin:miter;stroke-miterlimit:4;stroke-dasharray:none;stroke-opacity:1"
     d="m 160.25148,384.96569 120.82231,0 0,-7.22988 14.73781,14.87686 -14.73781,14.59878 0,-6.9518 -121.10038,0 z"
     id="path4328"
     inkscape:connector-curvature="0"
     sodipodi:nodetypes="cccccccc" />
  <g
     transform="translate(13.854883,-8.6202326)"
     style="font-style:normal;font-weight:normal;font-size:40px;line-height:125%;font-family:sans-serif;letter-spacing:0px;word-spacing:0px;fill:#000000;fill-opacity:1;stroke:none;stroke-width:1px;stroke-linecap:butt;stroke-linejoin:miter;stroke-opacity:1"
     id="flowRoot4330">
    <path
       d="m 249.13232,299.59492 q -4.15039,1.61865 -10.99853,3.2373 -6.84815,1.57715 -13.65479,1.57715 -15.77148,0 -24.69482,-8.5498 -8.92334,-8.59131 -8.92334,-23.69873 0,-14.40186 9.00635,-23.20069 9.00635,-8.84033 25.10986,-8.84033 6.10107,0 11.62109,1.12061 5.52002,1.0791 12.28516,4.35791 l 0,14.48486 -1.78467,0 q -1.16211,-0.87158 -3.40332,-2.44873 -2.24121,-1.61865 -4.3164,-2.73926 -2.40723,-1.32812 -5.64454,-2.28271 -3.1958,-0.95459 -6.80664,-0.95459 -4.23339,0 -7.67822,1.24511 -3.44482,1.24512 -6.18408,3.81836 -2.61475,2.49024 -4.15039,6.3501 -1.49414,3.81836 -1.49414,8.84033 0,10.25147 5.43701,15.68848 5.43701,5.43701 16.06201,5.43701 0.91309,0 1.99219,-0.0415 1.1206,-0.0415 2.03369,-0.12451 l 0,-12.11915 -12.32666,0 0,-11.66259 28.51318,0 0,30.50537 z"
       style="font-style:normal;font-variant:normal;font-weight:bold;font-stretch:normal;font-size:85px;font-family:Verdana;-inkscape-font-specification:'Verdana Bold'"
       id="path4377"
       inkscape:connector-curvature="0" />
    <path
       d="m 320.64355,303.12275 -16.47705,0 -4.2749,-12.49268 -22.91015,0 -4.27491,12.49268 -16.06201,0 22.82715,-61.79932 18.34473,0 22.82714,61.79932 z m -24.61181,-23.82324 -7.59522,-22.16309 -7.59521,22.16309 15.19043,0 z"
       style="font-style:normal;font-variant:normal;font-weight:bold;font-stretch:normal;font-size:85px;font-family:Verdana;-inkscape-font-specification:'Verdana Bold'"
       id="path4379"
       inkscape:connector-curvature="0" />
    <path
       d="m 377.37939,303.12275 -51.92138,0 0,-11.57959 30.7959,-38.2666 -29.30176,0 0,-11.95313 48.76709,0 0,11.78711 -30.7544,38.05909 32.41455,0 0,11.95312 z"
       style="font-style:normal;font-variant:normal;font-weight:bold;font-stretch:normal;font-size:85px;font-family:Verdana;-inkscape-font-specification:'Verdana Bold'"
       id="path4381"
       inkscape:connector-curvature="0" />
    <g
       id="g5223"
       transform="translate(236.09512,210.02023)">
      <path
         id="path5199"
         d="M 597.6,499.6 313.8,8 C 310.9,3 305.6,0 299.9,0 294.2,0 288.9,3.1 286,8 L 2.2,499.6 c -2.9,5 -2.9,11.1 0,16 2.9,5 8.2,8 13.9,8 l 567.6,0 c 5.7,0 11,-3.1 13.9,-8 2.9,-5 2.9,-11.1 0,-16 z"
         inkscape:connector-curvature="0" />
      <polygon
         id="polygon5201"
         transform="matrix(1,0,0,0.99591458,0.125,2.0332437)"
         points="555.88,491.5 43.875,491.5 299.88,48.2 "
         style="fill:#f6bd16" />
      <g
         id="g5203"
         transform="translate(592.42006,0)">
        <path
           id="path5205"
           stroke-miterlimit="4"
           d="m -244.08,408.62 c 0,0 41.617,17.949 42.478,18.461 8.2776,4.9219 17.33,-0.25142 20.776,2.9619 3.4459,3.2133 -3.8958,8.193 -4.8323,13.466 -1.4028,7.898 1.4587,14.01 -4.2396,14.005 -4.9161,-0.004 -6.5237,-5.6791 -19.396,-12.509 -15.513,-8.2312 -44.3,-21.768 -44.3,-21.768 z m 8.0545,-38.544 c 0,0 33.064,-13.887 49.427,-21.454 4.0619,-1.8786 11.035,-10.634 15.914,-7.5639 3.6125,2.273 3.0652,6.8717 3.3752,12.647 0.31,5.7754 4.0074,8.0368 3.8396,12.524 -0.30417,8.0202 -7.0656,-1.6903 -17.116,0.75205 -18.258,4.4372 -58.641,22.497 -58.641,22.497 z m -102.86,38.307 c 0,0 -42.561,19.611 -43.437,20.098 -8.4153,4.6827 -16.98,-2.9005 -20.517,0.21274 -3.5366,3.1133 1.8619,10.56 4.2012,15.377 2.4388,5.0227 -1.0202,10.447 3.939,12.305 4.6035,1.725 5.5566,-5.1252 18.62,-11.584 15.742,-7.7833 43.139,-20.896 43.139,-20.896 z m -11.387,-40.01 c 0,0 -33.821,-11.39 -49.835,-19.669 -3.9754,-2.0552 -9.5904,-9.4238 -14.6,-6.5711 -3.7088,2.1121 -1.8662,5.0179 -2.4296,10.774 -0.56347,5.7562 -4.2158,10.328 -4.2453,14.818 -0.0485,8.0258 9.4795,-2.787 19.412,0.0946 18.046,5.2351 55.944,21.177 55.944,21.177 z"
           inkscape:connector-curvature="0"
           style="fill:none;stroke:#000000;stroke-width:8;stroke-linecap:butt;stroke-linejoin:miter;stroke-miterlimit:4;stroke-dasharray:none" />
        <path
           id="path5207"
           d="m -306.85,350.59 c -3.3808,16.765 3.8346,22.437 14.959,14 15.788,10.394 14.943,-2.5625 14.365,-13.497 -0.32826,-27.371 -25.936,-30.324 -29.324,-0.50251 z"
           inkscape:connector-curvature="0"
           style="fill:#000000;fill-rule:evenodd" />
        <path
           id="path5209"
           d="m -342.11,317.44 c 0.82293,-9.576 8.3145,-15.128 19.861,-14.305 10.424,0.73661 21.078,4.2099 18.543,13.481 -2.6184,9.576 -10.506,22.638 -20.955,22.813 -10.449,0.17456 -18.271,-12.413 -17.448,-21.989 z"
           inkscape:connector-curvature="0"
           style="fill:#000000" />
        <path
           id="path5211"
           d="m -242.9,316.68 c -0.82293,-9.576 -11.455,-14.499 -23.001,-13.677 -10.424,0.73661 -18.188,5.4662 -15.653,14.737 2.6184,9.576 11.26,22.01 21.709,22.185 10.449,0.17456 17.769,-13.669 16.946,-23.245 z"
           inkscape:connector-curvature="0"
           style="fill:#000000" />
        <path
           id="path5213"
           stroke-miterlimit="4"
           d="m -229.3,319.27 c 3.0352,-7.9336 11.04,-15.912 12.688,-31.734 1.6476,-15.822 -7.9781,-42.569 -23.934,-56.034 -11.03,-9.3079 -30.828,-18.633 -52.551,-18.678 m -63.598,106.45 c -3.0351,-7.9336 -11.04,-15.912 -12.688,-31.734 -1.6476,-15.822 7.9781,-42.569 23.934,-56.034 11.03,-9.3079 30.828,-18.633 52.551,-18.678"
           inkscape:connector-curvature="0"
           style="fill:none;stroke:#000000;stroke-width:8;stroke-linecap:butt;stroke-linejoin:miter;stroke-miterlimit:4;stroke-dasharray:none" />
        <path
           id="path5215"
           stroke-miterlimit="4"
           d="m -253.7,378.32 c -0.10622,3.3469 2.457,-14.704 8.7875,-18.205 9.9387,-5.4963 17.303,-15.498 14.753,-11.942 m -62.889,89.538 c 9.2623,0.16744 23.454,-0.89659 33.892,-14.868 5.9999,-8.0304 17.675,-26.201 17.575,-46.294 -0.0921,-18.396 4.6493,-14.725 8.9294,-22.533 7.9267,-14.46 7.1835,-18.132 1.9766,-42.245 -2.5682,-11.893 -1.5282,-9.4218 0.62157,-22.497 2.4114,-14.667 2.1841,-20.69 -2.7738,-28.676 m -95.792,117.01 c 0.10622,3.3469 -6.0103,-14.349 -12.341,-17.85 -9.9387,-5.4963 -18.369,-16.209 -15.819,-12.653 m 64.311,90.604 c -9.048,-1.3327 -22.853,-5.5964 -33.892,-14.868 -8.5785,-7.2047 -15.898,-32.24 -17.575,-46.294 -2.1798,-18.267 -4.5019,-14.097 -8.9294,-21.822 -5.939,-10.363 -7.7169,-24.501 -0.86749,-41.43 4.5636,-11.279 -0.0623,-12.079 -1.2282,-25.279 -1.4064,-15.923 -0.92784,-20.941 2.7738,-28.173"
           inkscape:connector-curvature="0"
           style="fill:none;stroke:#000000;stroke-width:8.28670883;stroke-linecap:round;stroke-linejoin:bevel;stroke-miterlimit:4;stroke-dasharray:none" />
        <path
           id="path5217"
           d="m -333.43,373.18 c 28.833,14.283 54.296,11.669 81.982,-0.94405 14.954,46.208 -88.23,55.936 -81.982,0.94405 z"
           style="color:#000000;fill:#000000;enable-background:accumulate"
           inkscape:connector-curvature="0" />
      </g>
    </g>
  </g>
</svg>
