<?xml version="1.0" encoding="UTF-8" standalone="no"?>
<!-- Created with Inkscape (http://www.inkscape.org/) -->

<svg
   xmlns:dc="http://purl.org/dc/elements/1.1/"
   xmlns:cc="http://creativecommons.org/ns#"
   xmlns:rdf="http://www.w3.org/1999/02/22-rdf-syntax-ns#"
   xmlns:svg="http://www.w3.org/2000/svg"
   xmlns="http://www.w3.org/2000/svg"
   xmlns:sodipodi="http://sodipodi.sourceforge.net/DTD/sodipodi-0.dtd"
   xmlns:inkscape="http://www.inkscape.org/namespaces/inkscape"
   version="1.1"
   width="849.72498"
   height="725"
   id="svg3069"
   inkscape:version="0.91 r13725"
   sodipodi:docname="CustomW003_ISO7010W028.svg"
   inkscape:export-filename="/Volumes/CommunSHE$/DSPS_SCC/SCC/Media Library/Pictograms/Mixed/Toxic Gas 9/Raster/CustomW003_ISO7010W028_large.png"
   inkscape:export-xdpi="105.91663"
   inkscape:export-ydpi="105.91663">
  <sodipodi:namedview
     pagecolor="#ffffff"
     bordercolor="#666666"
     borderopacity="1"
     objecttolerance="10"
     gridtolerance="10"
     guidetolerance="10"
     inkscape:pageopacity="0"
     inkscape:pageshadow="2"
     inkscape:window-width="1894"
     inkscape:window-height="1162"
     id="namedview15"
     showgrid="false"
     inkscape:zoom="1.2714453"
     inkscape:cx="344.72975"
     inkscape:cy="91.998345"
     inkscape:window-x="374"
     inkscape:window-y="83"
     inkscape:window-maximized="0"
     inkscape:current-layer="flowRoot4330"
     showguides="false"
     fit-margin-top="0"
     fit-margin-left="0"
     fit-margin-right="0"
     fit-margin-bottom="0" />
  <metadata
     id="metadata3085">
    <rdf:RDF>
      <cc:Work
         rdf:about="">
        <dc:format>image/svg+xml</dc:format>
        <dc:type
           rdf:resource="http://purl.org/dc/dcmitype/StillImage" />
        <dc:title></dc:title>
      </cc:Work>
    </rdf:RDF>
  </metadata>
  <defs
     id="defs3073">
    <path
       d="M 2.8117,-1.046 A 3 3 0 0 1 .5,2.958 V 4.5119 A 10.5 10.5 0 0 1 2,25.3078 V 25.8661 A 15 15 0 0 0 14.7975,8.5433 15 15 0 0 0 23.4007,-11.201 L 22.9172,-10.9218 A 10.5 10.5 0 0 1 4.1574,-1.8229 z M 6.2265,7.825 A 10 10 0 0 1 -6.2265,7.825 9.5 9.5 0 0 0 -8.4021,10.5667 13.5 13.5 0 0 0 8.4021,10.5667 10 10 0 0 0 6.2265,7.825 z"
       id="p"
       transform="scale(10,-10) translate(26,-26)" />
  </defs>
  <path
     d="M 597.575,499.6 313.775,8 c -2.9,-5 -8.2,-8 -13.9,-8 -5.7,0 -11,3.1 -13.9,8 L 2.175,499.6 c -2.9,5 -2.9,11.1 0,16 2.9,5 8.2,8 13.9,8 l 567.6,0 c 5.7,0 11,-3.1 13.9,-8 2.9,-5 2.9,-11.1 0,-16 z"
     id="sign_border"
     inkscape:connector-curvature="0" />
  <polygon
     points="43.875,491.5 299.875,48.2 555.875,491.5 "
     transform="matrix(1,0,0,0.99591458,0.1,2.0332437)"
     id="polygon7"
     style="overflow:visible;fill:#f6bd16;fill-opacity:1;stroke:none" />
  <rect
     style="fill:none;stroke:#000000;stroke-width:8;stroke-miterlimit:4;stroke-dasharray:none;stroke-opacity:1"
     id="rect4322"
     width="111.25146"
     height="111.25146"
     x="244.34927"
     y="336.8479" />
  <path
     style="fill:#000000;fill-opacity:1;fill-rule:evenodd;stroke:none;stroke-width:7.64599991;stroke-linecap:butt;stroke-linejoin:miter;stroke-miterlimit:4;stroke-dasharray:none;stroke-opacity:1"
     d="m 160.25148,384.96569 120.82231,0 0,-7.22988 14.73781,14.87686 -14.73781,14.59878 0,-6.9518 -121.10038,0 z"
     id="path4328"
     inkscape:connector-curvature="0"
     sodipodi:nodetypes="cccccccc" />
  <g
     transform="translate(13.854883,-8.6202326)"
     style="font-style:normal;font-weight:normal;font-size:40px;line-height:125%;font-family:sans-serif;letter-spacing:0px;word-spacing:0px;fill:#000000;fill-opacity:1;stroke:none;stroke-width:1px;stroke-linecap:butt;stroke-linejoin:miter;stroke-opacity:1"
     id="flowRoot4330">
    <path
       d="m 249.13232,299.59492 q -4.15039,1.61865 -10.99853,3.2373 -6.84815,1.57715 -13.65479,1.57715 -15.77148,0 -24.69482,-8.5498 -8.92334,-8.59131 -8.92334,-23.69873 0,-14.40186 9.00635,-23.20069 9.00635,-8.84033 25.10986,-8.84033 6.10107,0 11.62109,1.12061 5.52002,1.0791 12.28516,4.35791 l 0,14.48486 -1.78467,0 q -1.16211,-0.87158 -3.40332,-2.44873 -2.24121,-1.61865 -4.3164,-2.73926 -2.40723,-1.32812 -5.64454,-2.28271 -3.1958,-0.95459 -6.80664,-0.95459 -4.23339,0 -7.67822,1.24511 -3.44482,1.24512 -6.18408,3.81836 -2.61475,2.49024 -4.15039,6.3501 -1.49414,3.81836 -1.49414,8.84033 0,10.25147 5.43701,15.68848 5.43701,5.43701 16.06201,5.43701 0.91309,0 1.99219,-0.0415 1.1206,-0.0415 2.03369,-0.12451 l 0,-12.11915 -12.32666,0 0,-11.66259 28.51318,0 0,30.50537 z"
       style="font-style:normal;font-variant:normal;font-weight:bold;font-stretch:normal;font-size:85px;font-family:Verdana;-inkscape-font-specification:'Verdana Bold'"
       id="path4377"
       inkscape:connector-curvature="0" />
    <path
       d="m 320.64355,303.12275 -16.47705,0 -4.2749,-12.49268 -22.91015,0 -4.27491,12.49268 -16.06201,0 22.82715,-61.79932 18.34473,0 22.82714,61.79932 z m -24.61181,-23.82324 -7.59522,-22.16309 -7.59521,22.16309 15.19043,0 z"
       style="font-style:normal;font-variant:normal;font-weight:bold;font-stretch:normal;font-size:85px;font-family:Verdana;-inkscape-font-specification:'Verdana Bold'"
       id="path4379"
       inkscape:connector-curvature="0" />
    <path
       d="m 377.37939,303.12275 -51.92138,0 0,-11.57959 30.7959,-38.2666 -29.30176,0 0,-11.95313 48.76709,0 0,11.78711 -30.7544,38.05909 32.41455,0 0,11.95312 z"
       style="font-style:normal;font-variant:normal;font-weight:bold;font-stretch:normal;font-size:85px;font-family:Verdana;-inkscape-font-specification:'Verdana Bold'"
       id="path4381"
       inkscape:connector-curvature="0" />
    <g
       id="g8616"
       transform="translate(236.12012,210.02023)">
      <path
         d="M 597.6,499.6 313.8,8 C 310.9,3 305.6,0 299.9,0 294.2,0 288.9,3.1 286,8 L 2.2,499.6 c -2.9,5 -2.9,11.1 0,16 2.9,5 8.2,8 13.9,8 l 567.6,0 c 5.7,0 11,-3.1 13.9,-8 2.9,-5 2.9,-11.1 0,-16 z"
         id="sign_border-8"
         inkscape:connector-curvature="0" />
      <polygon
         points="43.875,491.5 299.875,48.2 555.875,491.5 "
         id="polygon7-8"
         style="overflow:visible;fill:#f6bd16;fill-opacity:1;stroke:none"
         transform="matrix(1,0,0,0.99591458,0.125,2.0332437)" />
      <g
         transform="translate(640.50874,0)"
         id="g4465">
        <path
           inkscape:connector-curvature="0"
           style="fill:#000000"
           d="m -347.53125,346.40625 c -11.46146,0.0809 -22.76075,2.87291 -30.5625,8.21875 -27.45353,18.81147 -33.96982,59.01256 -13.375,82.46875 l 8.8125,10.03125 -17.625,0 c -16.8572,0 -17.59375,0.28289 -17.59375,7.1875 l 0,7.21875 70.65625,0 70.6875,0 0,-7.21875 c 0,-6.82618 -0.87468,-7.1875 -16.03125,-7.1875 l -16,0 7.09375,-9.375 c 22.29527,-29.47055 12.17429,-72.00515 -20.59375,-86.5 -7.5458,-3.33786 -16.55428,-4.90665 -25.46875,-4.84375 z m 2.8125,14.15625 c 14.02074,-0.0994 27.82015,6.31915 35.34375,20.8125 10.28163,19.80643 3.69928,46.31256 -14.1875,57.21875 -27.54681,16.79627 -65.46875,-4.1691 -65.46875,-36.1875 0,-25.71082 22.44014,-41.68864 44.3125,-41.84375 z"
           id="path4458" />
        <path
           inkscape:connector-curvature="0"
           style="fill:#000000"
           d="m -294.82992,367.62701 c -7.2157,-11.38584 -7.8191,-14.01078 -5.04808,-21.95977 4.06471,-11.66002 4.04766,-11.73675 -1.90085,-8.553 -4.51947,2.41889 -4.93964,1.34083 -4.01255,-10.29534 l 1.03554,-12.99718 -10.23793,11.11797 -10.23793,11.118 2.85865,-12.84764 c 3.37737,-15.17876 -0.55289,-35.29412 -9.04381,-46.28698 l -5.57023,-7.21153 -0.064,23.36763 c -0.0621,22.59254 -4.00728,41.53621 -8.6503,41.53621 -1.23886,0 -3.89544,-3.96646 -5.9035,-8.81431 -4.30888,-10.40259 -7.81312,-8.11988 -9.10286,5.9297 -1.39274,15.1716 -8.63243,12.98362 -14.31715,-4.32693 l -4.73648,-14.42307 -2.12258,12.25961 c -1.16742,6.74279 -3.41701,12.25962 -4.99909,12.25962 -1.59252,0 -2.18129,3.54092 -1.319,7.93269 1.2027,6.1256 -0.61611,10.5088 -7.98409,19.24114 l -9.54159,11.30844 -6.5929,-12.75075 c -5.27844,-10.20857 -6.92166,-19.22141 -8.24188,-45.20556 -1.22483,-24.10688 -0.7653,-32.45405 1.78655,-32.45192 1.88954,0.002 4.23778,1.30096 5.21832,2.8875 0.98053,1.58653 2.77988,2.88461 3.99855,2.88461 2.58792,0 8.98222,-32.57955 8.98222,-45.76528 0,-4.97333 0.91176,-9.04241 2.02613,-9.04241 1.11437,0 6.30668,4.14887 11.53846,9.21971 l 9.51233,9.21971 0,-30.85432 c 0,-17.03914 1.19799,-30.85433 2.67554,-30.85433 1.47155,0 6.00043,4.21875 10.06417,9.375 8.04856,10.21236 8.1013,10.12186 8.82615,-15.14423 0.25033,-8.72596 2.2409,-19.11058 4.42346,-23.07693 l 3.9683,-7.21153 2.77506,9.47577 c 1.52631,5.21168 7.9468,15.35114 14.26774,22.53214 6.32097,7.18099 12.4777,17.19574 13.68162,22.25499 2.13245,8.96116 2.19658,8.99384 2.48423,1.26594 0.36026,-9.67838 3.1275,-9.9885 11.31946,-1.26855 5.93795,6.32065 12.1365,21.8144 16.37443,40.92916 l 1.91801,8.65099 3.72072,-6.95221 3.7207,-6.95221 4.80931,7.33993 c 5.63885,8.60597 6.87248,25.19286 3.81398,51.28174 -1.95533,16.67905 -1.73601,18.15969 1.98549,13.40541 3.91292,-4.99883 4.30696,-4.68683 6.09095,4.82259 2.14843,11.4521 -0.23077,25.45739 -6.36245,37.45425 -4.53407,8.87097 -14.12023,19.37833 -17.52802,19.21243 -1.18991,-0.058 -5.85136,-5.92454 -10.35877,-13.0369 z"
           id="path4452" />
      </g>
    </g>
  </g>
</svg>
