<?xml version="1.0" encoding="UTF-8" standalone="no"?>
<!-- Created with Inkscape (http://www.inkscape.org/) -->

<svg
   xmlns:dc="http://purl.org/dc/elements/1.1/"
   xmlns:cc="http://creativecommons.org/ns#"
   xmlns:rdf="http://www.w3.org/1999/02/22-rdf-syntax-ns#"
   xmlns:svg="http://www.w3.org/2000/svg"
   xmlns="http://www.w3.org/2000/svg"
   xmlns:sodipodi="http://sodipodi.sourceforge.net/DTD/sodipodi-0.dtd"
   xmlns:inkscape="http://www.inkscape.org/namespaces/inkscape"
   version="1.1"
   width="849.72504"
   height="725"
   id="svg3069"
   inkscape:version="0.91 r13725"
   sodipodi:docname="Mixed_M007.svg"
   inkscape:export-filename="/Volumes/CommunSHE$/DSPS_SCC/SCC/Media Library/Pictograms/Custom/W002/Raster/Custom_W001_small.png"
   inkscape:export-xdpi="30.012505"
   inkscape:export-ydpi="30.012505">
  <sodipodi:namedview
     pagecolor="#ffffff"
     bordercolor="#666666"
     borderopacity="1"
     objecttolerance="10"
     gridtolerance="10"
     guidetolerance="10"
     inkscape:pageopacity="0"
     inkscape:pageshadow="2"
     inkscape:window-width="1894"
     inkscape:window-height="1162"
     id="namedview15"
     showgrid="false"
     inkscape:zoom="1.5276074"
     inkscape:cx="256.9193"
     inkscape:cy="436.54109"
     inkscape:window-x="284"
     inkscape:window-y="182"
     inkscape:window-maximized="0"
     inkscape:current-layer="g4438"
     fit-margin-top="0"
     fit-margin-left="0"
     fit-margin-right="0"
     fit-margin-bottom="0" />
  <metadata
     id="metadata3085">
    <rdf:RDF>
      <cc:Work
         rdf:about="">
        <dc:format>image/svg+xml</dc:format>
        <dc:type
           rdf:resource="http://purl.org/dc/dcmitype/StillImage" />
        <dc:title></dc:title>
      </cc:Work>
    </rdf:RDF>
  </metadata>
  <defs
     id="defs3073" />
  <path
     d="M 597.575,499.6 313.775,8 c -2.9,-5 -8.2,-8 -13.9,-8 -5.7,0 -11,3.1 -13.9,8 L 2.175,499.6 c -2.9,5 -2.9,11.1 0,16 2.9,5 8.2,8 13.9,8 l 567.6,0 c 5.7,0 11,-3.1 13.9,-8 2.9,-5 2.9,-11.1 0,-16 z"
     id="sign_border"
     inkscape:connector-curvature="0" />
  <polygon
     points="43.875,491.5 299.875,48.2 555.875,491.5 "
     transform="matrix(1,0,0,0.99591458,0.1,2.0332437)"
     id="polygon7"
     style="overflow:visible;fill:#f6bd16;fill-opacity:1;stroke:none" />
  <g
     id="g4438"
     transform="matrix(0.78504116,0,0,0.78504116,65.08634,79.93465)">
    <path
       sodipodi:nodetypes="cccsssc"
       inkscape:connector-curvature="0"
       id="path3588"
       d="m 242.47883,452.70127 113.45339,0 0,-186.30827 c -0.55614,-8.2504 -19.18682,-34.03707 -28.91949,-34.03707 l -55.61441,0 c -10.01144,0 -28.91949,24.6072 -28.91949,34.03707 z"
       style="fill:none;fill-rule:evenodd;stroke:#000000;stroke-width:9.55363941;stroke-linecap:butt;stroke-linejoin:miter;stroke-miterlimit:4;stroke-dasharray:none;stroke-opacity:1" />
    <path
       sodipodi:nodetypes="ccsccc"
       inkscape:connector-curvature="0"
       id="path4392"
       d="m 270.84218,232.46821 -0.55615,-38.09586 c 0,0 9.73253,-19.41155 28.64142,-19.41155 18.9089,0 28.64142,19.41155 28.64142,19.41155 l 0,38.09586 z"
       style="fill:none;fill-rule:evenodd;stroke:#000000;stroke-width:9.55363941;stroke-linecap:butt;stroke-linejoin:miter;stroke-miterlimit:4;stroke-dasharray:none;stroke-opacity:1" />
    <path
       inkscape:connector-curvature="0"
       id="path4394"
       d="m 262.27544,292.53177 0,97.32522"
       style="fill:none;fill-rule:evenodd;stroke:#000000;stroke-width:6.36909294;stroke-linecap:round;stroke-linejoin:miter;stroke-miterlimit:4;stroke-dasharray:none;stroke-opacity:1" />
    <path
       inkscape:connector-curvature="0"
       id="path4396"
       d="m 273.39832,279.18432 0,110.67267"
       style="fill:none;fill-rule:evenodd;stroke:#000000;stroke-width:6.36909294;stroke-linecap:round;stroke-linejoin:miter;stroke-miterlimit:4;stroke-dasharray:none;stroke-opacity:1" />
    <g
       id="g4283"
       transform="matrix(1.2738186,0,0,1.2738186,235.48276,154.7248)">
      <path
         id="sign_border-4"
         d="M 597.6,499.6 313.8,8 C 310.9,3 305.6,0 299.9,0 294.2,0 288.9,3.1 286,8 L 2.2,499.6 c -2.9,5 -2.9,11.1 0,16 2.9,5 8.2,8 13.9,8 l 567.6,0 c 5.7,0 11,-3.1 13.9,-8 2.9,-5 2.9,-11.1 0,-16 z"
         inkscape:connector-curvature="0" />
      <polygon
         style="overflow:visible;fill:#f6bd16;fill-opacity:1;stroke:none"
         id="polygon7-2"
         transform="matrix(1,0,0,0.99591458,0.125,2.0332437)"
         points="43.875,491.5 299.875,48.2 555.875,491.5 " />
      <path
         style="fill:#000000"
         id="path3526"
         d="m 254.20599,412.70348 c -23.76019,-10.34209 -33.09455,-30.39188 -35.71706,-76.71863 -1.06141,-18.75 -1.13418,-34.09091 -0.16169,-34.09091 0.97249,0 4.29519,1.35243 7.38379,3.00539 4.98824,2.66964 5.99798,1.23079 9.03804,-12.87878 1.88233,-8.7363 4.23436,-21.75719 5.22673,-28.9353 l 1.80431,-13.05112 9.88246,9.57846 9.88247,9.57846 2.12479,-22.67469 c 1.16864,-12.47108 1.16355,-27.05119 -0.0112,-32.40024 -2.00776,-9.14129 -1.75819,-9.52331 4.15445,-6.35896 3.45979,1.85162 7.7334,6.06261 9.4969,9.35775 5.94987,11.11759 9.05366,6.09812 9.05366,-14.64178 0,-13.03057 1.58382,-22.79895 4.2985,-26.51149 4.12866,-5.64628 4.38304,-5.54174 6.43797,2.64577 1.17671,4.68838 8.03213,15.42775 15.23426,23.86526 7.20212,8.43751 13.64618,18.9181 14.32012,23.29019 l 1.22533,7.94926 0.45403,-8.33333 c 0.57982,-10.64199 4.12382,-10.5344 13.32837,0.4046 6.66394,7.91962 10.13451,17.48588 16.069,44.29237 1.93451,8.73845 2.1136,8.82656 4.61879,2.27273 3.3383,-8.7334 6.86421,-8.63774 11.65621,0.31623 4.67369,8.73288 5.39436,24.48257 2.30806,50.44134 -2.07621,17.46282 -1.84452,19.07567 2.04276,14.21936 4.04869,-5.05797 4.53933,-4.56179 6.4043,6.47691 2.55164,15.10294 -2.7687,35.42364 -12.71633,48.56921 -9.97903,13.18712 -34.5024,24.60594 -52.92676,24.6443 -17.95679,0.0373 -20.42284,-3.76866 -7.41467,-11.44366 11.92246,-7.03443 24.03985,-22.06988 30.77215,-38.18258 4.52855,-10.83827 4.49197,-11.358 -0.68324,-9.71542 -4.83224,1.53367 -5.35055,0.0658 -4.4593,-12.62848 l 1.00842,-14.36388 -7.91642,11.36363 c -10.00264,14.35834 -14.15034,14.55197 -10.26464,0.47915 3.75124,-13.58587 0.74797,-33.0383 -7.09173,-45.93369 -3.29306,-5.41667 -6.46488,-9.84849 -7.04853,-9.84849 -0.58364,0 -1.01554,11.25 -0.95978,25 0.0994,24.51621 -3.69021,41.66667 -9.20685,41.66667 -1.52966,0 -4.90224,-5.11364 -7.49462,-11.36364 l -4.71341,-11.36363 -0.46317,10.60606 c -0.25472,5.83333 -0.22051,15.03788 0.076,20.45454 0.29655,5.41667 -0.85159,9.84849 -2.55145,9.84849 -5.08631,0 -12.55008,-12.86679 -14.502,-25 -2.00506,-12.46355 -6.84316,-15.36643 -7.57568,-4.54546 -0.9802,14.47946 -1.44911,15.88549 -5.04602,15.13052 -8.24799,-1.73121 3.85695,30.08491 17.24971,45.33839 5.20849,5.93215 9.46999,11.62842 9.46999,12.65842 0,3.31249 -16.373,1.76328 -26.09704,-2.4693 z M 185,455 l 0,-25 230,0 0,25 z"
         inkscape:connector-curvature="0" />
    </g>
  </g>
  <rect
     style="fill:none;stroke:#000000;stroke-width:10;stroke-linecap:round;stroke-miterlimit:4;stroke-dasharray:none;stroke-opacity:1"
     id="rect4436"
     width="124.93103"
     height="252.49072"
     x="237.50949"
     y="200.87643" />
</svg>
