<svg xmlns="http://www.w3.org/2000/svg" viewBox="0 0 198.56 173.648" style="enable-background:new 0 0 198.56 173.648" xml:space="preserve"><path style="fill-rule:evenodd;clip-rule:evenodd;stroke:#000;stroke-width:.1276;stroke-miterlimit:2.6131" d="m197.704 164.944-93.456-162-.576-.864-.72-.648-.792-.576-.936-.432-.936-.288L99.28.064l-1.008.072-1.008.288-.864.432-.864.576-.648.648-.576.864-93.456 162-.432.936-.288.936-.072 1.008.072 1.008.288 1.008.432.864.576.864.648.648.864.576.864.432 1.008.288 1.008.072h186.912l1.008-.072.936-.288.936-.432.792-.576.72-.648.576-.864.432-.864.288-1.008.072-1.008-.072-1.008-.288-.936-.432-.936z"/><path style="fill-rule:evenodd;clip-rule:evenodd;fill:#f3c736;stroke:#000;stroke-width:.1276;stroke-miterlimit:2.6131" d="m99.28 18.136 82.8 143.568H16.48l82.8-143.568z"/><path style="fill-rule:evenodd;clip-rule:evenodd;stroke:#000;stroke-width:.216;stroke-miterlimit:2.6131" d="m95.62 100.3-26.836-2.86-.755 6.79h30.708l.037-.462-.037-.462-.098-.462-.146-.438-.219-.414-.268-.39-.304-.34-.353-.304-.402-.243-.414-.195-.451-.146-.462-.074zm-27.774 5.683 26.799 3.127.56.037.56-.024.56-.085.548-.146.524-.194.511-.244.475-.304.438-.353.402-.402.353-.426.317-.475.256-.499.207-.523.146-.547.098-.56.024-.56-.024-.56-.085-.56-.146-.548-.195-.523-.256-.499-.304-.475-.353-.438-.402-.401-.438-.353-.475-.304-.499-.255-.524-.207-.548-.146-.56-.085-26.836-2.763-.012-.292-.061-.292-.122-.255-.195-.231-.219-.183-.268-.122-.292-.073h-.292l-.28.073-.268.122-.219.183-.183.231-.134.268-.061.28-1.132 10.295v.304l.073.28.122.268.183.219.231.183.268.134.28.061h.292l.292-.061.256-.134.231-.183.183-.231.122-.268.072-.281zm-9.217 36.323.158.012.073.024.073.025.146.073.134.073.122.097.122.097.195.244.109.109.098.122.158.268.341.523.317.523.316.535.329.536.353.511.39.487.097.121.11.11.243.195.231.207.122.097.134.073.28.134.292.122.146.048.159.025.304.036h.317l.304-.049.146-.036.146-.049.159-.048.073-.025.073-.036.268-.146.255-.183.244-.182.219-.22.438-.45.219-.219.22-.219.243-.195.256-.182.134-.073.134-.061.292-.109.305-.061.158-.013h.158l.305-.024.158-.012.158-.036.146-.049.146-.049.134-.073.073-.036.061-.049.195-.243.073-.134.036-.073.037-.073.098-.292.133-.28.049-.146.073-.134.073-.134.098-.134.097-.121.11-.098.121-.109.122-.085.28-.134.292-.11.146-.048.147-.049.316-.049.305-.048.158-.013.146-.012.621-.024H85.38v10.793H37.528v-10.793h21.101zm3.519-4.697.085.194.085.195.098.195.097.17.11.183.134.182.109.158.146.146.134.146.134.146.146.134.171.11.158.109.158.098.171.097.158.085.158.061.183.073.158.025.183.036.158.037h.365l.171-.037.183-.036.158-.025.182-.073.171-.061.182-.085.159-.097.17-.098.159-.109.158-.11.146-.134.146-.146.146-.146.134-.146.134-.158.122-.182.11-.183.097-.17.097-.195.086-.195.085-.194.061-.207.061-.219.036-.219.037-.219.012-.219v-.463l-.037-.243-.024-.219-.049-.243-2.228-8.007-.061-.244-.085-.231-.098-.195-.122-.158-.072-.06-.073-.073-.073-.061-.074-.049-.097-.037-.098-.024-.097-.024h-.207l-.097.024-.098.024-.085.037-.085.049-.073.061-.073.073-.061.06-.134.158-.097.195-.098.231-.061.244-2.118 8.007-.049.243-.049.219-.024.243-.012.231v.232l.036.219.013.219.048.219.049.219.061.207z"/><path style="fill-rule:evenodd;clip-rule:evenodd;stroke:#000;stroke-width:.2161;stroke-miterlimit:2.6131" d="m65.265 109.67.097.012.097.012.098.024.097.049.074.049.073.048.073.061.072.061.122.182.098.195.085.207.061.244 2.228 8.031.049.219.024.243.037.232v.45l-.012.231-.037.219-.036.219-.061.207-.061.207-.085.194-.086.219-.097.171-.097.195-.11.182-.122.158-.134.171-.134.158-.146.146-.146.134-.146.121-.158.134-.159.11-.17.097-.159.085-.182.085-.171.073-.182.049-.158.049-.183.036-.171.012h-.365l-.158-.012-.183-.036-.158-.049-.183-.049-.158-.073-.158-.085-.171-.085-.158-.097-.158-.11-.171-.134-.146-.121-.134-.134-.134-.146-.146-.158-.109-.171-.134-.158-.11-.182-.097-.195-.098-.171-.085-.219-.085-.194-.061-.207-.049-.207-.048-.219-.013-.219-.036-.231v-.219l.012-.231.024-.232.049-.243.049-.219 2.118-8.031.061-.244.098-.207.097-.195.134-.182.061-.061.073-.061.073-.048.085-.049.085-.049.098-.024.097-.012.11-.012z"/><path style="fill-rule:evenodd;clip-rule:evenodd;stroke:#000;stroke-width:.216;stroke-miterlimit:2.6131" d="m112.63 73.821-26.361 5.877-.451.122-.426.195-.402.243-.353.304-.329.341-.268.377-.219.414-.158.45h23.244l7.22-1.667-1.497-6.656zm4.444 7.8-2.29-10.1-.098-.28-.158-.243-.207-.207-.244-.158-.28-.098-.28-.037-.292.037-.28.098-.244.146-.219.207-.146.255-.098.28-.037.28.037.292-26.361 5.78-.548.158-.524.207-.499.256-.475.304-.426.365-.402.401-.353.438-.292.475-.255.511-.195.523-.146.548-.073.56-.024.56.037.56.098.56.146.548.207.523.268.499.317.462.353.438.414.389.438.341.475.304.511.243.524.195.547.134.56.085.572.012.56-.037.548-.097 26.276-6.145.098.28.158.255.207.207.244.158.28.097.292.024.292-.024.28-.097.243-.158.207-.207.158-.244.098-.28.036-.292-.035-.291z"/><path style="fill-rule:evenodd;clip-rule:evenodd;stroke:#000;stroke-width:.2161;stroke-miterlimit:2.6131" d="M118.085 86.89h.097l.11.013.072.036.098.049.085.048.086.061.06.073.061.073.134.158.098.195.085.219.073.207 2.131 8.104.06.231.037.219.024.232.025.231v.219l-.025.219-.012.219-.036.207-.061.195-.049.219-.085.194-.073.195-.098.195-.097.17-.122.183-.109.158-.122.17-.134.158-.146.146-.146.134-.146.122-.159.122-.17.109-.158.097-.159.098-.182.085-.183.061-.158.048-.183.049-.17.037-.183.012-.17.012-.183-.012-.183-.012-.17-.037-.183-.049-.158-.048-.183-.061-.183-.085-.158-.098-.158-.097-.171-.109-.158-.122-.146-.122-.146-.134-.146-.146-.122-.158-.134-.17-.109-.158-.122-.183-.098-.17-.097-.195-.073-.195-.085-.194-.061-.219-.049-.195-.037-.207-.036-.219v-.438l.025-.231.024-.232.036-.219.061-.231 2.131-8.104.073-.207.085-.219.098-.195.134-.158.061-.073.061-.073.085-.061.085-.048.097-.049.073-.036.122-.013h.098z"/><path style="fill-rule:evenodd;clip-rule:evenodd;stroke:#000;stroke-width:.216;stroke-miterlimit:2.6131" d="m118.085 108.563.097.011.11.013.072.024.098.037.085.036.086.061.06.073.061.061.134.182.098.195.085.207.073.243 2.131 8.007.06.244.037.243.024.231.025.219v.232l-.025.231-.012.219-.036.207-.061.219-.049.206-.085.195-.073.195-.098.195-.097.194-.122.183-.109.158-.122.158-.134.17-.146.146-.146.122-.146.134-.159.134-.17.109-.158.098-.159.085-.182.073-.183.073-.158.061-.183.048-.17.037-.183.012h-.353l-.183-.012-.17-.037-.183-.048-.158-.061-.183-.073-.183-.073-.158-.085-.158-.098-.171-.109-.158-.134-.146-.134-.146-.122-.146-.146-.122-.17-.134-.158-.109-.158-.122-.183-.098-.194-.097-.195-.073-.195-.085-.195-.061-.206-.049-.219-.037-.207-.036-.219v-.463l.025-.219.024-.231.036-.243.061-.244 2.131-8.007.073-.243.085-.207.098-.195.134-.182.061-.061.061-.073.085-.061.085-.036.097-.037.073-.024.122-.013.098-.011z"/><path style="fill-rule:evenodd;clip-rule:evenodd;stroke:#000;stroke-width:.216;stroke-miterlimit:2.6131" d="m122.516 128.312-.146-.146-.146-.182-.121-.159-.135-.182-.109-.171-.122-.182-.097-.195-.073-.195-.086-.206-.085-.219-.048-.207-.049-.207-.049-.219-.024-.219-.024-.231v-.232l.036-.085-.122.061-.341.17-.353.171-.256.085-.292.121-.511.135-.463.085-.487.048h-.669l-.487-.048-.464-.085-.511-.135-.292-.121-.256-.085-.353-.171-.341-.17-.377-.219-.341-.243-.316-.256-.22-.183-.219-.206-.353-.341-.244-.317-.194-.243-.219-.316-.256-.39-.17-.352-.147-.293-.134-.304-.146-.353-.146-.474-.097-.463-.061-.352-.049-.341-8.815-1.461-.329-.085-.329-.073-.17-.036-.171-.037-.158-.012h-22.94l-.207.012-.231.037-.207.036-.195.049-.219.061-.195.061-.195.085-.194.085-.171.097-.182.11-.171.097-.183.134-.158.122-.146.134-.17.146-.122.146-.146.158-.134.17-.11.159-.122.182-.109.171-.085.194-.098.183-.073.194-.073.207-.049.195-.048.219-.049.207-.012.207-.013.207-.024.231.024.231.013.207.012.206.049.22.048.207.049.194.073.207.073.195.098.182.085.195.109.182.122.171.11.17.134.158.146.159.122.146.17.146.146.134.158.133.183.122.171.122.182.097.171.098.194.072.195.086.195.06.219.074.195.048.207.025.231.036.207.012h21.905l14.757 10.319.317.243.268.232.268.231.219.207.194.207.183.194.146.219.134.195.11.195.085.194.061.207.049.195.036.195v.401l-.024.22-.024.146-.037.121-.036.146-.049.146-.061.146-.061.134-.086.134-.085.122-.073.133-.097.11-.085.097-.11.098-.097.085-.098.061-.121.073-.098.024-7.391 1.302-.377.085-.353.073-.365.122-.341.109-.341.146-.341.159-.317.17-.304.195-.317.194-.292.219-.292.232-.256.243-.255.256-.268.267-.219.268-.232.292-.207.304-.195.316-.182.305-.183.341-.146.328-.146.341-.11.353-.109.352-.086.366-.061.365-.048.377-.049.377-.024.365.024.389.012.39.049.389v.244l.036.121.049.11.049.109.06.098.061.097.074.085.073.086.085.06.097.061.098.073.097.049.098.024.097.037.11.036h.097l.122.012.049-.012.146-.024.219-.025.328-.048.427-.073.499-.098.621-.097.706-.109.828-.147.925-.158 1.06-.182 1.144-.195 1.279-.231 1.4-.244 1.546-.255 1.656-.292.402-.085.439-.11.462-.133.512-.146.511-.159.56-.182.56-.207.572-.207 1.218-.475 1.23-.523 1.266-.547 1.279-.572 1.254-.56 1.23-.572 1.168-.548 1.108-.523 1.023-.487.901-.438.779-.365.62-.3.055-.024 22.387-10.366-10.398-18.028-9.656 5.513-.122.048-.292.171-.426.207-.572.255-.305.134-.329.122-.353.134-.341.134-.365.109-.353.097-.353.061-.341.073-.231.049-.256.024-.293.025h-.316l-.317-.025-.341-.012-.34-.036-.341-.025.243.56.146.243.122.268.122.255.097.281.061.267.061.292.037.292v.524l-.013.231-.036.219-.037.219-.049.207-.06.207-.085.219-.074.206-.085.195-.097.195-.11.182-.121.171-.122.182-.134.159-.146.182-.146.146-.159.146-.158.146-.171.134-.17.122-.183.121-.194.11-.183.097-.207.098-.195.085-.207.061-.219.06-.207.049-.207.036-.231.037-.232.012h-.45l-.231-.012-.208-.037-.231-.036-.207-.049-.207-.06-.219-.061-.195-.085-.195-.098-.195-.097-.194-.11-.171-.121-.183-.122-.158-.134-.158-.146-.171-.146z"/><path style="fill-rule:evenodd;clip-rule:evenodd;stroke:#000;stroke-width:.2161;stroke-miterlimit:2.6131" d="m91.322 138.972-.086-.134-.073-.122-.085-.146-.049-.134-.109-.292-.073-.292-.049-.292-.012-.304.012-.292.049-.292.073-.292.097-.28.122-.28.146-.255.183-.256.194-.231.232-.207.243-.195 1.218-.815 10.642-2.86 2.106 1.4-10.483 7.386-.134.073-.122.085-.134.086-.146.06-.292.098-.293.06-.292.049-.292.025-.292-.025-.305-.049-.28-.06-.292-.098-.268-.134-.268-.146-.243-.17-.244-.195-.207-.231-.194-.243z"/><path style="fill-rule:evenodd;clip-rule:evenodd;stroke:#000;stroke-width:.216;stroke-miterlimit:2.6131" d="m102.365 129.869-2.666-1.788H83.943l-.243.146-.22.17-.207.195-.182.195-.171.206-.146.207-.134.244-.109.243-.098.243-.061.268-.073.255-.012.281-.012.267.012.28.049.28.061.268.085.316.122.292.146.268.17.268.195.243.207.207.244.194.243.183.28.146.268.11.292.097.292.061.317.048h.316l.147-.012.17-.012.158-.024.159-.025 16.157-4.32z"/></svg>