<svg xmlns="http://www.w3.org/2000/svg" viewBox="0 0 198.56 173.648" style="enable-background:new 0 0 198.56 173.648" xml:space="preserve"><path style="fill-rule:evenodd;clip-rule:evenodd;stroke:#000;stroke-width:.1276;stroke-miterlimit:2.6131" d="m197.704 164.944-93.456-162-.576-.864-.72-.648-.792-.576-.936-.432-.936-.288L99.28.064l-1.008.072-1.008.288-.864.432-.864.576-.648.648-.576.864-93.456 162-.432.936-.288.936-.072 1.008.072 1.008.288 1.008.432.864.576.864.648.648.864.576.864.432 1.008.288 1.008.072h186.912l1.008-.072.936-.288.936-.432.792-.576.72-.648.576-.864.432-.864.288-1.008.072-1.008-.072-1.008-.288-.936-.432-.936z"/><path style="fill-rule:evenodd;clip-rule:evenodd;fill:#f3c736;stroke:#000;stroke-width:.1276;stroke-miterlimit:2.6131" d="m99.28 18.136 82.8 143.568H16.48l82.8-143.568z"/><path style="fill-rule:evenodd;clip-rule:evenodd" d="M58.6 144.568v7.92h78.84v-7.92H58.6zm11.952-24.336c0 6.48 3.6 12.456 7.848 15.552 5.4 4.032 11.448 3.024 11.736 3.024l1.512-.288-1.224-.936c-8.352-6.84-10.08-16.272-10.44-20.448.936 1.008 1.872 1.656 1.944 1.728l1.152.72-.072-1.368c-.072-.36-.072-.72-.072-1.08 0-4.176 1.08-6.84 2.016-8.352.144 9.216 5.832 16.056 6.12 16.344l1.152-.72c-.864-2.304-1.152-4.68-1.152-6.984 0-3.168.576-6.048 1.224-8.064.936 4.032 3.6 7.704 3.744 7.92l.792 1.152.432-1.368c1.512-5.04 1.872-11.592 1.872-16.848 0-2.88-.144-5.4-.216-6.984 5.184 5.184 6.408 11.304 6.408 15.768 0 3.528-.72 5.976-.792 6.048l-.72 2.52 1.872-1.8c2.088-1.872 3.816-5.472 4.752-7.776.288 1.512.504 3.024.504 4.32 0 3.384-.72 5.832-.72 5.904l-.504 1.656 1.512-.864c1.08-.648 2.016-1.296 2.664-1.872-1.224 13.968-14.184 20.232-14.328 20.304l-2.304 1.08 2.52.288c21.816 2.088 26.208-12.96 27.072-19.512.792-5.472-1.368-9.648-1.512-9l-.144 1.872c-.36 1.368-1.656 2.376-2.52 2.952-.144-.72-.144-1.44-.144-2.232 0-2.592.432-5.256.432-5.256.864-4.032 1.152-7.272 1.152-9.864 0-7.992-3.024-10.08-3.24-10.152l-.864-.648-.144 1.08c0 3.816-2.52 5.256-2.52 5.256-.504-14.76-7.848-21.168-8.208-21.6-.432-.36-1.296-.792-1.296-.792l.216 1.44c.288 2.592-.36 4.968-.792 5.4-.864-5.4-1.44-7.488-5.832-11.376-4.032-3.672-5.328-12.024-5.328-12.024l-.792 1.656c-2.088 4.176-2.448 9.144-2.376 10.584.144 2.808-.576 6.12-1.008 8.064-2.088-3.024-5.4-6.336-5.544-6.48l-1.368-1.368.144 1.872c.36 3.888.504 7.2.504 9.936 0 6.84-.864 10.368-1.512 12.024-1.368-2.52-4.752-5.76-5.544-6.552l-1.368-1.224.144 1.872c.072.504.072 1.08.072 1.584 0 4.392-.288 6.336-1.368 9.072-1.44 3.528-1.008 8.352-1.008 8.568-1.656-1.656-4.032-2.88-4.392-3.024l-1.584-.792.576 1.656c1.296 3.456.864 12.024.864 18.432z"/></svg>