<svg xmlns="http://www.w3.org/2000/svg" viewBox="0 0 198.56 173.648" style="enable-background:new 0 0 198.56 173.648" xml:space="preserve"><path style="fill-rule:evenodd;clip-rule:evenodd;stroke:#000;stroke-width:.1276;stroke-miterlimit:2.6131" d="m197.704 164.944-93.456-162-.576-.864-.72-.648-.792-.576-.936-.432-.936-.288L99.28.064l-1.008.072-1.008.288-.864.432-.864.576-.648.648-.576.864-93.456 162-.432.936-.288.936-.072 1.008.072 1.008.288 1.008.432.864.576.864.648.648.864.576.864.432 1.008.288 1.008.072h186.912l1.008-.072.936-.288.936-.432.792-.576.72-.648.576-.864.432-.864.288-1.008.072-1.008-.072-1.008-.288-.936-.432-.936z"/><path style="fill-rule:evenodd;clip-rule:evenodd;fill:#f3c736;stroke:#000;stroke-width:.1276;stroke-miterlimit:2.6131" d="m99.28 18.136 82.8 143.568H16.48l82.8-143.568z"/><path style="fill-rule:evenodd;clip-rule:evenodd" d="M120.014 153.124H74.346v-4.246h12.686l-1.544-1.136-1.412-1.292-1.257-1.435-1.113-1.555-.945-1.674-.766-1.746-.575-1.83-.383-1.866-.191-1.914.012-1.914.215-1.89.407-1.878.598-1.818.79-1.734.957-1.663 1.137-1.543 1.28-1.411 1.424-1.28 1.556-1.113 1.651-.957 1.759-.777 1.819-.586 1.867-.395 1.903-.203h1.915l1.903.203 1.867.395 1.819.586 1.747.777 1.664.957 1.556 1.113 1.424 1.28 1.28 1.411 1.137 1.543.958 1.663.79 1.734.598 1.818.407 1.878.216 1.89.012 1.914-.192 1.914-.383 1.866-.574 1.83-.766 1.746-.946 1.674-1.113 1.555-1.268 1.435-1.4 1.292-1.544 1.136h12.686v4.246zm-8.509-19.533-.108-1.722-.311-1.698-.515-1.663-.706-1.567-.897-1.483-1.065-1.363-1.221-1.22-1.364-1.064-1.484-.897-1.58-.718-1.651-.514-1.699-.311-1.723-.096-1.723.096-1.711.311-1.64.514-1.58.718-1.484.897-1.364 1.064-1.221 1.22-1.065 1.363-.897 1.483-.706 1.567-.514 1.663-.311 1.698-.108 1.722.108 1.723.311 1.71.514 1.651.706 1.579.897 1.471 1.065 1.363 1.221 1.232 1.364 1.065 1.484.897 1.58.706 1.64.514 1.711.311 1.723.107 1.723-.107 1.699-.311 1.651-.514 1.58-.706 1.484-.897 1.364-1.065 1.221-1.232 1.065-1.363.897-1.471.706-1.579.515-1.651.311-1.71.108-1.723z"/><path style="fill-rule:evenodd;clip-rule:evenodd" d="m74.561 95.926-.191-.095-.156-.084-.131-.06-.084-.036-1.46-.729.526 1.531.108.311.096.334.095.371.084.383.072.419.072.43.06.455.048.478.047.479.036.502.036.526.024.538.024.551.024.562.012.574.012.574.012 1.184v1.208l-.012 1.22v1.208l-.012 1.22-.024 1.197-.012 1.16v1.136l.012.562.024.55.048.551.06.55.096.55.095.538.12.527.12.538.155.526.156.515.179.502.192.502.203.503.216.49.239.479.239.466.252.466.263.443.275.443.288.442.299.419.299.406.311.395.12.156.885-1.735 1.03-1.626 1.184-1.543 1.317-1.412 1.436-1.292-.048-.155-.192-.61-.179-.598-.156-.598-.143-.574-.12-.551-.12-.526-.095-.526-.084-.502-.072-.467-.06-.455-.06-.43-.048-.407-.023-.37.155.167.168.167.155.144.156.155.287.263.275.228.228.179.179.144.12.095.072.048 1.065.67-.072-1.268-.024-.119-.012-.132-.012-.119-.012-.132v-.12l-.012-.119v-.251l.012-.359v-.347l.024-.347.012-.335.024-.323.024-.311.036-.311.048-.299.036-.299.047-.287.048-.275.06-.275.048-.264.072-.263.06-.251.06-.227.071-.239.072-.227.072-.228.072-.215.072-.203.083-.192.084-.191.072-.191.084-.18.084-.167.071-.18.096-.155.072-.156.084-.143.083-.144.084-.131.024.789.06.777.084.766.096.754.131.729.156.718.167.694.18.681.203.67.216.646.227.622.227.598.252.586.239.562.263.527.252.526.191.371 2.789-.79-.025-.239-.023-.395-.024-.418-.024-.395-.012-.395v-.945l.012-.275.012-.263.036-.538.036-.526.047-.503.06-.502.06-.491.084-.49.072-.466.095-.443.096-.443.096-.43.096-.407.107-.395.108-.37.12-.359.083.347.096.347.096.334.108.335.119.347.12.323.132.323.119.323.144.311.132.311.143.299.144.299.143.275.132.275.144.263.143.263.264.479.263.431.239.382.216.335.179.276.144.215.096.143.047.072.73 1.064.407-1.267.12-.431.132-.454.107-.455.12-.466.096-.467.096-.478.095-.467.084-.49.096-.491.072-.49.071-.49.072-.503.06-.502.06-.502.06-.503.048-.514.047-.503.036-.502.036-.514.036-.503.036-.502.024-.502.024-.503.024-.502.036-.981.024-.969.012-.945v-1.901l-.012-.479-.012-.466-.012-.455v-.442l-.024-.431-.012-.419-.012-.406-.024-.383-.012-.383-.024-.359-.012-.335-.012-.323-.012-.31-.012-.276.431.443.419.466.395.455.383.466.347.467.347.466.311.479.299.466.287.479.264.478.251.479.239.478.216.478.203.479.18.467.179.478.156.466.144.479.131.466.12.467.107.454.096.467.084.442.072.443.06.442.059.443.036.43.036.419.036.419.012.407.012.394v.694l-.012.299-.012.287v.287l-.024.275-.012.275-.024.263-.024.252-.048.49-.059.455-.06.418-.072.383-.06.359-.06.299-.072.275-.047.227-.06.179-.036.132-.036.084-.012.048-.67 2.32 1.735-1.662.18-.168.179-.167.168-.192.179-.191.168-.204.167-.203.168-.203.168-.227.155-.216.168-.227.155-.227.144-.24.155-.239.144-.251.155-.239.144-.239.132-.252.131-.238.132-.252.132-.251.251-.49.227-.491.216-.466.203-.455.192-.442.179-.407.096.526.084.515.071.514.072.514.024.251.036.251.024.252.012.227.024.251v.227l.012.24v.514l-.012.275v.287l-.012.275-.036.526-.048.503-.048.478-.059.443-.048.419-.072.37-.06.347-.06.299-.06.275-.036.216-.047.179-.036.144-.012.083-.012.036-.467 1.531 1.4-.801.359-.216.359-.227.336-.227.322-.215.3-.215.275-.216.263-.203.24-.203-.132 1.184-.203 1.148-.252 1.112-.299 1.065-.359 1.016-.383.981-.431.945-.215.407 1.472 1.567 1.304 1.698 1.125 1.818.934 1.938.73 2.009.227-.131.898-.646.825-.682.766-.706.718-.729.647-.766.598-.777.551-.789.502-.802.443-.813.407-.802.359-.813.323-.802.287-.789.252-.777.215-.754.179-.73.156-.693.132-.67.107-.634.084-.598.06-.466.048-.455.036-.467.011-.442v-.849l-.023-.431-.024-.394-.036-.395-.048-.383-.048-.359-.06-.359-.071-.347-.072-.323-.072-.311-.084-.287-.072-.275-.083-.263-.084-.239-.084-.227-.084-.204-.083-.179-.072-.167-.072-.144-.072-.12-.072-.107-.06-.072-.048-.06-.047-.036h-.036l-.024.012-.024.048-.132 1.722-.036.12-.036.12-.048.119-.035.108-.06.108-.048.107-.072.108-.06.096-.059.107-.072.096-.072.095-.072.096-.155.18-.156.179-.18.168-.167.155-.168.156-.179.143-.168.131-.167.12-.156.108-.156.108-.047-.24-.036-.263-.024-.251-.012-.251-.012-.251v-.264l-.012-.263v-.275l.012-.454.012-.443.024-.442.024-.431.024-.418.036-.395.036-.383.035-.359.036-.323.036-.299.036-.263.036-.227.024-.168.024-.143.012-.072v-.036l.144-.694.131-.67.12-.645.107-.646.096-.622.084-.61.084-.587.06-.574.059-.562.048-.55.036-.526.036-.514.024-.491.024-.49.012-.467v-.454l-.012-.682-.024-.646-.036-.61-.048-.586-.072-.55-.071-.527-.084-.502-.096-.466-.096-.443-.119-.419-.12-.394-.12-.371-.131-.347-.12-.311-.144-.299-.131-.275-.132-.251-.132-.239-.143-.216-.132-.191-.131-.179-.12-.156-.12-.143-.107-.12-.108-.108-.096-.083-.084-.084-.083-.06-.06-.048-.06-.036-.036-.024-.024-.012-.802-.598-.131 1.005v.323l-.024.311-.036.299-.036.275-.06.287-.06.251-.072.252-.071.239-.084.227-.096.215-.096.204-.096.191-.107.179-.108.18-.107.155-.108.156-.108.131-.108.132-.107.119-.108.108-.096.108-.096.083-.095.084-.084.072-.144.12-.119.083-.072.048-.024.012-.072-1.256-.096-1.208-.131-1.172-.156-1.112-.179-1.077-.216-1.04-.227-.993-.263-.945-.276-.909-.287-.873-.299-.825-.323-.778-.323-.753-.324-.694-.335-.67-.335-.622-.335-.586-.335-.551-.335-.514-.311-.466-.311-.443-.299-.395-.288-.358-.275-.335-.239-.287-.228-.264-.203-.215-.18-.191-.263-.275-.143-.132-.072-.071-.084-.06-.096-.06-.096-.06-.203-.131-.192-.108-.179-.096-.144-.084-.095-.047-.036-.012.203 1.327.024.227.012.216.012.227.012.215.012.216v.215l-.012.203V71l-.012.203-.024.191-.012.204-.024.191-.024.191-.024.18-.024.167-.036.18-.059.323-.072.299-.048.143-.024.12-.048.131-.036.12-.048.108-.035.095-.048.084-.036.096-.036.06-.036.071-.048.048-.036.048-.143-.909-.156-.825-.072-.407-.072-.371-.083-.383-.084-.347-.084-.347-.096-.334-.095-.335-.096-.311-.108-.311-.12-.311-.131-.287-.132-.299-.143-.287-.156-.287-.156-.287-.179-.287-.192-.275-.203-.288-.215-.275-.228-.287-.251-.287-.251-.299-.288-.287-.287-.299-.311-.311-.335-.323-.347-.323-.371-.323-.347-.335-.323-.359-.312-.37-.299-.395-.287-.407-.275-.418-.251-.443-.252-.443-.227-.454-.216-.454-.215-.467-.191-.466-.18-.455-.168-.467-.167-.454-.144-.442-.143-.431-.12-.431-.119-.406-.108-.395-.096-.371-.084-.347-.084-.335-.071-.299-.108-.526-.072-.395-.048-.263-.012-.084-.73 1.531-.179.371-.168.359-.155.371-.156.371-.132.382-.131.371-.132.371-.12.371-.107.371-.096.37-.096.371-.084.359-.083.359-.072.359-.072.347-.06.334-.06.335-.048.323-.047.311-.036.311-.036.299-.036.275-.024.275-.024.264-.024.478-.024.431v.347l.012.286v.24l.012.251v.502l-.012.252-.012.251-.012.251-.012.263-.048.502-.06.515-.059.502-.06.49-.084.491-.084.478-.084.467-.083.442-.096.419-.084.406-.084.371-.071.359-.18-.263-.203-.263-.192-.263-.191-.263-.419-.526-.407-.515-.431-.514-.407-.479-.407-.466-.394-.443-.371-.406-.348-.371-.311-.323-.275-.287-.227-.239-.18-.192-.12-.107-.059-.072-1.257-1.256.132 1.734.06.658.047.658.048.634.06.634.036.622.036.598.036.598.024.574.035.574.025.55.011.551.025.526v.514l.011.502v2.118l-.011.55-.013.526-.023.526-.025.491-.023.478-.024.467-.036.454-.048.431-.036.418-.036.395-.048.395-.048.371-.047.359-.048.347-.06.322-.048.311-.06.311-.048.287-.06.275-.059.264-.06.251-.06.239-.06.227-.06.216-.06.191-.06.203-.119.347-.108.299-.12-.215-.143-.215-.144-.228-.143-.227-.168-.239-.168-.227-.167-.24-.179-.227-.18-.227-.191-.239-.192-.228-.191-.227-.383-.442-.395-.443-.383-.407-.359-.395-.359-.358-.323-.335-.3-.299-.251-.251-.215-.216-.168-.155-1.256-1.137.131 1.735.012.179.024.18.012.179.012.192v1.471l-.012.682-.012.634-.036.61-.024.562-.048.538-.036.251-.023.263-.025.24-.035.239-.036.239-.048.227-.048.239-.036.228-.06.215-.048.215-.06.228-.059.215-.06.227-.072.215-.06.228-.084.227-.155.454-.18.455-.119.311-.108.323-.108.311-.083.323-.096.335-.072.323-.06.323-.06.334-.06.336-.048.322-.035.323-.036.323-.024.311-.024.311-.012.311-.024.287-.012.287v.276l-.012.263v.251l.012.466.012.407.012.335.012.263v.167l.012.096-.144-.143-.155-.144-.144-.132-.156-.131-.155-.144-.156-.119-.155-.132-.168-.119-.323-.24-.311-.215-.311-.215-.299-.192-.288-.167-.263-.155-.251-.144-.216-.132z"/></svg>