<svg xmlns="http://www.w3.org/2000/svg" viewBox="0 0 198.56 173.648" style="enable-background:new 0 0 198.56 173.648" xml:space="preserve"><path style="fill-rule:evenodd;clip-rule:evenodd;stroke:#000;stroke-width:.1276;stroke-miterlimit:2.6131" d="m197.704 164.944-93.456-162-.576-.864-.72-.648-.792-.576-.936-.432-.936-.288L99.28.064l-1.008.072-1.008.288-.864.432-.864.576-.648.648-.576.864-93.456 162-.432.936-.288.936-.072 1.008.072 1.008.288 1.008.432.864.576.864.648.648.864.576.864.432 1.008.288 1.008.072h186.912l1.008-.072.936-.288.936-.432.792-.576.72-.648.576-.864.432-.864.288-1.008.072-1.008-.072-1.008-.288-.936-.432-.936z"/><path style="fill-rule:evenodd;clip-rule:evenodd;fill:#f3c736;stroke:#000;stroke-width:.1276;stroke-miterlimit:2.6131" d="m99.28 18.136 82.8 143.568H16.48l82.8-143.568z"/><path style="fill-rule:evenodd;clip-rule:evenodd" d="M129.303 140.608c-1-.592-1.747-.63-2.808-1.008-3.432-1.614-7.167-3.03-10.656-4.536.91-2.175 1.981-4.598 2.088-6.984 3.524-1.568 9.601-4.706 13.104-6.12 1.205-.624 2.713-.66 4.032-.504 1.323.286 3.144.818 4.464 1.152 1 .564 2.317.863 3.456.648 2.671-.824 2.524-3.36 2.016-5.616-.434-.649-.992-1.469-1.368-2.16.126-1.17-.047-2.972-.36-4.104-.381-.48-.752-1.337-1.224-1.728-.735-.322-1.54-.877-2.376-.792-.796.064-1.738.456-2.448.792l-1.44 1.44c-2.874 1.296-6.639 2.674-9.432 4.176-1.755.831-3.92 1.48-5.688 2.304 2.484-2.628 2.596-6.743 1.44-10.008 1.401-2.232 2.473-4.812 3.24-7.344.407-1.856.644-3.946.864-5.832.194-2.177-.05-4.545-.36-6.696-.128-1.378-.281-3.076-.72-4.392-1.179-3.273-3.477-6.203-6.048-8.496-.944-1.136-2.128-2.341-3.456-3.024-.926-.543-2.117-1.017-3.096-1.44-.868-.471-1.879-1.08-2.808-1.44-4.771-1.78-10.148-2.217-15.192-1.656-5.567.818-11.156 3.158-15.264 7.056-1.679 1.235-3.505 2.712-4.464 4.608-4.805 8.719-5.401 16.049.144 24.624-1.975 4.641-2.006 8.29.936 12.528.834 1.108 1.945 2.43 2.592 3.672-2.905-.989-6.939-2.941-9.864-3.816-2.186-.859-4.906-1.429-6.84-2.808-1.521-1.179-3.342-3.244-5.472-2.304-2.798.771-1.998 4.596-2.304 6.768-.9.703-1.485 1.881-1.512 3.024.078 1.546.696 2.735 2.232 3.24 1.643.532 3.028-.743 4.608-.864 1.467-.144 4.725 1.237 6.12 1.656 5.131 1.562 10.884 3.926 16.056 5.328.214 1.36.799 2.9 1.296 4.176-.739.375-1.593.689-2.376.936-1.732.765-3.684 1.66-5.472 2.304-2.855 1.194-5.751 2.714-8.64 3.816-1.156.202-2.509-.026-3.672 0-.54-.189-1.23-.182-1.8-.072-1.3.299-2.487 1.653-2.232 3.024-.095.45.241.882.288 1.296.234.215.353.691.576.936.449.48.585 1.166.648 1.8.267.883-.037 1.911.432 2.736.616 1.722 2.793 2.518 4.464 1.944 1.037-.318 1.674-1.275 2.52-1.872 3.872-1.962 7.813-3.979 11.88-5.544.921-.362 1.834-.974 2.736-1.368 1.686-.566 3.57-1.476 5.256-2.088 6.142 6.677 17.004 5.286 23.688.144 1.896.678 3.914 1.511 5.688 2.448 4.035 1.514 8.517 3.535 12.456 5.328 1.733.633 2.91 2.282 4.608 2.952 3.274 1.041 5.712-1.223 5.472-4.536.401-.375.553-.992.864-1.44.158-.313.401-.628.576-.936.132-.271.204-.645.288-.936.315-1.281-.446-2.731-1.656-3.24-.647-.264-1.395-.227-2.088-.216-.227.047-.483.182-.72.144v.072c-.864-.03-1.885.153-2.736.216-.447-.048-1.04-.207-1.44-.432-.969-.276-2.124-.695-3.096-.936zm-72.144-27.144c.136-.067.356-.083.504-.072v.072c1.409.905 2.691 2.311 4.248 3.024.953.579 2.281.776 3.312 1.152.915.349 2.014.789 2.952 1.08 3.959 1.298 7.945 3.301 11.952 4.464.299.976.501 2.661.72 3.672-5.27-1.63-10.632-3.711-15.912-5.328-3.284-1.089-5.384-2.037-8.784-.576l-.144.144h-.648c-.131-.201-.052-.492-.072-.72.185-.282.413-.631.72-.792.545-.814 1.013-1.806.936-2.808l-.072-.072c.014-1.073-.101-2.221.288-3.24zm37.224.648c.597-1.225 1.167-3.301 2.088-4.32.596-.597 1.391-1.255 2.232-1.44 1.279.135 2.453 1.141 3.168 2.16 1.359 2.232 1.516 4.983 1.944 7.488.01.943-.073 2.177-.864 2.808-.846.483-1.919.879-2.88.504-.557-.287-1.296-.892-1.944-.648-.171.207-.475.401-.72.504-.532.069-1.261.176-1.8.144-.285-.11-.867-.323-1.152-.432-.863-.623-.903-1.774-1.008-2.736-.052-.899.405-2.001.576-2.88-.003-.329.139-.897.36-1.152zm-10.944-6.408c-1.505-2.351-1.439-5.362.648-7.344 1.309-.663 3.014-1.224 4.464-1.44 1.193-.074 2.785-.083 3.96.144.805.168 1.837.406 2.304 1.152.564.608 1.114 1.467 1.224 2.304-.048 1.036.131 2.376-.144 3.384-.334.679-.787 1.763-1.224 2.376-.227.585-.674 1.176-1.296 1.368-.622.885-1.504 1.748-2.52 2.16-3.019 1.151-6.403-1.27-7.416-4.104zm32.76-2.664c-.147 1.094-.264 2.342-.648 3.384-.354.692-.765 1.926-1.44 2.376-.394.324-1.036.704-1.44 1.008-.604.145-1.757.408-2.376.432-1.581-.146-3.159-1.025-4.104-2.304-1.646-2.219-4.87-5.938-2.232-8.496.206-.282.524-.898.648-1.224.235-.321.793-.577 1.152-.72.62-.173 1.359-.555 1.872-.936.443-.095 1.563-.32 2.016-.432 2.21-.633 5.287-.592 6.48 1.728.148.747.197 1.69.288 2.448-.175.77-.253 1.959-.216 2.736zm24.048 6.84c.113.176.279.505.432.648.001.72.139 1.519.216 2.232-.274.899.136 1.932.648 2.664.264.404.469.97.864 1.296.112.288.032.72.144 1.008.025.232-.097.56-.072.792-.619.044-1.126-.022-1.656-.36-1.75-.613-3.641-1.171-5.472-1.512-1.868-.278-3.979-.147-5.616.864-3.567 1.376-8.165 3.763-11.592 5.4.087-1.138.279-2.497.576-3.6 1.513-.529 3.214-1.249 4.752-1.8.964-.621 2.244-.959 3.312-1.368 2.952-1.468 6.293-2.892 9.36-4.104.494-.234 1.17-.569 1.584-.936.261-.245.553-.608.864-.792.197-.495.803-.475 1.224-.648.097.079.309.192.432.216zm-25.704 25.704c3.628 1.331 7.852 3.453 11.448 4.824.292.075 1.008.258 1.296.288.597.357 1.416.669 2.088.864 1.304.296 2.911 1.066 4.248 1.224 1.441-.064 3.196-.317 4.608-.432l.072.072v.144c-.219.196-.541.875-.648 1.152-.201.295-1.038 1.616-1.08 1.944-.13.49-.014 1.31-.144 1.8-.16.812-1.069 1.039-1.728.648-1.211-.613-2.532-1.794-3.672-2.52-1.056-.458-3.877-1.687-4.968-2.16-3.813-1.562-9.211-4.155-13.032-5.544.4-.559 1.16-1.714 1.512-2.304zm-28.944 2.088c-2.123.99-5.168 1.911-7.128 3.168-2.27.624-5.027 2.207-7.2 3.096-1.713.801-3.696 1.783-5.328 2.736-.67.411-1.258 1.341-2.016 1.584a7.315 7.315 0 0 0-.72-.216c-.327-1.105-.288-2.469-.576-3.6a17.075 17.075 0 0 0-.792-1.584c-.177-.234-.475-.624-.432-.936 1.483-.011 3.375.288 4.896.072 1.603-.163 3.374-1.227 4.824-1.872 4.143-1.825 8.647-3.668 12.816-5.4.286.892 1.179 2.143 1.656 2.952zm-9.36-39.384c-4.08-7.389-2.633-13.499 1.296-20.52 3.466-4.17 8.948-7.841 14.256-9.072 5.245-1.482 11.102-.981 16.272.576 1.943.881 4.149 1.907 6.048 2.88 1.026.558 2.049 1.568 2.808 2.448 1.654 1.581 3.699 3.712 4.752 5.76 1.249 2.033 1.344 4.967 1.656 7.272.515 4.866-.324 10.155-2.52 14.544-.381-1.607-.681-3.46-.504-5.112.105-.699.584-2.59.72-3.312.815-2.3.941-4.869.576-7.272-.063-.737-.39-2.184-.648-2.88-.203-1.137-.97-2.757-2.376-2.16-1.093.485-.825 1.813-.36 2.664.292 1.416.888 3.22.792 4.68.132 1.801-.558 3.819-1.008 5.544-.884 2.663-.492 5.725 0 8.424.78 2.316 2.101 4.683 2.016 7.2.017 2.56-1.216 3.478-3.456 4.32-1.113.416-1.82 1.542-2.808 2.16-1.182 1.523-1.957 3.605-2.376 5.472-.581.095-2.058-.132-2.448.432-.079.195-.179.521-.36.648-.396.062-.843-.139-1.224-.144-.36.116-.8.342-.936.72-.269.317-.759.392-1.152.36v-.216l-.072-.072c-.278-.043-.613.112-.864.216-.378.096-1.101.224-1.152.72-.229.142-.545.199-.792.072-.052-.094-.173-.267-.288-.288-.13.062-.503.123-.648.144-.189.093-.445.345-.648.432-.354.104-.859.067-1.224.072l-.36-.216c-.314.018-.718.186-1.008.288-.191.019-.554-.133-.72-.216-.226-.518-1.05-.21-1.512-.288-.323.397-1.159.165-1.584.072-.173-.722-1.386-.531-1.944-.576-.334-.996-1.307-.884-2.16-.864-.376-.825-1.554-.634-2.088-.072-.43-2.457-1.149-5.145-2.736-7.128-1.287-1.286-3.425-1.824-5.112-2.376-.526-.199-1.373-.332-1.8-.72-.665-.909-1.371-2.052-1.8-3.096-1.051-2.956.276-6.033 1.512-8.712.646-1.254.881-3.014 1.08-4.392.083-1.377.055-3.164 0-4.536-.298-1.289-.578-3.218-.648-4.536-.084-.524.303-1.196.504-1.656.202-.402.137-1.006.144-1.44-.259-1.156-1.829-1.474-2.52-.504-.239.723-.522 1.52-.792 2.232-.304 2.059.213 4.454.576 6.48-.008.695-.112 1.527-.072 2.232.172.966-.05 2.369-.288 3.312zm9.968 28.008c.21 1.201.401 2.717 1.336 3.6.128.129.623.297.792.36.18.296.62.577.792.864v.288c.238.143.607.022.864.144.272.096.624.032.864.216 1.112 2.496 1.764.019 3.024 1.656.298.113.907.174 1.224.144l.216-.144c.789.065 1.745.804 2.592.72.185-.18.419-.451.648-.576.225-.038.719.079.936.144.099.132.349.306.504.36l1.152-.288c.032-.07.139-.4.216-.432.281.029.685-.073.936.072a.453.453 0 0 0 .072.288c.359.197 1.022.019 1.368-.144.307-.031.561-.2.648-.504.183.102.668.032.864 0 .334.067.879-.095 1.152-.288.249-.058.637-.151.72-.432l-.072-.144.072-.144c.317-.144.876-.045 1.224-.144.301-.04.836-.25 1.08-.432.177-.196.221-.547.288-.792.179-.271.491-.324.792-.288.265-.064.63-.14.864-.288.147-.172.371-1.214.432-1.44.531.191 1.248-.261 1.512-.72-.008-.564.077-1.248 0-1.8l.288-.144c.13-.881.191-2.117.36-3.024.069-.235.179-.695.144-.936.236-.448.338-1.097.648-1.512.145-.415.326-.983.504-1.368.32-.275.459-.826.864-1.008-.658 2.526-.851 5.615-1.008 8.208-.823 3.946-2.662 7.975-5.328 11.016-4.72 4.46-13.729 6.018-19.08 1.872-3.631-3.155-5.519-8.018-6.624-12.6-.701-3.259-1.1-6.959-2.88-9.864.697.259 1.694.563 2.16 1.152.786.921 1.342 2.187 1.512 3.384.406 1.657.871 3.325 1.328 4.968z"/></svg>