<svg xmlns="http://www.w3.org/2000/svg" viewBox="0 0 198.56 173.648" style="enable-background:new 0 0 198.56 173.648" xml:space="preserve"><path style="fill-rule:evenodd;clip-rule:evenodd;stroke:#000;stroke-width:.1276;stroke-miterlimit:2.6131" d="m197.704 164.944-93.456-162-.576-.864-.72-.648-.792-.576-.936-.432-.936-.288L99.28.064l-1.008.072-1.008.288-.864.432-.864.576-.648.648-.576.864-93.456 162-.432.936-.288.936-.072 1.008.072 1.008.288 1.008.432.864.576.864.648.648.864.576.864.432 1.008.288 1.008.072h186.912l1.008-.072.936-.288.936-.432.792-.576.72-.648.576-.864.432-.864.288-1.008.072-1.008-.072-1.008-.288-.936-.432-.936z"/><path style="fill-rule:evenodd;clip-rule:evenodd;fill:#f3c736;stroke:#000;stroke-width:.1276;stroke-miterlimit:2.6131" d="m99.28 18.136 82.8 143.568H16.48l82.8-143.568z"/><path style="fill-rule:evenodd;clip-rule:evenodd" d="M60.017 153.227v-8.512h80.794v8.512H60.017zm22.809-13.471 1.333-1.924 1.185-1.998 1.037-2.072.815-2.184.666-2.22.481-2.294.259-2.294.111-2.332-.111-2.331-.259-2.295-.481-2.257-.666-2.258-.815-2.146-1.037-2.109-1.185-1.999-1.333-1.887-1.222-1.739-1.036-1.85-.889-1.961-.666-1.998-.518-2.072-.296-2.11-.074-2.109.074-2.146.296-2.11.518-2.036.666-2.035.889-1.924 1.036-1.85 1.222-1.739-4.48-3.479-1.37 1.924-1.148 1.998-1.037 2.073-.852 2.183-.629 2.221-.482 2.294-.296 2.294-.074 2.331.074 2.332.296 2.294.482 2.258.629 2.257.852 2.147 1.037 2.109 1.148 1.998 1.37 1.887 1.222 1.739 1.037 1.85.852 1.961.704 1.999.481 2.072.296 2.11.111 2.109-.111 2.146-.296 2.073-.481 2.072-.704 2.035-.852 1.924-1.037 1.85-1.222 1.74 4.48 3.478zm19.846 0 1.333-1.924 1.185-1.998 1-2.072.852-2.184.666-2.22.481-2.294.26-2.294.111-2.332-.111-2.331-.26-2.295-.481-2.257-.666-2.258-.852-2.146-1-2.109-1.185-1.999-1.333-1.887-1.222-1.739-1.037-1.85-.889-1.961-.666-1.998-.518-2.072-.296-2.11-.074-2.109.074-2.146.296-2.11.518-2.036.666-2.035.889-1.924 1.037-1.85 1.222-1.739-4.48-3.479-1.37 1.924-1.184 1.998-1 2.073-.852 2.183-.63 2.221-.481 2.294-.296 2.294-.074 2.331.074 2.332.296 2.294.481 2.258.63 2.257.852 2.147 1 2.109 1.184 1.998 1.37 1.887 1.185 1.739 1.074 1.85.852 1.961.704 1.999.481 2.072.296 2.11.111 2.109-.111 2.146-.296 2.073-.481 2.072-.704 2.035-.852 1.924-1.074 1.85-1.185 1.74 4.48 3.478zm19.847 0 1.333-1.924 1.185-1.998.999-2.072.852-2.184.666-2.22.482-2.294.259-2.294.111-2.332-.111-2.331-.259-2.295-.482-2.257-.666-2.258-.852-2.146-.999-2.109-1.185-1.999-1.333-1.887-1.222-1.739-1.037-1.85-.889-1.961-.667-1.998-.518-2.072-.296-2.11-.074-2.109.074-2.146.296-2.11.518-2.036.667-2.035.889-1.924 1.037-1.85 1.222-1.739-4.48-3.479-1.37 1.924-1.185 1.998-.999 2.073-.852 2.183-.63 2.221-.481 2.294-.296 2.294-.111 2.331.111 2.332.296 2.294.481 2.258.63 2.257.852 2.147.999 2.109 1.185 1.998 1.37 1.887 1.185 1.739 1.074 1.85.852 1.961.703 1.999.482 2.072.296 2.11.111 2.109-.111 2.146-.296 2.073-.482 2.072-.703 2.035-.852 1.924-1.074 1.85-1.185 1.74 4.48 3.478z"/></svg>