<svg id="a" xmlns="http://www.w3.org/2000/svg" viewBox="0 0 197.52 172.51"><defs><style>.d{fill-rule:evenodd}</style></defs><path style="fill:#f3c835;fill-rule:evenodd" d="M181.11 160.68 98.76 18.06 16.41 160.68h164.7z"/><path class="d" d="M181.11 160.68 98.76 18.06 16.41 160.68h164.7Zm10.75 11.83c4.47.1 7.19-5.14 4.73-8.74L103.42 2.51c-2.04-3.32-7.28-3.29-9.39 0C92.86 6.32-.25 162.67 0 166.91c0 3.09 2.51 5.6 5.66 5.6h186.2Z"/><path class="d" d="M52.73 119.12c-.02-.99-1.5-.99-1.53 0 .05.98 1.48.98 1.53 0Zm2.9-2.38c-.04-.99-1.48-.99-1.53 0 .03.99 1.5.99 1.53 0Zm1.45 2.38c-.02-.99-1.5-.99-1.53 0 .04.98 1.48.98 1.53 0Zm4.3 0c-.02-.99-1.5-.99-1.53 0 .05.98 1.48.98 1.53 0Zm4.21-.35c-.04-.99-1.48-.99-1.53 0 .04.99 1.49.99 1.53 0Zm-9.33-5.11c-.04-.98-1.49-.99-1.53 0 .02.99 1.5.99 1.53 0Zm3.28 1.54c-.02-.99-1.52-.99-1.51 0 0 .99 1.48.99 1.51 0Zm3.11 1.12c-.03-.99-1.5-.99-1.53 0 .04.99 1.48.99 1.53 0Zm2.71-1.52c-.03-.99-1.49-.99-1.53 0 .04.98 1.49.99 1.53 0Zm3.15-1.23c-.03-.99-1.5-.99-1.53 0 .04.99 1.49.99 1.53 0Zm-5.64-.69c-.04-.99-1.49-.99-1.53 0 .03.99 1.49.99 1.53 0Zm-3.39-.82c-.04-.99-1.48-.99-1.53 0 .03.99 1.5.99 1.53 0Zm-1.24-3.18c-.03-.99-1.5-.99-1.53 0 .04.99 1.48.99 1.53 0Zm3.23-2.09c-.02-.99-1.51-.99-1.51 0s1.48.99 1.51 0Zm.59 3.27c-.03-.99-1.5-.99-1.53 0 .04.98 1.49.98 1.53 0Zm2.88-1.18c-.02-.99-1.51-.99-1.51 0s1.48.99 1.51 0Zm.79 3.03c-.03-.99-1.51-.99-1.51 0s1.48.99 1.51 0Zm3.66-2.33c-.02-.99-1.5-.99-1.53 0 .04.98 1.48.98 1.53 0Zm2.76-2.33c-.04-.99-1.48-.99-1.53 0 .04.99 1.49.99 1.53 0Zm-4.94-.37c.01-.99-1.49-.99-1.51 0 .03.99 1.51.99 1.51 0Zm-5.15-3.01c-.04-.99-1.49-.98-1.53 0 .03.99 1.5.99 1.53 0Zm1.8-3.93c-.03-.99-1.51-.99-1.51 0s1.48.99 1.51 0Zm1.44 3.8c0-.99-1.48-.99-1.51 0 .03.99 1.51.99 1.51 0Zm1.61-2.5c-.03-.99-1.51-.99-1.51 0-.01.99 1.49.99 1.51 0Zm3.01 3.87c-.03-.99-1.49-.98-1.51 0 .02.98 1.48.99 1.51 0Zm-.15-3.03c-.03-.98-1.47-.99-1.51 0 .02.99 1.51.98 1.51 0Zm-.36-3.23c0-.99-1.49-.98-1.51 0 .02.99 1.52.99 1.51 0Zm3.98 2.05c0-.99-1.49-1-1.51 0 .03.98 1.5.97 1.51 0Zm.73 3.19c-.04-.99-1.49-.99-1.53 0 .03.99 1.49.99 1.53 0Zm3.01-2.58c-.03-.99-1.51-.99-1.51 0s1.49.99 1.51 0Zm-10.38-4.29c0-.99-1.49-.99-1.51 0 .02.98 1.51.99 1.51 0Zm2.05-2.02c-.03-.99-1.5-.99-1.53 0 .04.99 1.49.98 1.53 0Zm5.1 2c-.02-.99-1.52-.99-1.51 0 0 .99 1.49.98 1.51 0Zm5.17 1.68c-.04-.99-1.49-.99-1.53 0 .04.99 1.48.99 1.53 0Zm.93-2.5c.02-.99-1.5-.99-1.51 0 .03.98 1.51.98 1.51 0Zm-4.56-1.61c-.03-.99-1.5-.99-1.53 0 .04.98 1.48.98 1.53 0Zm7.54 3.26c-.02-.99-1.5-.98-1.51 0 .02.98 1.48.99 1.51 0Zm2.7 1.97c-.04-.98-1.48-.98-1.53 0 .02.99 1.5.99 1.53 0Zm1.87-2.75c-.05-.98-1.48-.98-1.53 0 .02.99 1.5.99 1.53 0Zm-2.22-1.98c-.04-.99-1.49-.99-1.53 0 .04.99 1.49.99 1.53 0Zm3.81-1c-.04-.99-1.48-.99-1.53 0 .04.99 1.49.99 1.53 0Zm-17.35-2.12c-.04-.99-1.49-.99-1.53 0 .04.99 1.49.99 1.53 0Zm-.72-3.44c-.03-.99-1.51-.99-1.51 0s1.48.99 1.51 0Zm3.96.84c0-.99-1.49-.99-1.51 0 .02.98 1.51.99 1.51 0Zm3.13 2.15c0-.99-1.49-.99-1.51 0 .03.99 1.51.99 1.51 0Zm3.43 1.06c0-.99-1.48-.99-1.51 0 .03.99 1.51.99 1.51 0Zm3.93-.82c-.03-.99-1.51-.99-1.51 0s1.48.99 1.51 0Zm3.62-1.6c-.03-.99-1.51-.99-1.51 0s1.48.99 1.51 0Zm-3.93-1.94c0-.98-1.48-.98-1.51 0 0 .99 1.53.99 1.51 0Zm-3.58.79c-.02-.99-1.5-.99-1.53 0 .04.98 1.49.98 1.53 0ZM74 86.37c-.03-.99-1.5-.99-1.53 0 .04.99 1.49.99 1.53 0Zm-.31-3.32c-.03-.99-1.49-.98-1.51 0 .01.98 1.49.99 1.51 0Zm3.11.09c-.03-.99-1.5-.99-1.53 0 .04.98 1.49.98 1.53 0Zm3.17-1.63c.02-.99-1.5-.99-1.51 0 .03.98 1.51.98 1.51 0Zm.76 2.66c-.01-.98-1.49-.99-1.51 0 .03.99 1.49.98 1.51 0Zm-2.29 2.66c-.01-.99-1.5-.99-1.51 0 .01.99 1.5.99 1.51 0Zm5.91-2.6c-.02-.98-1.48-.99-1.51 0 .02.99 1.5.98 1.51 0Zm3.08 1.03c-.04-.98-1.49-.99-1.53 0 .03.99 1.49.99 1.53 0Zm2.47 2.21c-.04-.98-1.49-.98-1.53 0 .03.99 1.5.99 1.53 0Zm2.31 3.51c-.03-.99-1.5-.99-1.51 0 0 .99 1.48.99 1.51 0Zm1.48-3.27c-.04-.99-1.48-.99-1.53 0 .04.99 1.48.99 1.53 0Zm2.45-3.15c-.03-.99-1.49-.98-1.51 0 .01.98 1.49.99 1.51 0Zm-3.36.46c-.03-.99-1.5-.99-1.51 0 0 .99 1.48.99 1.51 0Zm-2.59-2.23c-.04-.99-1.49-.99-1.53 0 .04.99 1.48.99 1.53 0Zm-13.38-3.42c-.04-.98-1.48-.98-1.53 0 .02.99 1.5.99 1.53 0Zm3.09-1.66c-.02-.99-1.52-.99-1.51 0 0 .99 1.48.99 1.51 0Zm-1.77-2.97c0-.98-1.49-.99-1.51 0 .02.99 1.51.99 1.51 0Zm3.04-.21c0-.99-1.49-.98-1.51 0 .02.99 1.52.99 1.51 0ZM86 76.1c0-.99-1.48-.99-1.51 0 .03.99 1.51.99 1.51 0Zm-2.87 3.37c-.03-.99-1.49-.98-1.51 0 .02.98 1.48.99 1.51 0Zm3.12 1.23c-.04-.99-1.49-.99-1.53 0 .04.99 1.49.99 1.53 0Zm2.4-1.99c-.04-.99-1.49-.99-1.53 0 .03.99 1.5.99 1.53 0Zm2.64-1.85c-.02-.99-1.5-.98-1.51 0 .02.98 1.48.99 1.51 0Zm-1.93-2.95c-.02-.99-1.52-.99-1.51 0 0 .99 1.49.98 1.51 0Zm5.33 4.34c-.03-.99-1.5-.99-1.53 0 .04.99 1.48.99 1.53 0Zm-2.38 2.02c-.04-.99-1.49-.98-1.53 0 .03.99 1.5.99 1.53 0Zm3.08 1.18c-.04-.99-1.48-.99-1.53 0 .03.99 1.5.99 1.53 0ZM82.8 70.52c-.03-.99-1.5-.99-1.53 0 .04.99 1.48.99 1.53 0Zm3.54 1.23c.01-.99-1.49-.99-1.51 0 .03.99 1.51.99 1.51 0Zm3.94-1.17c-.04-.99-1.48-.99-1.53 0 .04.99 1.49.99 1.53 0Zm4.35 1.54c-.03-.99-1.5-.99-1.53 0 .04.99 1.49.98 1.53 0Zm-11.88-5.89c-.02-.99-1.52-.99-1.51 0 0 .99 1.49.98 1.51 0Zm3.34 1.93c-.03-.97-1.51-.98-1.51 0-.01 1 1.5.99 1.51 0Zm2.83-1.21c0-.99-1.49-1-1.51 0 .04.98 1.49.97 1.51 0Zm3.17.21c-.02-.99-1.5-.99-1.53 0 .04.98 1.48.98 1.53 0Zm-4.66-2.92c-.03-.99-1.5-.99-1.53 0 .04.98 1.49.98 1.53 0Zm-3.26-1.06c-.02-.99-1.51-.99-1.51 0s1.48.99 1.51 0Zm5.27-1.61c-.03-.99-1.5-.99-1.53 0 .04.99 1.48.99 1.53 0Zm1.76 2.19c-.03-.99-1.5-.99-1.53 0 .04.99 1.49.98 1.53 0Zm1.68-2.21c-.03-.99-1.49-.99-1.53 0 .04.98 1.49.99 1.53 0Zm2.29 2.36c0-.98-1.48-.97-1.51 0 .02.99 1.52 1 1.51 0Zm0 3.93c0-.99-1.48-.99-1.51 0 .03.99 1.51.99 1.51 0Zm2.38 2.02c-.03-.99-1.49-.98-1.51 0 .02.98 1.48.99 1.51 0Zm2.53 1.12c-.02-.99-1.5-.99-1.53 0 .04.98 1.49.98 1.53 0Zm-.69-3.88c0-.98-1.49-.99-1.51 0 .02.99 1.51.99 1.51 0Zm-1.14-4.22c-.04-.98-1.49-.98-1.53 0 .03.99 1.5.99 1.53 0Zm-10.8-3.69c-.03-.98-1.5-.97-1.51 0 0 .99 1.49 1 1.51 0Zm3.83-.96c-.02-.99-1.5-.99-1.51 0 .02.98 1.48.99 1.51 0Zm4.05 1.45c0-.99-1.48-.99-1.51 0 .03.99 1.51.99 1.51 0Zm2.92-.57c-.04-.99-1.48-.99-1.53 0 .04.99 1.48.99 1.53 0Zm-2.32-2.58c0-.99-1.48-.99-1.51 0 .02.99 1.51.99 1.51 0Zm-5.74-2.21c-.03-.99-1.5-.99-1.53 0 .04.99 1.48.99 1.53 0Zm3.54-.02c0-.99-1.49-.99-1.51 0 .02.98 1.51.99 1.51 0Zm7.03.09c0-.99-1.48-.99-1.51 0 .02.99 1.52.99 1.51 0Zm3.38-1.3c-.04-.98-1.48-.98-1.53 0 .02.99 1.5.99 1.53 0Zm-4.72 3.35c-.04-.98-1.49-.98-1.53 0 .02.99 1.5.99 1.53 0Zm1.52 3.18c0-.99-1.48-.99-1.51 0 .02.99 1.52.99 1.51 0Zm1.86-2.76c-.02-.98-1.51-.99-1.51 0-.01.99 1.49.99 1.51 0Zm2.78 1.09c-.02-.99-1.51-.98-1.51 0 .03.98 1.47.99 1.51 0Zm1.21-2.96c-.04-.98-1.49-.97-1.51 0 0 .99 1.49 1 1.51 0Zm3.14 3.54c0-.99-1.48-.99-1.51 0 .03.99 1.51.99 1.51 0Zm-1.99 2.06c-.04-.99-1.48-.99-1.53 0 .04.99 1.48.99 1.53 0Zm-5.89 2.8c-.03-.99-1.5-.99-1.53 0 .04.98 1.49.98 1.53 0Zm2.44-2.36c-.02-.99-1.52-.99-1.51 0 0 .99 1.49.98 1.51 0Zm1.57 2.96c-.04-.98-1.48-.97-1.53 0 .03.99 1.5 1 1.53 0Zm-1.63 2.39c-.04-.98-1.49-.98-1.53 0 .02.99 1.5.99 1.53 0Zm6.03-3.04c-.04-.98-1.49-.98-1.53 0 .03.99 1.5.99 1.53 0Zm5.16 1.83c-.03-.99-1.5-.99-1.53 0 .04.99 1.48.99 1.53 0Zm3.06 4.62c-.04-.99-1.48-.99-1.53 0 .04.99 1.49.99 1.53 0Zm-2.91 3.9c-.01-.98-1.48-.98-1.51 0 .01.99 1.52.98 1.51 0Zm-.53-3.2c0-.99-1.49-.98-1.51 0 .02.99 1.52.99 1.51 0Zm-1.91-2.72c.01-.99-1.49-.99-1.51 0 .03.99 1.51.99 1.51 0Zm-2.71-1.48c-.03-.99-1.49-.99-1.53 0 .04.98 1.49.99 1.53 0Zm-2.96 1.08c-.02-.99-1.52-.99-1.51 0 0 .99 1.48.99 1.51 0Zm-4.31 1.97c-.03-.99-1.49-.98-1.51 0 .01.99 1.49.99 1.51 0Zm4.8 1.02c-.04-.99-1.49-.99-1.53 0 .04.99 1.48.99 1.53 0Zm3.52-.39c-.04-.98-1.49-.98-1.53 0 .02.99 1.5.99 1.53 0ZM94.7 75.18c-.03-.99-1.51-.99-1.51 0-.01.99 1.49.99 1.51 0Zm2.95-1.67c-.03-.98-1.51-.98-1.51 0-.02.99 1.5.99 1.51 0Zm2.98 1.29c0-.99-1.49-.99-1.51 0 .03.99 1.51.99 1.51 0Zm-3.1 2.98c-.04-.99-1.49-.99-1.53 0 .03.99 1.49.99 1.53 0Zm3.52.15c-.02-.99-1.52-.99-1.51 0 0 .99 1.48.99 1.51 0Zm2.99-2.45c-.03-.99-1.49-.99-1.53 0 .04.98 1.49.99 1.53 0Zm-.39-2.9c-.03-.99-1.51-.99-1.51 0-.01.99 1.49.99 1.51 0Zm3.31.69c-.03-.99-1.5-.99-1.51 0 0 .99 1.49.99 1.51 0Zm3.18 2.12c0-.99-1.48-.99-1.51 0 .02.99 1.51.99 1.51 0Zm2.87 1.02c0-.99-1.48-.99-1.51 0 .03.99 1.51.99 1.51 0Zm-6.46.16c0-.99-1.48-.99-1.51 0 .03.99 1.51.99 1.51 0Zm2.07 1.8c-.04-.99-1.49-.99-1.53 0 .04.99 1.48.99 1.53 0Zm-4.48.72c.02-.99-1.5-.99-1.51 0 .03.98 1.51.98 1.51 0Zm7.3-.08c-.04-.99-1.49-.99-1.53 0 .03.99 1.5.99 1.53 0Zm4.61-1.31c-.03-.99-1.51-.99-1.51 0s1.48.99 1.51 0ZM99.4 80.1c-.04-.99-1.48-.99-1.53 0 .03.99 1.5.99 1.53 0Zm-.9 2.63c-.02-.99-1.5-.99-1.53 0 .05.98 1.48.99 1.53 0Zm3.8-1.28c-.04-.99-1.48-.99-1.53 0 .03.99 1.5.99 1.53 0Zm4.31-.72c-.04-.98-1.49-.98-1.53 0 .02.99 1.5.99 1.53 0Zm3.13 1.43c-.03-.99-1.51-.98-1.51 0 0 .99 1.49.99 1.51 0Zm3.3 1.16c-.04-.99-1.48-.99-1.53 0 .03.99 1.5.99 1.53 0Zm1.55-3.04c0-.99-1.48-.99-1.51 0 .02.99 1.52.99 1.51 0ZM111.88 73c-.03-.99-1.5-.99-1.53 0 .04.99 1.49.99 1.53 0Zm6.4 2.5c-.04-.99-1.48-.98-1.53 0 .02.99 1.5.99 1.53 0Zm2.99-.32c-.03-.97-1.51-.98-1.51 0-.01 1 1.5.99 1.51 0Zm-.84 3.04c-.02-.98-1.51-.99-1.51 0-.02.99 1.5.99 1.51 0Zm-2.99 2.32c-.02-1-1.52-.99-1.51 0 .01.97 1.48.98 1.51 0Zm2.98.26c-.03-.99-1.49-.99-1.53 0 .04.99 1.49.99 1.53 0Zm4.23 1.28c-.03-.99-1.51-.99-1.51 0-.01.99 1.49.99 1.51 0Zm1.99 1.92c-.03-.99-1.49-.99-1.53 0 .04.99 1.49.99 1.53 0Zm-5.58-.39c-.02-.99-1.51-.99-1.51 0s1.48.99 1.51 0Zm-4.93-.71c-.04-.98-1.49-.99-1.53 0 .03.99 1.49.99 1.53 0Zm1.7 2.42c-.02-.98-1.51-.99-1.51 0-.02.99 1.5.99 1.51 0Zm-2.83.66c0-.99-1.53-.99-1.51 0 0 .98 1.48.98 1.51 0Zm2.62 2.27c-.03-.99-1.51-.99-1.51 0s1.48.99 1.51 0Zm2.72-1.18c-.04-.99-1.49-.99-1.53 0 .04.99 1.48.99 1.53 0Zm2.95-1.53c-.04-.98-1.49-.97-1.51 0 0 .99 1.49 1 1.51 0Zm2.13 1.75c0-.99-1.53-.99-1.51 0 0 .99 1.49.98 1.51 0Zm2.78 1.14c0-.99-1.48-.99-1.51 0 .02.99 1.52.99 1.51 0Zm-4.33.6c0-.98-1.49-.99-1.51 0 .02.99 1.51.99 1.51 0Zm-3.11 1.42c-.04-.98-1.49-.98-1.53 0 .02.99 1.5.99 1.53 0Zm-2.61 2.15c-.04-.99-1.49-.99-1.53 0 .04.99 1.48.99 1.53 0Zm4.71.22c-.02-.98-1.48-.99-1.51 0 .02.99 1.5.98 1.51 0Zm3.32-1.93c-.02-.99-1.5-.99-1.53 0 .04.98 1.48.98 1.53 0Zm3.56.21c0-.98-1.5-.99-1.51 0 .03.99 1.49.98 1.51 0Zm-1.99 2.22c-.02-.99-1.5-.99-1.53 0 .04.99 1.49.98 1.53 0Zm5.53 2.66c-.03-.99-1.49-.98-1.51 0 .01.98 1.49.99 1.51 0Zm-2.52-1.29c-.04-.99-1.49-.99-1.53 0 .04.99 1.49.99 1.53 0Zm-1.1 2.74c-.01-.98-1.49-.99-1.51 0 .03.99 1.49.98 1.51 0Zm4.04 2.36c-.03-.99-1.49-.98-1.51 0 .02.98 1.48.99 1.51 0Zm-4.62 1.21c-.04-.99-1.49-.99-1.53 0 .04.99 1.48.99 1.53 0Zm-2.33-4.69c-.04-.98-1.49-.98-1.53 0 .03.99 1.5.99 1.53 0Zm-3.13-.42c-.03-.99-1.49-.98-1.51 0 .02.98 1.48.99 1.51 0Zm-3.96-.27c.02-.99-1.5-.99-1.51 0 .02.98 1.51.99 1.51 0Zm-2.26 1.96c-.04-.99-1.49-.98-1.51 0 0 .98 1.5.99 1.51 0Zm-1.66 2.45c-.02-.98-1.48-.99-1.51 0 .02.99 1.5.98 1.51 0Zm2.96 1.49c-.02-.99-1.51-.98-1.51 0-.01.98 1.5.99 1.51 0Zm2.36-1.84c0-.99-1.48-.99-1.51 0 .03.99 1.51.99 1.51 0Zm3.28-.94c-.03-.99-1.5-.99-1.51 0 0 .99 1.49.99 1.51 0Zm.72 3.11c0-.99-1.49-.99-1.51 0 .02.99 1.51.98 1.51 0Zm1.58 2.29c-.04-.99-1.49-.99-1.53 0 .04.99 1.48.99 1.53 0Zm5.57-1.29c-.02-.99-1.51-.99-1.51 0s1.48.99 1.51 0Zm3.5.78c0-.99-1.49-.98-1.51 0 .02.99 1.52.99 1.51 0Zm2.26 3.2c-.04-.99-1.49-.99-1.53 0 .03.99 1.49.99 1.53 0Zm-2.98-.03c-.04-.99-1.48-.99-1.53 0 .04.99 1.48.99 1.53 0Zm2.2 3.36c-.02-.98-1.51-.99-1.51 0s1.49.99 1.51 0Zm-5.06-3.12c-.04-.98-1.49-.99-1.53 0 .03.99 1.49.99 1.53 0Zm1.51 3.41c-.04-.99-1.49-.99-1.53 0 .04.99 1.48.99 1.53 0Zm-3.66-.5c-.03-.99-1.49-.98-1.51 0 0 .98 1.5.99 1.51 0Zm-2.77-1.58c-.03-.99-1.5-.99-1.51 0 0 .99 1.48.99 1.51 0Zm2.01-3.05c-.03-.99-1.51-.99-1.51 0s1.48.99 1.51 0Zm-6.81-1.63c-.02-.99-1.51-.98-1.51 0 .03.98 1.47.99 1.51 0Zm-4.04.76c-.03-.98-1.5-.98-1.51 0-.01.99 1.5.99 1.51 0Zm2.83 2.13c-.04-.99-1.49-.98-1.51 0 .02.98 1.48.99 1.51 0Zm3.17.44c-.04-.99-1.48-.99-1.53 0 .03.99 1.5.99 1.53 0Zm-2.34 2.32c0-.99-1.49-.99-1.51 0 .02.98 1.51.99 1.51 0Zm3.25 2.6c-.03-.99-1.51-.99-1.51 0s1.48.99 1.51 0Zm-9.74-8.29c-.03-.98-1.51-.98-1.51 0-.02.99 1.5.99 1.51 0Zm2.28 3.93c0-.99-1.48-.99-1.51 0 .03.99 1.51.99 1.51 0Zm1.06 2.45c-.04-.99-1.48-.99-1.53 0 .04.99 1.49.99 1.53 0Zm-3.11-.81c-.03-.99-1.49-.98-1.51 0 .01.99 1.49.99 1.51 0Zm24.98 3.25c-.04-.99-1.49-.99-1.53 0 .04.99 1.48.99 1.53 0Zm2.32 2.76c-.01-.99-1.49-.99-1.51 0 .03.99 1.49.98 1.51 0Zm.67 3.87c-.04-.99-1.49-.99-1.53 0 .04.99 1.48.99 1.53 0Zm-3.87-2.84c-.02-.99-1.51-.98-1.51 0 .02.98 1.48.99 1.51 0Zm-.5 2.84c-.04-.99-1.48-.99-1.53 0 .04.99 1.49.99 1.53 0Zm-4.34.03c0-.99-1.48-.99-1.51 0 .02.99 1.51.99 1.51 0Zm-4.33-.03c-.04-.99-1.49-.99-1.53 0 .04.99 1.49.99 1.53 0Zm1.7-2.55c-.03-.99-1.49-.98-1.51 0 .01.98 1.49.99 1.51 0Zm4.07-1.66c0-.99-1.48-.99-1.51 0 .03.99 1.51.99 1.51 0Zm-4.04-1.36c0-.99-1.49-.98-1.51 0 .02.99 1.52.99 1.51 0Zm-3.15 2.06c-.03-.99-1.5-.99-1.53 0 .04.98 1.48.98 1.53 0Zm-.72-2.51c-.03-.99-1.51-.99-1.51 0s1.48.99 1.51 0Zm-2.52 1.82c-.02-.99-1.5-.98-1.51 0 .02.98 1.48.99 1.51 0Zm.32 4.2c-.03-.99-1.5-.99-1.51 0 0 .99 1.48.99 1.51 0Zm-2.65-1.82c-.04-.99-1.48-.99-1.53 0 .04.99 1.49.99 1.53 0Zm-1.68 1.84c-.03-.99-1.5-.99-1.51 0 0 .99 1.49.99 1.51 0Zm-.37-3.87c-.04-.99-1.48-.99-1.53 0 .03.99 1.5.99 1.53 0Zm-.04-3.07c0-.99-1.53-.99-1.51 0 0 .98 1.48.98 1.51 0Zm-3.34.94c-.03-.99-1.49-.98-1.51 0 .01.98 1.49.99 1.51 0Zm.6 2.96c-.04-.99-1.48-.99-1.53 0 .04.99 1.49.99 1.53 0Zm-1.17 3.05c-.04-.99-1.48-.99-1.53 0 .03.99 1.5.99 1.53 0Zm-1.72-1.96c-.03-.97-1.51-.98-1.51 0-.01 1 1.5.99 1.51 0Zm-1.11-2.97c-.02-.99-1.5-.99-1.53 0 .04.99 1.49.98 1.53 0Zm-1.48-2.72c-.03-.99-1.49-.98-1.51 0 .01.98 1.49.99 1.51 0Zm-.06 7.65c-.04-.99-1.48-.99-1.53 0 .03.99 1.5.99 1.53 0Zm-1.82-2.46c-.04-.99-1.49-.99-1.53 0 .04.99 1.48.99 1.53 0Zm.01-2.57c-.04-.98-1.49-.98-1.53 0 .03.99 1.5.99 1.53 0Zm-.24-4.41c0-.99-1.48-.99-1.51 0 .02.99 1.51.99 1.51 0Zm-3.66.13c-.03-.99-1.51-.99-1.51 0s1.48.99 1.51 0Zm1.53 2.41c0-.99-1.49-.99-1.51 0 .02.98 1.51.99 1.51 0Zm-.93 4.03c-.02-.99-1.5-.99-1.53 0 .04.99 1.49.98 1.53 0Zm.81 2.87c-.03-.99-1.51-.99-1.51 0s1.49.99 1.51 0Zm-4.3 0c-.04-.99-1.48-.99-1.53 0 .03.99 1.5.99 1.53 0Zm-1.49-2.97c0-.98-1.49-.99-1.51 0 .02.99 1.51.99 1.51 0Zm2.57-2.29c-.03-.99-1.51-.99-1.51 0s1.48.99 1.51 0Zm-1.2-2.17c-.03-.99-1.5-.99-1.51 0 0 .99 1.49.99 1.51 0Zm-2.35-1.36c-.04-.99-1.49-.99-1.53 0 .04.99 1.48.99 1.53 0Zm-.77 3.82c-.04-.98-1.49-.99-1.53 0 .02.99 1.5.99 1.53 0Zm-1.11 4.94c-.03-.99-1.51-.99-1.51 0s1.48.99 1.51 0Zm-1-7.19c-.04-.99-1.49-.99-1.53 0 .03.99 1.49.99 1.53 0Zm-.87 3.76c0-.99-1.49-.99-1.51 0 .03.99 1.5.99 1.51 0Zm-2.48 3.45c-.04-.99-1.48-.99-1.53 0 .04.99 1.49.99 1.53 0Zm-.35-4.55c-.02-.98-1.47-.99-1.51 0 .02.99 1.51.98 1.51 0Zm.81-3.37c0-.99-1.49-1-1.51 0 .04.98 1.49.97 1.51 0Zm15.41-4.97c-.02-.98-1.48-.99-1.51 0 .02.99 1.5.98 1.51 0Zm2.94.35c-.04-.99-1.48-.99-1.53 0 .04.99 1.49.99 1.53 0Zm-36.29 16.23c0-.99-1.48-.99-1.51 0 .03.99 1.51.99 1.51 0Zm-2.16-1.11c-.03-.97-1.51-.98-1.51 0-.01 1 1.5.99 1.51 0Zm3.39-1.55c0-.99-1.49-.99-1.51 0 .02.98 1.51.99 1.51 0Zm1.93 1.49c-.04-.99-1.48-.99-1.53 0 .04.99 1.49.99 1.53 0Zm1.98-1.79c-.04-.99-1.49-.99-1.53 0 .03.99 1.5.99 1.53 0Zm1.79-1.7c-.02-.99-1.5-.98-1.51 0 .02.98 1.48.99 1.51 0Zm1.69-1.96c-.04-.99-1.48-.99-1.53 0 .04.99 1.49.99 1.53 0Zm-3.9.19c-.04-.99-1.49-.99-1.53 0 .04.99 1.49.99 1.53 0ZM81.29 118c-.04-.99-1.48-.99-1.53 0 .04.99 1.49.99 1.53 0Zm-3.44.37c-.03-.99-1.5-.99-1.53 0 .04.99 1.49.99 1.53 0Zm-2.83.75c-.02-.99-1.5-.99-1.53 0 .05.98 1.48.98 1.53 0Zm1.46-3.54c-.02-.99-1.51-.98-1.51 0-.01.99 1.5.99 1.51 0Zm.77-2.37c-.02-.99-1.5-.99-1.53 0 .05.98 1.48.99 1.53 0Zm2.24 1.78c-.03-.99-1.5-.99-1.53 0 .04.99 1.49.98 1.53 0Zm.65-3.44c-.03-.99-1.5-.99-1.51 0 0 .99 1.49.99 1.51 0Zm2.06 2.23c-.04-.98-1.49-.98-1.53 0 .03.99 1.5.99 1.53 0Zm3.29.45c-.02-.99-1.5-.99-1.53 0 .04.98 1.49.99 1.53 0Zm2.89-.93c-.03-.99-1.51-.99-1.51 0-.01.99 1.49.99 1.51 0Zm-1.9-2.1c-.03-.99-1.5-.99-1.53 0 .04.98 1.48.98 1.53 0Zm-2.61-.27c-.04-.99-1.48-.99-1.53 0 .03.99 1.5.99 1.53 0Zm-1.88-1.57c-.03-.99-1.51-.99-1.51 0-.01.99 1.49.99 1.51 0Zm6.52.95c-.03-.84-1.23-.84-1.26 0 .03.82 1.23.82 1.26 0Zm-3.32-2.18c-.03-.84-1.23-.84-1.26 0 0 .81 1.25.81 1.26 0Zm3.5-.22c-.03-.83-1.24-.84-1.27 0 0 .81 1.27.81 1.27 0Zm2.19-.77c0-.81-1.27-.81-1.27 0s1.27.81 1.27 0Zm1-1.57c-.03-.82-1.21-.81-1.27 0 .06.83 1.23.84 1.27 0Zm1.93-.22c0-.81-1.25-.81-1.26 0 .03.84 1.23.84 1.26 0Zm1.13-1.63c0-.81-1.25-.81-1.26 0 0 .81 1.25.81 1.26 0Zm1.99-.07c0-.81-1.25-.81-1.26 0 0 .81 1.25.81 1.26 0Zm.95-1.71c-.06-.81-1.24-.82-1.27 0 .04.83 1.21.82 1.27 0Zm2.2.23c0-.81-1.25-.81-1.26 0 0 .81 1.25.81 1.26 0Zm2.3-.62c0-.81-1.27-.81-1.27 0s1.27.81 1.27 0Zm2.89 3.14c-.61.53-1.54 1.52-2.32 1.78-1.33.55-2.97.17-3.92-.91-1.62 1.63-3.01 2.77-4.74.46 2.54-1.41 5.24-3.15 8.23-3.2 1.29-.11 2.06.97 2.75 1.87Z"/><path class="d" d="M112.15 99.3c4.97-7.35-1.62-17.05-10.28-15.16-2.62.57-5.02 2.29-6.36 4.62-.81 1.37-1.12 3.09-1.9 4.47-.68 1.25-1.68 2.49-2.72 3.45-.95.88-2.55 1.96-1.81 3.48.04.34 2.82 3.19 3.07 3.51 3.05-1.89 6.87-4.9 10.59-3.14 1.59 1.07 2.29 2.98 3.26 4.54.53.83 1.56.67 2.18.03l.18-.22 3.78-5.59ZM91.2 116.94c1.57-2.73 1.64-6.26.21-9.06-.49.35-1.46 1.06-1.94 1.42 1.66 5.65-3.51 12.2-8.54 14.31-7.03 2.84-10.08-3.07-7.11-9.06 2.13-4.52 8.33-10.13 13.6-7.7l2.17-1.49c-4.36-4.47-12.29-3.38-15.24 2.14l-16.98 30.27c-.15.31-.49.97-.61 1.3a9.88 9.88 0 0 0-.37 5.67c.77 3.28 3.35 6.05 6.58 7.01.87.24 1.92.44 2.83.42.82-.09 65.86.1 66.66-.03 3.89-.26 6.55-4.71 4.97-8.27-.67-1.62-2.12-2.94-3.8-3.45-.52-.14-1.21-.25-1.75-.25H78.21l13.01-23.22Z"/><path d="M108.57 98.56c-.01-1.45-2.2-1.45-2.21 0 .05 1.44 2.17 1.44 2.21 0Zm-4.81 52.91c3.39 1.86 7.88-.24 8.62-4.03.43-1.97-.24-4.16-1.71-5.54-.35-.35-.9-.73-1.33-.97l-19.91-10.54v-10.25l-1.42 2.51v8.6c1.11.86 22.47 11.18 22.41 12.55 1.87 2.85-.28 6.9-3.69 6.96-1.58.59-24.63-12.5-26.21-13.3-2.26-1.61-1.49-5.7-1.61-8.04H77.5c.09 2.53-.54 6.55 1.5 8.51l.38.38c.34.34.88.71 1.31.94l23.09 12.23Z" style="fill-rule:evenodd;fill:#f3c736"/><path class="d" d="M104.42 150.22c2.46 1.36 5.79-.07 6.52-2.78.43-1.53 0-3.28-1.12-4.41-.3-.3-.76-.65-1.13-.86l-20.68-10.94v-8.6l-9.1 6.77c.13 1.92-.49 5.76.93 7.32-.41.85 23.88 12.85 24.58 13.49Z"/></svg>