<svg xmlns="http://www.w3.org/2000/svg" viewBox="0 0 198.56 173.648" style="enable-background:new 0 0 198.56 173.648" xml:space="preserve"><path style="fill-rule:evenodd;clip-rule:evenodd;stroke:#000;stroke-width:.1276;stroke-miterlimit:2.6131" d="m197.704 164.944-93.456-162-.576-.864-.72-.648-.792-.576-.936-.432-.936-.288L99.28.064l-1.008.072-1.008.288-.864.432-.864.576-.648.648-.576.864-93.456 162-.432.936-.288.936-.072 1.008.072 1.008.288 1.008.432.864.576.864.648.648.864.576.864.432 1.008.288 1.008.072h186.912l1.008-.072.936-.288.936-.432.792-.576.72-.648.576-.864.432-.864.288-1.008.072-1.008-.072-1.008-.288-.936-.432-.936z"/><path style="fill-rule:evenodd;clip-rule:evenodd;fill:#f3c736;stroke:#000;stroke-width:.1276;stroke-miterlimit:2.6131" d="m99.28 18.136 82.8 143.568H16.48l82.8-143.568z"/><path style="fill-rule:evenodd;clip-rule:evenodd" d="M99.281 112.593a5.318 5.318 0 0 0 0-10.634 5.318 5.318 0 0 0 0 10.634z"/><path style="fill:none;stroke:#000;stroke-width:6.0001;stroke-miterlimit:2.6131" d="M117.317 124.358a24.76 24.76 0 0 0 6.805-17.082c0-6.712-2.661-12.8-6.988-17.27m7.765 41.293c5.897-6.225 9.512-14.63 9.512-23.88 0-9.383-3.72-17.895-9.766-24.145M110 117.156a14.233 14.233 0 0 0 3.913-9.82c0-3.859-1.531-7.36-4.018-9.928m-28.652 26.95a24.76 24.76 0 0 1-6.804-17.082c0-6.712 2.661-12.8 6.986-17.27m-7.764 41.293c-5.896-6.225-9.513-14.63-9.513-23.88 0-9.383 3.721-17.895 9.767-24.145m14.646 33.882a14.232 14.232 0 0 1-3.912-9.82c0-3.859 1.531-7.36 4.016-9.928"/><path style="fill-rule:evenodd;clip-rule:evenodd" d="m112.573 155.003-9.305-37.217h-7.976l-9.303 37.217h26.584z"/></svg>