<svg xmlns="http://www.w3.org/2000/svg" viewBox="0 0 198.56 173.648" style="enable-background:new 0 0 198.56 173.648" xml:space="preserve"><path style="fill-rule:evenodd;clip-rule:evenodd;stroke:#000;stroke-width:.1276;stroke-miterlimit:2.6131" d="m197.704 164.944-93.456-162-.576-.864-.72-.648-.792-.576-.936-.432-.936-.288L99.28.064l-1.008.072-1.008.288-.864.432-.864.576-.648.648-.576.864-93.456 162-.432.936-.288.936-.072 1.008.072 1.008.288 1.008.432.864.576.864.648.648.864.576.864.432 1.008.288 1.008.072h186.912l1.008-.072.936-.288.936-.432.792-.576.72-.648.576-.864.432-.864.288-1.008.072-1.008-.072-1.008-.288-.936-.432-.936z"/><path style="fill-rule:evenodd;clip-rule:evenodd;fill:#f3c736;stroke:#000;stroke-width:.1276;stroke-miterlimit:2.6131" d="m99.28 18.136 82.8 143.568H16.48l82.8-143.568z"/><path style="fill:none;stroke:#000;stroke-width:6.3873;stroke-miterlimit:2.6131" d="M99.256 74.279v78.948M86.637 82.162l12.618 12.605 12.617-12.605m-25.235 64.497 12.618-12.607 12.617 12.607"/><path style="fill-rule:evenodd;clip-rule:evenodd" d="M99.256 123.152c5.193 0 9.405-4.208 9.405-9.399 0-5.19-4.212-9.397-9.405-9.397-5.195 0-9.407 4.207-9.407 9.397 0 5.191 4.212 9.399 9.407 9.399z"/><path style="fill:none;stroke:#000;stroke-width:6.3873;stroke-miterlimit:2.6131" d="m65.038 94.017 68.434 39.472M65.56 108.874l17.237-4.614-4.617-17.22m43.29 54.084-4.618-17.22 17.237-4.615m-69.051 14.2 68.434-39.471m-55.293 46.448 4.617-17.22-17.236-4.615m68.529-10.413-17.237-4.615 4.618-17.219"/></svg>