<svg width="113" height="99" xmlns="http://www.w3.org/2000/svg" xmlns:xlink="http://www.w3.org/1999/xlink" xml:space="preserve" overflow="hidden"><g transform="translate(-414 -765)"><path d="M112.548 94.0913 59.099 1.50667C58.5528 0.565 57.5547 0 56.4812 0 55.4077 0 54.4095 0.583833 53.8633 1.50667L0.414333 94.0913C-0.131833 95.033-0.131833 96.1818 0.414333 97.1047 0.9605 98.0463 1.95867 98.6113 3.03217 98.6113L109.93 98.6113C111.004 98.6113 112.002 98.0275 112.548 97.1047 113.094 96.163 113.094 95.0142 112.548 94.0913Z" transform="matrix(1 0 0 1.00126 414 765)"/><path d="M8.23977 92.3042 56.3169 9.05201 104.394 92.3042Z" fill="#F6BD16" transform="matrix(1.00283 0 0 1 414.024 765.383)"/><path d="M73.0383 63.9642C73.0383 72.7479 65.9177 79.8686 57.1339 79.8686 48.3502 79.8686 41.2296 72.7479 41.2296 63.9642 41.2296 55.1805 48.3502 48.0599 57.1339 48.0599 65.9176 48.0599 73.0383 55.1805 73.0383 63.9642Z" stroke="#000000" stroke-width="1.43436" fill="none" transform="matrix(1 0 0 1.00126 413.416 765)"/><path d="M51.1133 49.3851 51.1133 40.8487 63.1585 40.8487 63.1585 49.3851" stroke="#000000" stroke-width="1.4125" fill="none" fill-rule="evenodd" transform="matrix(1 0 0 1.00126 413.416 765)"/><path d="M41.2972 48.0005 45.8993 52.6028" stroke="#000000" stroke-width="1.4125" fill="none" fill-rule="evenodd" transform="matrix(1 0 0 1.00126 413.416 765)"/><path d="M72.9854 47.7804 68.2047 52.561" stroke="#000000" stroke-width="1.4125" fill="none" fill-rule="evenodd" transform="matrix(1 0 0 1.00126 413.416 765)"/><path d="M79.7076 64.4155 73.004 64.4155" stroke="#000000" stroke-width="1.4125" fill="none" fill-rule="evenodd" transform="matrix(1 0 0 1.00126 413.416 765)"/><path d="M34.4595 64.4155 41.1631 64.4155" stroke="#000000" stroke-width="1.4125" fill="none" fill-rule="evenodd" transform="matrix(1 0 0 1.00126 413.416 765)"/><path d="M41.5057 80.7264 46.2667 75.9654" stroke="#000000" stroke-width="1.4125" fill="none" fill-rule="evenodd" transform="matrix(1 0 0 1.00126 413.416 765)"/><path d="M56.9787 87.6678 56.9787 80.0217" stroke="#000000" stroke-width="1.4125" fill="none" fill-rule="evenodd" transform="matrix(1 0 0 1.00126 413.416 765)"/><path d="M73.0824 80.7283 67.8983 75.5445" stroke="#000000" stroke-width="1.4125" fill="none" fill-rule="evenodd" transform="matrix(1 0 0 1.00126 413.416 765)"/><path d="M41.6382 59.1303 43.8636 59.1303 43.8636 66.4318C43.8636 67.5659 43.8913 68.3047 43.9465 68.6481 44.0446 69.2426 44.2775 69.7025 44.6454 70.0274 45.0192 70.3523 45.5098 70.5148 46.1166 70.5148 46.6317 70.5148 47.0515 70.4014 47.3766 70.1745 47.7014 69.9415 47.9222 69.6229 48.0386 69.2181 48.1612 68.8074 48.2226 67.9307 48.2226 66.5881L48.2226 59.1303 50.4571 59.1303 50.4571 66.211C50.4571 68.0196 50.359 69.3285 50.163 70.1378 49.9727 70.9408 49.5375 71.5938 48.8571 72.0964 48.1826 72.5931 47.2907 72.8413 46.181 72.8413 45.0284 72.8413 44.1273 72.636 43.4775 72.2253 42.8338 71.8083 42.3646 71.226 42.0705 70.4781 41.7823 69.724 41.6382 68.3384 41.6382 66.3214L41.6382 59.1303Z" transform="matrix(1 0 0 1.00126 418.696 763.532)"/><path d="M55.6252 72.6115 51.6802 59.1303 54.0988 59.1303 56.8944 69.1078 59.5979 59.1303 61.9705 59.1303 58.0163 72.6115 55.6252 72.6115Z" transform="matrix(1 0 0 1.00126 418.696 763.532)"/></g></svg>