<svg xmlns="http://www.w3.org/2000/svg" viewBox="0 0 198.56 173.648" style="enable-background:new 0 0 198.56 173.648" xml:space="preserve"><path style="fill-rule:evenodd;clip-rule:evenodd;stroke:#000;stroke-width:.1276;stroke-miterlimit:2.6131" d="m197.704 164.944-93.456-162-.576-.864-.72-.648-.792-.576-.936-.432-.936-.288L99.28.064l-1.008.072-1.008.288-.864.432-.864.576-.648.648-.576.864-93.456 162-.432.936-.288.936-.072 1.008.072 1.008.288 1.008.432.864.576.864.648.648.864.576.864.432 1.008.288 1.008.072h186.912l1.008-.072.936-.288.936-.432.792-.576.72-.648.576-.864.432-.864.288-1.008.072-1.008-.072-1.008-.288-.936-.432-.936z"/><path style="fill-rule:evenodd;clip-rule:evenodd;fill:#f3c736;stroke:#000;stroke-width:.1276;stroke-miterlimit:2.6131" d="m99.28 18.136 82.8 143.568H16.48l82.8-143.568z"/><path style="fill-rule:evenodd;clip-rule:evenodd;stroke:#000;stroke-width:.216;stroke-miterlimit:2.6131" d="m115.576 113.806-.073-1.834-.33-1.797-.514-1.761-.698-1.687-.881-1.614-1.065-1.468-1.211-1.394-1.358-1.211-1.468-1.064-1.615-.88-1.689-.697-1.761-.514-1.799-.293-1.835-.11-1.798.11-1.835.293-1.725.514-1.689.697-1.615.88-1.505 1.064-1.358 1.211-1.212 1.394-1.064 1.468-.881 1.614-.697 1.687-.514 1.761-.294 1.797-.11 1.834.11 1.798.294 1.834.514 1.724.697 1.688.881 1.614 1.064 1.504 1.212 1.357 1.358 1.211 1.505 1.064 1.615.881 1.689.697 1.725.514 1.835.293 1.798.11 1.835-.11 1.799-.293 1.761-.514 1.689-.697 1.615-.881 1.468-1.064 1.358-1.211 1.211-1.357 1.065-1.504.881-1.614.698-1.688.514-1.724.33-1.834.073-1.798zm-26.281 17.939 2.166 1.1 2.275.917 2.312.697 2.349.514 2.423.33 2.423.11 2.423-.073 2.422-.293 2.349-.477 2.349-.697 2.239-.844 2.202-1.064 2.093-1.247 1.945-1.394 1.872-1.577 1.725-1.724 1.542-1.834 1.432-1.981 1.211-2.091 1.065-2.164.881-2.275.697-2.311.477-2.384.294-2.421.073-2.421-.11-2.421-.33-2.421-.514-2.348-.698-2.311-.917-2.275-1.064-2.164-1.285-2.055-1.431-1.981-1.578-1.835-1.726-1.688-1.872-1.541-2.019-1.358-2.092-1.21-2.203-1.064-2.276-.844-2.312-.624L108.565 82l2.129.55 2.056.734 1.982.917 1.908 1.064 1.799 1.247 1.688 1.394 1.542 1.541 1.431 1.651 1.248 1.797 1.101 1.908.918 1.944.771 2.055.55 2.128.404 2.164.183 2.165v2.201l-.22 2.164-.367 2.165-.587 2.091-.734 2.055-.954 1.981-1.101 1.908-1.285 1.761-1.394 1.688-1.579 1.54-1.688 1.358-1.798 1.247-1.909 1.064-1.982.917 1.432-1.394 1.321-1.504 1.175-1.614.991-1.761.844-1.834.624-1.871.441-1.981.257-1.981.073-1.981-.147-2.421-.331-2.421-.55-2.348-.734-2.311-.918-2.275-1.101-2.128-1.285-2.054-1.468-1.944-1.615-1.834-1.725-1.688-1.909-1.504-2.019-1.357-2.092-1.211-2.203-.99-2.276-.807-2.349-.66-2.386-.403-2.423-.257h-2.422l-2.422.147-2.386.367-2.386.587-2.276.77-2.239.954-2.129 1.138-2.056 1.32-1.908 1.468-1.799 1.614-1.652 1.797-1.505 1.908-1.322 2.018-1.175 2.128-.991 2.238-.771 2.274-.624 2.348-.367 2.384-.22 2.421v2.421l.22 2.421.404 2.421.587 2.347 4.258-.697-.587-2.091-.403-2.164-.22-2.165v-2.201l.183-2.164.367-2.165.551-2.127.734-2.055.918-1.981 1.064-1.907 1.248-1.797 1.431-1.687 1.542-1.541 1.652-1.394 1.799-1.248 1.909-1.1 1.982-.917 2.055-.734 2.129-.55 2.129-.403 2.202-.147h2.166l2.202.22 2.129.367 2.129.586 2.056.771 1.945.954 1.909 1.1 1.762 1.284-1.909-.551-1.982-.403-1.982-.183h-2.019l-1.982.22-1.982.367-1.909.587-1.835.771-1.799.954-2.019 1.321-1.908 1.504-1.762 1.651-1.652 1.798-1.468 1.944-1.322 2.018-1.138 2.128-.954 2.238-.771 2.311-.587 2.348-.367 2.421-.147 2.385v2.458l.22 2.384.44 2.384.624 2.348.844 2.311.991 2.201 1.175 2.091 1.358 2.018 1.542 1.907 1.652 1.724 1.835 1.614 1.945 1.467 2.055 1.284 2.166 1.1 2.239.954 2.312.734 2.349.55 2.386.33 2.423.147 2.422-.073 2.423-.257 2.386-.477 2.349-.624 2.276-.88 2.166-1.027 2.092-1.211 2.019-1.394 1.872-1.541 1.725-1.688-2.716-3.338-1.542 1.541-1.652 1.431-1.762 1.284-1.908 1.1-1.982.954-2.056.734-2.092.587-2.166.403-2.166.184h-2.202l-2.166-.184-2.166-.367-2.092-.55-2.056-.77-1.982-.917-1.908-1.101-1.799-1.247-1.652-1.431-1.541-1.54-1.395-1.688-1.248-1.797-1.101-1.908-.881-1.981-.734-2.054-.551-2.128-.367-2.164-.183-2.165.036-2.201.22-2.164.478 1.944.624 1.908.844 1.798L82.062 125l1.138 1.614 1.358 1.504 1.468 1.357 1.579 1.248 1.69 1.022z"/></svg>