<svg width="113" height="99" xmlns="http://www.w3.org/2000/svg" xmlns:xlink="http://www.w3.org/1999/xlink" xml:space="preserve" overflow="hidden"><g transform="translate(-386 -276)"><path d="M112.488 93.8482 59.3165 1.67281 58.9865 1.18349 58.5769 0.813647 58.1274 0.489326 57.5925 0.238973 57.0634 0.0796577 56.4887 0.034139 55.914 0.0796577 55.3394 0.238973 54.85 0.489326 54.3607 0.813647 53.9909 1.18349 53.6609 1.67281 0.489326 93.8482 0.238973 94.383 0.0796577 94.9179 0.034139 95.4868 0.0796577 96.0615 0.238973 96.6362 0.489326 97.1255 0.813647 97.6205 1.18349 97.9904 1.67281 98.3147 2.16783 98.5593 2.7425 98.7244 3.31149 98.7642 109.666 98.7642 110.235 98.7244 110.77 98.5593 111.305 98.3147 111.754 97.9904 112.164 97.6205 112.488 97.1255 112.738 96.6362 112.898 96.0615 112.943 95.4868 112.898 94.9179 112.738 94.383 112.488 93.8482 112.488 93.8482Z" stroke="#000000" stroke-width="0.0739679" stroke-miterlimit="2.61" fill-rule="evenodd" transform="matrix(1 0 0 1.00198 386.011 276)"/><path d="M56.4887 10.3214 103.601 92.0047 9.37685 92.0047 56.4887 10.3214 56.4887 10.3214Z" stroke="#000000" stroke-width="0.0739679" stroke-miterlimit="2.61" fill="#F3C736" fill-rule="evenodd" transform="matrix(1 0 0 1.00198 386.011 276)"/><path d="M63.197 64.0903 70.4231 55.1004C70.7929 54.6452 70.1898 54.0421 69.7346 54.4119L60.7447 61.638C58.2582 63.6408 54.7135 63.6408 52.227 61.638L43.2371 54.4119C42.7819 54.0421 42.1788 54.6452 42.5486 55.1004L49.7747 64.0903C51.7775 66.5768 51.7775 70.1215 49.7747 72.608L42.5486 81.598C42.1788 82.0531 42.7819 82.6563 43.2371 82.2864L52.227 75.0603C54.7135 73.0575 58.2582 73.0575 60.7447 75.0603L69.7346 82.2864C70.1898 82.6563 70.7929 82.0531 70.4231 81.598L63.197 72.608C61.1942 70.1215 61.1942 66.5768 63.197 64.0903Z" transform="matrix(1 0 0 1.00198 386.011 276)"/><path d="M44.0507 54.2981C44.0507 55.1874 43.3298 55.9083 42.4405 55.9083 41.5512 55.9083 40.8303 55.1874 40.8303 54.2981 40.8303 53.4088 41.5512 52.6879 42.4405 52.6879 43.3298 52.6879 44.0507 53.4088 44.0507 54.2981Z" transform="matrix(1 0 0 1.00198 386.011 276)"/><path d="M48.8928 54.2981C48.8928 57.8616 46.004 60.7504 42.4405 60.7504 38.877 60.7504 35.9882 57.8616 35.9882 54.2981 35.9882 50.7346 38.877 47.8458 42.4405 47.8458 46.004 47.8458 48.8928 50.7346 48.8928 54.2981Z" stroke="#000000" stroke-width="0.568984" stroke-miterlimit="10" fill="none" transform="matrix(1 0 0 1.00198 386.011 276)"/><path d="M76.9892 54.2981C76.9892 57.8616 74.1004 60.7504 70.5369 60.7504 66.9734 60.7504 64.0846 57.8616 64.0846 54.2981 64.0846 50.7346 66.9734 47.8458 70.5369 47.8458 74.1004 47.8458 76.9892 50.7346 76.9892 54.2981Z" stroke="#000000" stroke-width="0.568984" stroke-miterlimit="10" fill="none" transform="matrix(1 0 0 1.00198 386.011 276)"/><path d="M76.9892 82.4002C76.9892 85.9637 74.1004 88.8525 70.5369 88.8525 66.9734 88.8525 64.0846 85.9637 64.0846 82.4002 64.0846 78.8367 66.9734 75.9479 70.5369 75.9479 74.1004 75.9479 76.9892 78.8367 76.9892 82.4002Z" stroke="#000000" stroke-width="0.568984" stroke-miterlimit="10" fill="none" transform="matrix(1 0 0 1.00198 386.011 276)"/><path d="M48.944 82.4002C48.944 85.9637 46.0552 88.8525 42.4917 88.8525 38.9282 88.8525 36.0394 85.9637 36.0394 82.4002 36.0394 78.8367 38.9282 75.9479 42.4917 75.9479 46.0552 75.9479 48.944 78.8367 48.944 82.4002Z" stroke="#000000" stroke-width="0.568984" stroke-miterlimit="10" fill="none" transform="matrix(1 0 0 1.00198 386.011 276)"/><path d="M72.1471 54.2981C72.1471 55.1874 71.4262 55.9083 70.5369 55.9083 69.6476 55.9083 68.9267 55.1874 68.9267 54.2981 68.9267 53.4088 69.6476 52.6879 70.5369 52.6879 71.4262 52.6879 72.1471 53.4088 72.1471 54.2981Z" transform="matrix(1 0 0 1.00198 386.011 276)"/><path d="M72.1471 82.4002C72.1471 83.2895 71.4262 84.0104 70.5369 84.0104 69.6476 84.0104 68.9267 83.2895 68.9267 82.4002 68.9267 81.5109 69.6476 80.79 70.5369 80.79 71.4262 80.79 72.1471 81.5109 72.1471 82.4002Z" transform="matrix(1 0 0 1.00198 386.011 276)"/><path d="M44.1019 82.4002C44.1019 83.2895 43.381 84.0104 42.4917 84.0104 41.6024 84.0104 40.8815 83.2895 40.8815 82.4002 40.8815 81.5109 41.6024 80.79 42.4917 80.79 43.381 80.79 44.1019 81.5109 44.1019 82.4002Z" transform="matrix(1 0 0 1.00198 386.011 276)"/><path d="M42.4405 54.3095C43.7662 55.4361 37.7691 58.9809 37.7691 58.9809 37.7691 58.9809 41.3139 52.9838 42.4405 54.3095Z" transform="matrix(1 0 0 1.00198 386.011 276)"/><path d="M42.4348 54.2867C41.1091 53.1601 47.1062 49.6154 47.1062 49.6154 47.1062 49.6154 43.5614 55.6125 42.4348 54.2867Z" transform="matrix(1 0 0 1.00198 386.011 276)"/><path d="M70.5312 54.3038C69.4046 55.6295 65.8599 49.6324 65.8599 49.6324 65.8599 49.6324 71.8569 53.1772 70.5312 54.3038Z" transform="matrix(1 0 0 1.00198 386.011 276)"/><path d="M70.554 54.2981C71.6806 52.9724 75.2253 58.9695 75.2253 58.9695 75.2253 58.9695 69.2282 55.4247 70.554 54.2981Z" transform="matrix(1 0 0 1.00198 386.011 276)"/><path d="M70.5369 82.3888C69.2112 81.2623 75.2083 77.7175 75.2083 77.7175 75.2083 77.7175 71.6635 83.7146 70.5369 82.3888Z" transform="matrix(1 0 0 1.00198 386.011 276)"/><path d="M70.5426 82.4116C71.8683 83.5382 65.8712 87.083 65.8712 87.083 65.8712 87.083 69.416 81.0859 70.5426 82.4116Z" transform="matrix(1 0 0 1.00198 386.011 276)"/><path d="M42.6453 82.3945C43.7719 81.0688 47.3167 87.0659 47.3167 87.0659 47.3167 87.0659 41.3196 83.5211 42.6453 82.3945Z" transform="matrix(1 0 0 1.00198 386.011 276)"/><path d="M42.6169 82.4002C41.4903 83.7259 37.9455 77.7289 37.9455 77.7289 37.9455 77.7289 43.9426 81.2736 42.6169 82.4002Z" transform="matrix(1 0 0 1.00198 386.011 276)"/></g></svg>