<svg xmlns="http://www.w3.org/2000/svg" viewBox="0 0 198.425 173.299" style="enable-background:new 0 0 198.425 173.299" xml:space="preserve"><path style="fill-rule:evenodd;clip-rule:evenodd;fill:#f3c736" d="M181.938 161.419 99.213 18.143 16.487 161.419h165.451z"/><path style="fill-rule:evenodd;clip-rule:evenodd" d="M181.938 161.419 99.213 18.143 16.487 161.419h165.451zm10.799 11.88c3.168 0 5.688-2.52 5.688-5.616 0-1.152-.36-2.232-.936-3.168L103.892 2.52C102.885.936 101.085 0 99.213 0a5.779 5.779 0 0 0-4.752 2.52L.936 164.515c-.576.936-.936 2.016-.936 3.168 0 3.096 2.52 5.616 5.688 5.616h187.049z"/><path style="fill-rule:evenodd;clip-rule:evenodd" d="m157.413 149.378-38.769-23.863 13.913-.665-13.759-5.954 20.584-8.212-22.07-1.902 12.103-9.944-15.09 2.66 12.428-18.559-21.032 6.295 11.267-23.028-18.727 10.762 5.959-23.029-15.183 13.069-.634-13.022-5.85 21.807 9.75-2.134-3.157 15.574 12.428-5.63-6.299 16.394 15.415-4.64-10.106 14.089 12.257 5.305-9.781 5.304 11.437 10.594-14.409-2.645 5.958 7.949-10.973-.356 6.995 17.26 1.161-11.769 24.19 9.28-14.904-14.739 44.898 13.749zM72.23 81.994l-11.607 40.845 17.349-9.635-3.792 27.297-3.683-5.088 2.925 17.445 10.4-15.172-5.417 3.465 10.509-38.463-19.083 10.625 13.991-31.318H72.23v-.001z"/></svg>