<?xml version="1.0" encoding="UTF-8" standalone="no"?>
<!-- Created with Inkscape (http://www.inkscape.org/) -->

<svg
   xmlns:dc="http://purl.org/dc/elements/1.1/"
   xmlns:cc="http://creativecommons.org/ns#"
   xmlns:rdf="http://www.w3.org/1999/02/22-rdf-syntax-ns#"
   xmlns:svg="http://www.w3.org/2000/svg"
   xmlns="http://www.w3.org/2000/svg"
   xmlns:sodipodi="http://sodipodi.sourceforge.net/DTD/sodipodi-0.dtd"
   xmlns:inkscape="http://www.inkscape.org/namespaces/inkscape"
   version="1.1"
   width="600"
   height="525"
   id="svg3069"
   inkscape:version="0.91 r13725"
   sodipodi:docname="Custom_W001.svg"
   inkscape:export-filename="/Volumes/CommunSHE$/DSPS_SCC/SCC/Media Library/Pictograms/ISO 7010/Warning/W077/Raster/ISO_7010_W077_medium2.png"
   inkscape:export-xdpi="75.031265"
   inkscape:export-ydpi="75.031265">
  <sodipodi:namedview
     pagecolor="#ffffff"
     bordercolor="#666666"
     borderopacity="1"
     objecttolerance="10"
     gridtolerance="10"
     guidetolerance="10"
     inkscape:pageopacity="0"
     inkscape:pageshadow="2"
     inkscape:window-width="1894"
     inkscape:window-height="1162"
     id="namedview15"
     showgrid="false"
     inkscape:zoom="1.2714453"
     inkscape:cx="133.71519"
     inkscape:cy="299.64058"
     inkscape:window-x="264"
     inkscape:window-y="15"
     inkscape:window-maximized="0"
     inkscape:current-layer="svg3069" />
  <metadata
     id="metadata3085">
    <rdf:RDF>
      <cc:Work
         rdf:about="">
        <dc:format>image/svg+xml</dc:format>
        <dc:type
           rdf:resource="http://purl.org/dc/dcmitype/StillImage" />
        <dc:title />
      </cc:Work>
    </rdf:RDF>
  </metadata>
  <defs
     id="defs3073" />
  <path
     d="M 597.6,499.6 313.8,8 C 310.9,3 305.6,0 299.9,0 294.2,0 288.9,3.1 286,8 L 2.2,499.6 c -2.9,5 -2.9,11.1 0,16 2.9,5 8.2,8 13.9,8 h 567.6 c 5.7,0 11,-3.1 13.9,-8 2.9,-5 2.9,-11.1 0,-16 z"
     id="sign_border" />
  <polygon
     points="43.875,491.5 299.875,48.2 555.875,491.5 "
     transform="matrix(1,0,0,0.99591458,0.125,2.0332437)"
     id="polygon7"
     style="fill:#f6bd16;fill-opacity:1;stroke:none;overflow:visible" />
  <path
     style="fill:none;fill-rule:evenodd;stroke:#000000;stroke-width:8;stroke-linecap:butt;stroke-linejoin:miter;stroke-miterlimit:4;stroke-dasharray:none;stroke-opacity:1"
     d="m 242.47883,452.70127 113.45339,0 0,-186.30827 c -0.55614,-8.2504 -19.18682,-34.03707 -28.91949,-34.03707 l -55.61441,0 c -10.01144,0 -28.91949,24.6072 -28.91949,34.03707 z"
     id="path3588"
     inkscape:connector-curvature="0"
     sodipodi:nodetypes="cccsssc" />
  <path
     style="fill:none;fill-rule:evenodd;stroke:#000000;stroke-width:8;stroke-linecap:butt;stroke-linejoin:miter;stroke-miterlimit:4;stroke-dasharray:none;stroke-opacity:1"
     d="m 270.84218,232.46821 -0.55615,-38.09586 c 0,0 9.73253,-19.41155 28.64142,-19.41155 18.9089,0 28.64142,19.41155 28.64142,19.41155 l 0,38.09586 z"
     id="path4392"
     inkscape:connector-curvature="0"
     sodipodi:nodetypes="ccsccc" />
  <path
     style="fill:none;fill-rule:evenodd;stroke:#000000;stroke-width:8;stroke-linecap:square;stroke-linejoin:miter;stroke-miterlimit:4;stroke-dasharray:none;stroke-opacity:1"
     d="m 262.27544,292.53177 0,97.32522"
     id="path4394"
     inkscape:connector-curvature="0" />
  <path
     style="fill:none;fill-rule:evenodd;stroke:#000000;stroke-width:8;stroke-linecap:square;stroke-linejoin:miter;stroke-miterlimit:4;stroke-dasharray:none;stroke-opacity:1"
     d="m 273.39832,279.18432 0,110.67267"
     id="path4396"
     inkscape:connector-curvature="0" />
</svg>
