<svg xmlns="http://www.w3.org/2000/svg" viewBox="0 0 198.56 173.648" style="enable-background:new 0 0 198.56 173.648" xml:space="preserve"><path style="fill-rule:evenodd;clip-rule:evenodd;stroke:#000;stroke-width:.1276;stroke-miterlimit:2.6131" d="m197.704 164.944-93.456-162-.576-.864-.72-.648-.792-.576-.936-.432-.936-.288L99.28.064l-1.008.072-1.008.288-.864.432-.864.576-.648.648-.576.864-93.456 162-.432.936-.288.936-.072 1.008.072 1.008.288 1.008.432.864.576.864.648.648.864.576.864.432 1.008.288 1.008.072h186.912l1.008-.072.936-.288.936-.432.792-.576.72-.648.576-.864.432-.864.288-1.008.072-1.008-.072-1.008-.288-.936-.432-.936z"/><path style="fill-rule:evenodd;clip-rule:evenodd;fill:#f3c736;stroke:#000;stroke-width:.1276;stroke-miterlimit:2.6131" d="m99.28 18.136 82.8 143.568H16.48l82.8-143.568z"/><path style="fill-rule:evenodd;clip-rule:evenodd;stroke:#000;stroke-width:.216;stroke-miterlimit:2.6131" d="M99.171 126.94c7.465 0 13.518-6.046 13.518-13.504 0-7.461-6.052-13.507-13.518-13.507-7.466 0-13.52 6.046-13.52 13.507 0 7.458 6.053 13.504 13.52 13.504z"/><path style="fill-rule:evenodd;clip-rule:evenodd;stroke:#000;stroke-width:1.5001;stroke-miterlimit:2.6131" d="m99.456 100.324.688-27.483h-2.68l.711 27.483h1.281z"/><path style="fill-rule:evenodd;clip-rule:evenodd" d="M100.17 72.825a3.096 3.096 0 0 0-2.706.016l2.706-.016z"/><path style="fill:none;stroke:#000;stroke-width:1.5001;stroke-miterlimit:2.6131" d="M100.17 72.825a3.096 3.096 0 0 0-2.706.016"/><path style="fill-rule:evenodd;clip-rule:evenodd;stroke:#000;stroke-width:1.5001;stroke-miterlimit:2.6131" d="m93.079 101.733-13.16-24.145-2.319 1.338 14.37 23.446 1.109-.639z"/><path style="fill-rule:evenodd;clip-rule:evenodd" d="M79.935 77.561a3.198 3.198 0 0 0-1.338.422c-.423.243-.735.568-.997.943l2.335-1.365z"/><path style="fill:none;stroke:#000;stroke-width:1.5001;stroke-miterlimit:2.6131" d="M79.935 77.561a3.198 3.198 0 0 0-1.338.422c-.423.243-.735.568-.997.943"/><path style="fill-rule:evenodd;clip-rule:evenodd;stroke:#000;stroke-width:1.5001;stroke-miterlimit:2.6131" d="m88.173 106.208-23.48-14.336-1.339 2.317 24.177 13.127.642-1.108z"/><path style="fill-rule:evenodd;clip-rule:evenodd" d="M64.693 91.841a3.199 3.199 0 0 0-.948 1.031 3.07 3.07 0 0 0-.391 1.317l1.339-2.348z"/><path style="fill:none;stroke:#000;stroke-width:1.5001;stroke-miterlimit:2.6131" d="M64.693 91.841a3.199 3.199 0 0 0-.948 1.031 3.07 3.07 0 0 0-.391 1.317"/><path style="fill-rule:evenodd;clip-rule:evenodd;stroke:#000;stroke-width:1.5001;stroke-miterlimit:2.6131" d="m85.943 112.457-27.509-.688v2.678l27.509-.71v-1.28z"/><path style="fill-rule:evenodd;clip-rule:evenodd" d="M58.418 111.743a3.216 3.216 0 0 0-.303 1.367c0 .488.124.92.319 1.336l-.016-2.703z"/><path style="fill:none;stroke:#000;stroke-width:1.5001;stroke-miterlimit:2.6131" d="M58.418 111.743a3.216 3.216 0 0 0-.303 1.367c0 .488.124.92.319 1.336"/><path style="fill-rule:evenodd;clip-rule:evenodd;stroke:#000;stroke-width:1.5001;stroke-miterlimit:2.6131" d="m87.195 119.025-24.17 13.146 1.341 2.316 23.469-14.354-.64-1.108z"/><path style="fill-rule:evenodd;clip-rule:evenodd" d="M62.998 132.156a3.2 3.2 0 0 0 .422 1.334c.244.426.568.736.946.997l-1.368-2.331z"/><path style="fill:none;stroke:#000;stroke-width:1.5001;stroke-miterlimit:2.6131" d="M62.998 132.156a3.2 3.2 0 0 0 .422 1.334c.244.426.568.736.946.997"/><path style="fill-rule:evenodd;clip-rule:evenodd;stroke:#000;stroke-width:1.5001;stroke-miterlimit:2.6131" d="m91.674 124.31-14.352 23.455 2.319 1.338 13.141-24.155-1.108-.638z"/><path style="fill-rule:evenodd;clip-rule:evenodd" d="M77.29 147.765c.263.376.609.704 1.034.949.422.243.861.352 1.317.389l-2.351-1.338z"/><path style="fill:none;stroke:#000;stroke-width:1.3584;stroke-miterlimit:2.6131" d="M77.29 147.765c.263.376.609.704 1.034.949.422.243.861.352 1.317.389"/><path style="fill-rule:evenodd;clip-rule:evenodd;stroke:#000;stroke-width:1.5001;stroke-miterlimit:2.6131" d="m98.226 126.611-.688 27.483h2.678l-.708-27.483h-1.282z"/><path style="fill-rule:evenodd;clip-rule:evenodd" d="M98.8 150.388a2.74 2.74 0 0 0 2.403-.013l-2.403.013z"/><path style="fill:none;stroke:#000;stroke-width:1.2061;stroke-miterlimit:2.6131" d="M98.8 150.388a2.74 2.74 0 0 0 2.403-.013"/><path style="fill-rule:evenodd;clip-rule:evenodd;stroke:#000;stroke-width:1.5001;stroke-miterlimit:2.6131" d="m105.147 125.17 13.157 24.147 2.319-1.338-14.367-23.448-1.109.639z"/><path style="fill-rule:evenodd;clip-rule:evenodd" d="M118.288 149.345a3.24 3.24 0 0 0 1.336-.423c.424-.244.736-.568.999-.943l-2.335 1.366z"/><path style="fill:none;stroke:#000;stroke-width:1.3584;stroke-miterlimit:2.6131" d="M118.288 149.345a3.24 3.24 0 0 0 1.336-.423c.424-.244.736-.568.999-.943"/><path style="fill-rule:evenodd;clip-rule:evenodd;stroke:#000;stroke-width:1.5001;stroke-miterlimit:2.6131" d="m110.398 120.356 23.477 14.341 1.341-2.319-24.177-13.13-.641 1.108z"/><path style="fill-rule:evenodd;clip-rule:evenodd" d="M133.877 134.728c.375-.264.703-.61.947-1.032.243-.424.352-.861.392-1.317l-1.339 2.349z"/><path style="fill:none;stroke:#000;stroke-width:1.5001;stroke-miterlimit:2.6131" d="M133.877 134.728c.375-.264.703-.61.947-1.032.243-.424.352-.861.392-1.317"/><path style="fill-rule:evenodd;clip-rule:evenodd;stroke:#000;stroke-width:1.5001;stroke-miterlimit:2.6131" d="m110.653 106.966 24.166-13.143-1.338-2.316-23.469 14.35.641 1.109z"/><path style="fill-rule:evenodd;clip-rule:evenodd" d="M134.849 93.839a3.227 3.227 0 0 0-.421-1.336c-.245-.424-.571-.734-.947-.996l1.368 2.332z"/><path style="fill:none;stroke:#000;stroke-width:1.5001;stroke-miterlimit:2.6131" d="M134.849 93.839a3.227 3.227 0 0 0-.421-1.336c-.245-.424-.571-.734-.947-.996"/><path style="fill-rule:evenodd;clip-rule:evenodd;stroke:#000;stroke-width:1.5001;stroke-miterlimit:2.6131" d="m105.907 102.141 14.353-23.455-2.321-1.339-13.143 24.154 1.111.64z"/><path style="fill-rule:evenodd;clip-rule:evenodd" d="M120.291 78.685a3.212 3.212 0 0 0-1.035-.947 3.077 3.077 0 0 0-1.317-.392l2.352 1.339z"/><path style="fill:none;stroke:#000;stroke-width:1.5001;stroke-miterlimit:2.6131" d="M120.291 78.685a3.212 3.212 0 0 0-1.035-.947 3.077 3.077 0 0 0-1.317-.392"/><path style="fill-rule:evenodd;clip-rule:evenodd;stroke:#000;stroke-width:1.5001;stroke-miterlimit:2.6131" d="m102.702 100.516 3.978-13.127-1.836-.485-3.078 13.365.936.247z"/><path style="fill-rule:evenodd;clip-rule:evenodd" d="M106.704 87.349a1.94 1.94 0 0 0-1.882-.464l1.882.464z"/><path style="fill:none;stroke:#000;stroke-width:1.5001;stroke-miterlimit:2.6131" d="M106.704 87.349a1.94 1.94 0 0 0-1.882-.464"/><path style="fill-rule:evenodd;clip-rule:evenodd;stroke:#000;stroke-width:1.5001;stroke-miterlimit:2.6131" d="m95.946 100.472-3.074-13.354-1.833.497 3.973 13.11.934-.253z"/><path style="fill-rule:evenodd;clip-rule:evenodd" d="M92.872 87.072a1.937 1.937 0 0 0-1.859.538l1.859-.538z"/><path style="fill:none;stroke:#000;stroke-width:1.5001;stroke-miterlimit:2.6131" d="M92.872 87.072a1.937 1.937 0 0 0-1.859.538"/><path style="fill-rule:evenodd;clip-rule:evenodd;stroke:#000;stroke-width:1.5001;stroke-miterlimit:2.6131" d="m90.028 103.59-9.305-10.057-1.339 1.347 9.96 9.396.684-.686z"/><path style="fill-rule:evenodd;clip-rule:evenodd" d="M80.7 93.495a1.936 1.936 0 0 0-1.342 1.394l1.342-1.394z"/><path style="fill:none;stroke:#000;stroke-width:1.5001;stroke-miterlimit:2.6131" d="M80.7 93.495a1.936 1.936 0 0 0-1.342 1.394"/><path style="fill-rule:evenodd;clip-rule:evenodd;stroke:#000;stroke-width:1.5001;stroke-miterlimit:2.6131" d="m86.457 109.229-13.169-3.976-.485 1.836 13.406 3.075.248-.935z"/><path style="fill-rule:evenodd;clip-rule:evenodd" d="M73.249 105.232a1.915 1.915 0 0 0-.473.839c-.095.355-.086.713.009 1.039l.464-1.878z"/><path style="fill:none;stroke:#000;stroke-width:1.5001;stroke-miterlimit:2.6131" d="M73.249 105.232a1.915 1.915 0 0 0-.473.839c-.095.355-.086.713.009 1.039"/><path style="fill-rule:evenodd;clip-rule:evenodd;stroke:#000;stroke-width:1.5001;stroke-miterlimit:2.6131" d="m86.006 115.96-13.396 3.157.499 1.829 13.15-4.053-.253-.933z"/><path style="fill-rule:evenodd;clip-rule:evenodd" d="M72.565 119.117c-.076.306-.077.637.011.964.094.353.281.657.529.895l-.54-1.859z"/><path style="fill:none;stroke:#000;stroke-width:1.5001;stroke-miterlimit:2.6131" d="M72.565 119.117c-.076.306-.077.637.011.964.094.353.281.657.529.895"/><path style="fill-rule:evenodd;clip-rule:evenodd;stroke:#000;stroke-width:1.5001;stroke-miterlimit:2.6131" d="m88.999 122.142-10.028 9.465 1.348 1.339 9.367-10.122-.687-.682z"/><path style="fill-rule:evenodd;clip-rule:evenodd" d="M78.931 131.63a1.936 1.936 0 0 0 1.396 1.341l-1.396-1.341z"/><path style="fill:none;stroke:#000;stroke-width:1.5001;stroke-miterlimit:2.6131" d="M78.931 131.63a1.936 1.936 0 0 0 1.396 1.341"/><path style="fill-rule:evenodd;clip-rule:evenodd;stroke:#000;stroke-width:1.5001;stroke-miterlimit:2.6131" d="m94.847 126.136-3.979 13.128 1.836.484 3.079-13.363-.936-.249z"/><path style="fill-rule:evenodd;clip-rule:evenodd" d="M90.844 139.305a1.938 1.938 0 0 0 1.881.461l-1.881-.461z"/><path style="fill:none;stroke:#000;stroke-width:1.5001;stroke-miterlimit:2.6131" d="M90.844 139.305a1.938 1.938 0 0 0 1.881.461"/><path style="fill-rule:evenodd;clip-rule:evenodd;stroke:#000;stroke-width:1.5001;stroke-miterlimit:2.6131" d="m101.98 126.548 3.159 13.384 1.833-.498-4.058-13.139-.934.253z"/><path style="fill-rule:evenodd;clip-rule:evenodd" d="M105.139 139.978a1.945 1.945 0 0 0 1.859-.539l-1.859.539z"/><path style="fill:none;stroke:#000;stroke-width:1.5001;stroke-miterlimit:2.6131" d="M105.139 139.978a1.945 1.945 0 0 0 1.859-.539"/><path style="fill-rule:evenodd;clip-rule:evenodd;stroke:#000;stroke-width:1.5001;stroke-miterlimit:2.6131" d="m108.314 123.216 9.415 10.029 1.338-1.348-10.07-9.367-.683.686z"/><path style="fill-rule:evenodd;clip-rule:evenodd" d="M117.752 133.283c.306-.088.592-.25.831-.49.261-.258.431-.573.512-.905l-1.343 1.395z"/><path style="fill:none;stroke:#000;stroke-width:1.5001;stroke-miterlimit:2.6131" d="M117.752 133.283c.306-.088.592-.25.831-.49.261-.258.431-.573.512-.905"/><path style="fill-rule:evenodd;clip-rule:evenodd;stroke:#000;stroke-width:1.5001;stroke-miterlimit:2.6131" d="m112.026 117.1 13.197 3.975.487-1.833-13.435-3.077-.249.935z"/><path style="fill-rule:evenodd;clip-rule:evenodd" d="M125.263 121.099c.219-.228.386-.513.472-.839a1.927 1.927 0 0 0-.008-1.039l-.464 1.878z"/><path style="fill:none;stroke:#000;stroke-width:1.5001;stroke-miterlimit:2.6131" d="M125.263 121.099c.219-.228.386-.513.472-.839a1.927 1.927 0 0 0-.008-1.039"/><path style="fill-rule:evenodd;clip-rule:evenodd;stroke:#000;stroke-width:1.5001;stroke-miterlimit:2.6131" d="m112.131 109.975 13.368-3.1-.499-1.831-13.122 3.997.253.934z"/><path style="fill-rule:evenodd;clip-rule:evenodd" d="M125.544 106.875a1.933 1.933 0 0 0-.539-1.858l.539 1.858z"/><path style="fill:none;stroke:#000;stroke-width:1.5001;stroke-miterlimit:2.6131" d="M125.544 106.875a1.933 1.933 0 0 0-.539-1.858"/><path style="fill-rule:evenodd;clip-rule:evenodd;stroke:#000;stroke-width:1.5001;stroke-miterlimit:2.6131" d="m108.6 103.972 10.023-9.393-1.346-1.335-9.362 10.047.685.681z"/><path style="fill-rule:evenodd;clip-rule:evenodd" d="M118.663 94.558a1.928 1.928 0 0 0-.492-.829 1.895 1.895 0 0 0-.905-.511l1.397 1.34z"/><path style="fill:none;stroke:#000;stroke-width:1.5001;stroke-miterlimit:2.6131" d="M118.663 94.558a1.928 1.928 0 0 0-.492-.829 1.895 1.895 0 0 0-.905-.511"/><path style="fill:none;stroke:#000;stroke-width:3.9416;stroke-miterlimit:2.6131" d="M109.088 113.005h50.841"/></svg>