<svg xmlns="http://www.w3.org/2000/svg" viewBox="0 0 198.56 173.648" style="enable-background:new 0 0 198.56 173.648" xml:space="preserve"><path style="fill-rule:evenodd;clip-rule:evenodd;stroke:#000;stroke-width:.1276;stroke-miterlimit:2.6131" d="m197.704 164.944-93.456-162-.576-.864-.72-.648-.792-.576-.936-.432-.936-.288L99.28.064l-1.008.072-1.008.288-.864.432-.864.576-.648.648-.576.864-93.456 162-.432.936-.288.936-.072 1.008.072 1.008.288 1.008.432.864.576.864.648.648.864.576.864.432 1.008.288 1.008.072h186.912l1.008-.072.936-.288.936-.432.792-.576.72-.648.576-.864.432-.864.288-1.008.072-1.008-.072-1.008-.288-.936-.432-.936z"/><path style="fill-rule:evenodd;clip-rule:evenodd;fill:#f3c736;stroke:#000;stroke-width:.1276;stroke-miterlimit:2.6131" d="m99.28 18.136 82.8 143.568H16.48l82.8-143.568z"/><path style="fill-rule:evenodd;clip-rule:evenodd" d="M99.52 67.713c-17.485 0-24.262 8.139-27.096 14.862-1.947 4.599-1.593 13.092-1.593 13.092l4.959 57.324h15.938s-4.959-48.478-6.375-56.971c-1.771-16.276 10.96-16.28 14.167-16.276 3.154.004 15.939 0 14.167 16.275-1.417 8.493-6.375 56.971-6.375 56.971h15.937l4.959-57.324s.353-8.493-1.594-13.092c-2.832-6.722-9.609-14.861-27.094-14.861z"/><path style="fill-rule:evenodd;clip-rule:evenodd;fill:#f3c736" d="m121.413 151.177 1.667-17.147h-11.931l-1.778 17.147h12.042zm-43.785 0-1.501-17.121h11.931l1.611 17.121H77.628z"/><path style="fill:none;stroke:#000;stroke-width:3.1501;stroke-miterlimit:2.6131" d="M131.021 131.827c4.022 11.049.671 20.255.671 20.255m6.785-20.255c4.022 11.049.671 20.255.671 20.255m-71.042-20.255c-4.021 11.049-.67 20.255-.67 20.255m-6.786-20.255c-4.022 11.049-.671 20.255-.671 20.255"/></svg>